<svg xmlns="http://www.w3.org/2000/svg" width="78.388" height="78.224" viewBox="0 0 78.388 78.224">
  <g id="analytics" transform="translate(0.54 512.367)" style="isolation: isolate">
    <path id="Path_106" data-name="Path 106" d="M43.706-511.74a30.581,30.581,0,0,0-14.258,5.809,37.528,37.528,0,0,0-5.643,5.628,30.1,30.1,0,0,0-5.839,13.76,38.626,38.626,0,0,0-.075,8.147,30.162,30.162,0,0,0,4.873,12.96,32.9,32.9,0,0,0,2.52,3.229c.2.241.166.317-.3.8a11.167,11.167,0,0,1-1.086,1l-.573.468-.785-.769a7.333,7.333,0,0,0-1.313-1.011,3.225,3.225,0,0,0-2.64.045c-.362.181-4.013,3.742-9.294,9.038-9.837,9.867-9.43,9.369-9.309,11.512.091,1.554.438,2.158,2.369,4.089,1.946,1.976,2.716,2.4,4.315,2.4,1.886,0,1.6.241,11.346-9.52,6.1-6.111,8.856-8.977,9.022-9.369.528-1.3.2-2.474-1.086-3.772a4.176,4.176,0,0,1-.785-.92c.03-.015.513-.468,1.071-1l1.011-.951.573.468a30.076,30.076,0,0,0,13.654,6.714,15.674,15.674,0,0,0,4.481.468,1.264,1.264,0,0,0,.664-1.313c-.136-.709-.5-.875-2.55-1.177a27.935,27.935,0,0,1-5.039-1.116A27.429,27.429,0,0,1,20.411-478.11a26.567,26.567,0,0,1,1.056-12.659A27.576,27.576,0,0,1,43.5-509.251a31.481,31.481,0,0,1,9.852.362c.3.075.724.181.966.226l.407.091v1.373c0,1.222-.03,1.358-.256,1.282a25.265,25.265,0,0,0-8.117-.935,24.8,24.8,0,0,0-23.175,19.689,31.649,31.649,0,0,0-.226,8.615A24.446,24.446,0,0,0,29.6-464.984a24.3,24.3,0,0,0,14.182,7.348,33.159,33.159,0,0,0,7.046.075,24.933,24.933,0,0,0,20.655-18.558A24.861,24.861,0,0,0,66.7-497.724l-.815-1v-3.727l.769.739a36.984,36.984,0,0,1,3.712,4.6,28.423,28.423,0,0,1,3.968,9.747,34.263,34.263,0,0,1,.3,8.419,27.072,27.072,0,0,1-7.83,16.1,27.019,27.019,0,0,1-15.254,7.74c-1.116.181-1.494.3-1.69.558a1.357,1.357,0,0,0,.03,1.645c.377.377.966.377,2.791.06a29.589,29.589,0,0,0,21.545-16.234A30.377,30.377,0,0,0,75.541-492.2a30.56,30.56,0,0,0-8.3-12.251l-1.358-1.162v-2.2c0-2.007-.03-2.278-.347-2.867-.619-1.177-.8-1.222-5.4-1.177l-4.013.045-.528.407-.528.407-1.8-.392a22.845,22.845,0,0,0-5.19-.422C46.211-511.846,44.249-511.816,43.706-511.74Zm19.765,14.816v12.553l.332.347a1.241,1.241,0,0,0,1.645.06l.362-.287.075-5.235.075-5.235.769,1.343a22.738,22.738,0,0,1,2.731,7.227,28.124,28.124,0,0,1-.075,8.419,23.621,23.621,0,0,1-2.082,5.824c-1.509,2.912-1.418,3.123-1.418-2.746a39.716,39.716,0,0,0-.166-5.462,1.262,1.262,0,0,0-1.4-.6c-.86.211-.845.136-.845,7.453v6.729l-.709.679a22.869,22.869,0,0,1-4.6,3.319l-1.026.558v-47.5h6.337ZM51.7-504.061c2.6.543,2.565.573-.83.634-3.033.06-3.2.075-3.757.422-1.026.649-1.147,1.1-1.147,4.873v3.274l-3.5.045c-4.043.045-4.3.121-4.9,1.328-.332.634-.347.845-.347,3.953v3.289H33.854c-3.183,0-3.395.015-4.028.332a2.659,2.659,0,0,0-.981.875c-.287.5-.3.845-.377,7.544l-.075,7.016-.558-.981a21,21,0,0,1-2.7-10.561,21.7,21.7,0,0,1,1.8-8.872,22.457,22.457,0,0,1,17.758-13.443A28.933,28.933,0,0,1,51.7-504.061Zm3.018,23.069v20.051l-1.162.317a23.817,23.817,0,0,1-4.511.785h-.664v-41.189H54.72Zm-8.751,4.873v16.325l-.935-.106a24.277,24.277,0,0,1-4.255-.905l-1.071-.332-.045-15.646-.03-15.646h6.337Zm-8.751,3.078v10.8l-.709-.407a24.574,24.574,0,0,1-4.345-3.259l-1.282-1.207v-16.717h6.337ZM22.463-457.319a19.4,19.4,0,0,1,2.384,2.61,10.445,10.445,0,0,1-1.584,1.811l-1.584,1.584-2.565-2.565-2.565-2.565,1.629-1.629a18.781,18.781,0,0,1,1.765-1.614C20.019-459.688,21.15-458.617,22.463-457.319Zm-5.115,5.3,2.52,2.52-.724.724-.709.709-2.565-2.565L13.32-453.2l.664-.679a4.383,4.383,0,0,1,.754-.679C14.783-454.558,15.96-453.427,17.348-452.024Zm-3.168,3.168,2.52,2.52-4.647,4.647-4.647,4.632H6.727a1.871,1.871,0,0,1-1.282-.438,20.387,20.387,0,0,1-2.836-2.882,2.329,2.329,0,0,1-.075-1.856c.166-.317,8.887-9.158,9.037-9.158C11.615-451.39,12.792-450.258,14.18-448.855Z" transform="translate(0)" fill="#4d87b6" stroke="#fff" stroke-width="1"/>
  </g>
</svg>
