<svg xmlns="http://www.w3.org/2000/svg" width="81.511" height="78.25" viewBox="0 0 81.511 78.25">
  <g id="clock" transform="translate(0.415 502.261)">
    <path id="Path_86" data-name="Path 86" d="M41.813-501.552a4.738,4.738,0,0,0-2.53,1.571,5.279,5.279,0,0,0,.754,7.842,6.1,6.1,0,0,0,1.336.739l.581.173v3.992l-1.131.283a32.945,32.945,0,0,0-11.362,5.563,43.428,43.428,0,0,0-4.84,4.652l-.786.943-6.019.079-6,.079-.409.377a1.549,1.549,0,0,0,.33,2.514,34.831,34.831,0,0,0,5.076.173c2.593,0,4.714.031,4.714.063s-.377.786-.849,1.682c-.456.9-1.069,2.247-1.351,3l-.519,1.383H1.112L.7-466.1a1.591,1.591,0,0,0-.314,1.949c.55.833.644.849,9.445.849h8.109l-.094.346c-.11.424-.519,3.41-.66,4.714l-.079.911H13.5c-3.929,0-4.306.063-4.667.864a1.5,1.5,0,0,0,0,1.414c.361.8.739.864,4.73.864h3.677l.11,1.257a31.224,31.224,0,0,0,.817,4.589c.047.063-2.216.126-5.044.126-5.547,0-5.925.047-6.443.849a1.591,1.591,0,0,0,.314,1.949c.409.346.424.346,6.3.346h5.893l.173.5A41.562,41.562,0,0,0,22-439.4a31.643,31.643,0,0,0,12.965,11.613,31.539,31.539,0,0,0,24.358,1.493,46.115,46.115,0,0,0,6.412-3.064c1.273-.817,1.509-1.949.55-2.75-.629-.534-1.3-.5-2.247.094a32.463,32.463,0,0,1-6,2.813,28.759,28.759,0,0,1-25.112-3.379,28.532,28.532,0,0,1-9.838-35.987,28.542,28.542,0,0,1,20.288-15.746,19.592,19.592,0,0,1,5.5-.424,19.719,19.719,0,0,1,5.516.424,26.815,26.815,0,0,1,7.292,2.546,26.134,26.134,0,0,1,6.553,4.479,28.691,28.691,0,0,1,5.249,35.563c-.864,1.477-.974,1.854-.723,2.483a1.714,1.714,0,0,0,2.216.77c.393-.22,1.21-1.524,2.247-3.583a31.756,31.756,0,0,0-2.907-33.19,40.017,40.017,0,0,0-5.485-5.7,32.3,32.3,0,0,0-11.676-5.956l-1.367-.361V-491.2l.88-.377a5.616,5.616,0,0,0,2.7-2.656,5.426,5.426,0,0,0,0-4.29,5.3,5.3,0,0,0-2.609-2.687l-1.053-.519-6.522-.031C43.825-501.788,42.5-501.756,41.813-501.552ZM55-498.566a2.636,2.636,0,0,1,1.666,1.7,2.381,2.381,0,0,1-.739,2.074l-.471.456-6.443.047c-6.27.047-6.475.031-6.977-.283a2.167,2.167,0,0,1-.66-3c.707-1.069.77-1.084,7.276-1.084C51.855-498.66,54.715-498.613,55-498.566Zm-2.357,9.052v1.619H45.1v-3.222h7.543Z" transform="translate(0 0)" fill="#4d87b6" stroke="#fff" stroke-width="1"/>
    <path id="Path_87" data-name="Path 87" d="M176.72-366.864a25.458,25.458,0,0,0-8.172,2.577,24.489,24.489,0,0,0-12.761,16.862,29.791,29.791,0,0,0,.016,9.523,24.5,24.5,0,0,0,10.78,15.746,24.328,24.328,0,0,0,26.244,0,24.5,24.5,0,0,0,10.78-15.746,29.79,29.79,0,0,0,.016-9.523,24.564,24.564,0,0,0-19.8-19.251A35.369,35.369,0,0,0,176.72-366.864Zm6.365,3.269A21.243,21.243,0,0,1,200.7-345.68a25.246,25.246,0,0,1-.157,7.15,21.012,21.012,0,0,1-5.893,10.843,20.616,20.616,0,0,1-10.749,5.83,24.966,24.966,0,0,1-8.015.094,23.255,23.255,0,0,1-8.282-3.457,27.689,27.689,0,0,1-2.844-2.467,21.012,21.012,0,0,1-5.893-10.843,25.246,25.246,0,0,1-.157-7.15,21.318,21.318,0,0,1,17.522-17.915A27.767,27.767,0,0,1,183.084-363.595Z" transform="translate(-130.836 -113.615)" fill="#4d87b6" stroke="#fff" stroke-width="1"/>
    <path id="Path_88" data-name="Path 88" d="M300.8-328.769c-.581.314-.786.864-.8,2.027,0,1.194.267,1.854.9,2.137a1.483,1.483,0,0,0,1.446-.047c.6-.314.8-.864.8-2.232,0-1.1-.031-1.226-.456-1.65A1.54,1.54,0,0,0,300.8-328.769Z" transform="translate(-252.702 -145.627)" fill="#4d87b6" stroke="#fff" stroke-width="1"/>
    <path id="Path_89" data-name="Path 89" d="M275.759-292.4c-.251.126-2.232,2-4.384,4.149l-3.913,3.929-.629-.22a5.909,5.909,0,0,0-3.1.016l-.55.2-1.98-1.949c-1.823-1.792-2.027-1.949-2.561-1.949a1.351,1.351,0,0,0-1.43.786c-.487.943-.377,1.163,1.729,3.284l1.949,1.98-.22.77a4.848,4.848,0,0,0,1.037,4.7,4.818,4.818,0,0,0,7.2,0,4.848,4.848,0,0,0,1.037-4.7l-.236-.77,4.086-4.086c4.007-4.023,4.086-4.117,4.086-4.746a1.331,1.331,0,0,0-.409-1.053,1.463,1.463,0,0,0-.629-.409,1.338,1.338,0,0,1-.409-.079A1.458,1.458,0,0,0,275.759-292.4ZM266.5-281.087a1.518,1.518,0,0,1,.236,2.074,1.726,1.726,0,0,1-3.159-1.021,1.769,1.769,0,0,1,1.729-1.587A1.376,1.376,0,0,1,266.5-281.087Z" transform="translate(-216.44 -176.337)" fill="#4d87b6" stroke="#fff" stroke-width="1"/>
    <path id="Path_90" data-name="Path 90" d="M193.753-221.623a1.494,1.494,0,0,0,.11,2.342,4.024,4.024,0,0,0,2.53.361,1.541,1.541,0,0,0,.911-2.624c-.44-.44-.534-.456-1.823-.456C194.255-222,194.1-221.969,193.753-221.623Z" transform="translate(-162.72 -235.801)" fill="#4d87b6" stroke="#fff" stroke-width="1"/>
    <path id="Path_91" data-name="Path 91" d="M398.456-221.544a1.343,1.343,0,0,0-.456,1.037c0,1.241.707,1.713,2.483,1.619,1.084-.047,1.194-.094,1.619-.566a1.37,1.37,0,0,0,.267-1.681c-.283-.629-.9-.864-2.247-.864C399.006-222,398.88-221.969,398.456-221.544Z" transform="translate(-335.301 -235.801)" fill="#4d87b6" stroke="#fff" stroke-width="1"/>
    <path id="Path_92" data-name="Path 92" d="M301.147-124.442a1.769,1.769,0,0,0-.754.534c-.346.424-.393.629-.393,1.729,0,1.147.031,1.273.456,1.744a1.439,1.439,0,0,0,1.964.22c.55-.346.723-.833.723-1.98a4.554,4.554,0,0,0-.157-1.32A1.716,1.716,0,0,0,301.147-124.442Z" transform="translate(-252.702 -318.005)" fill="#4d87b6" stroke="#fff" stroke-width="1"/>
    <path id="Path_93" data-name="Path 93" d="M1.151-160.273a1.5,1.5,0,0,0,.566,2.907,1.5,1.5,0,0,0,.927-2.719A1.362,1.362,0,0,0,1.151-160.273Z" transform="translate(-0.008 -287.707)" fill="#4d87b6" stroke="#fff" stroke-width="1"/>
    <path id="Path_94" data-name="Path 94" d="M436.433-85.607a1.414,1.414,0,0,0-.047,2.043,1.079,1.079,0,0,0,1.069.487A1.438,1.438,0,0,0,438.963-84,1.527,1.527,0,0,0,436.433-85.607Z" transform="translate(-367.307 -350.366)" fill="#4d87b6" stroke="#fff" stroke-width="1"/>
  </g>
</svg>
