<svg xmlns="http://www.w3.org/2000/svg" width="40" height="40.002" viewBox="0 0 40 40.002">
  <g id="data-practice" transform="translate(0 512.01)">
    <path id="Path_116" data-name="Path 116" d="M.617-511.83a1.937,1.937,0,0,0-.438.438l-.18.266v33.938l.18.266a1.315,1.315,0,0,0,1.352.617h.656v.586a1.474,1.474,0,0,0,.461,1.312,1.882,1.882,0,0,0,1.266.367h.445l.031.57a1.445,1.445,0,0,0,.234.891c.406.617-.391.57,10.266.57h9.516l2.859-2.852,2.852-2.851.023-3,.023-3,.641-.055c.352-.023.859-.086,1.117-.125,1.266-.187,3.227-.969,3.4-1.352a.666.666,0,0,0-.508-.906,3.767,3.767,0,0,0-.836.3,8.324,8.324,0,0,1-7.375-.062,9.444,9.444,0,0,1-1.273-.758l-.5-.367,2.844-2.844c1.555-1.555,2.867-2.836,2.914-2.836.148,0,7.578,1.977,7.641,2.031.156.141-.57,1.531-1.289,2.469-.437.578-.484.867-.18,1.164.438.445.828.211,1.641-1.016A9.1,9.1,0,0,0,40-493.51a9.314,9.314,0,0,0-2.641-6.641,9.666,9.666,0,0,0-6.516-2.992l-.766-.055v-1.82c0-1.758-.008-1.82-.18-2.078a1.315,1.315,0,0,0-1.352-.617h-.656v-.57c0-1.055-.492-1.539-1.57-1.539h-.6l-.023-.648a1.509,1.509,0,0,0-.242-.969c-.406-.617.68-.57-12.664-.57H.883Zm23.711,1.039c.094.039.125.164.125.508v.461l-6.922.016-6.93.023-.156.211a.473.473,0,0,0-.086.508.572.572,0,0,0,.266.391c.156.078,1.9.1,8.109.1h7.906v.859H5.352l-.3.18a1.362,1.362,0,0,0-.492.516l-.18.344v31.391l-.445-.023-.453-.023-.023-16.617-.016-16.617,2.266-.023c2.5-.023,2.461-.016,2.547-.539a.548.548,0,0,0-.125-.484l-.164-.211H5.57c-2.328,0-2.391.008-2.7.172a1.608,1.608,0,0,0-.5.5l-.187.32v31.274H1.25V-494.15c0-13.2.023-16.6.1-16.633C1.492-510.846,24.18-510.846,24.328-510.791Zm4.531,4.453c.023.07.047.836.047,1.7v1.586l-.328.047a10.71,10.71,0,0,0-2.4.766,9.8,9.8,0,0,0-5.039,5.641,8.424,8.424,0,0,0-.477,3.141,8.416,8.416,0,0,0,.523,3.242,9.691,9.691,0,0,0,5.281,5.672,11.187,11.187,0,0,0,2.289.656c.141,0,.148.109.148,2.617v2.609l-2.289.023-2.3.023-.289.227c-.563.422-.594.586-.594,3.031v2.172H14.656c-4.828,0-8.836-.023-8.906-.047-.117-.047-.125-1.578-.125-16.586,0-9.1.023-16.57.055-16.594s5.242-.055,11.594-.055C27.719-506.463,28.813-506.455,28.859-506.338Zm2.625,4.523c.953.141,1.688.367,1.656.508-.016.063-.766,1.766-1.672,3.781l-1.648,3.68-2.945,2.961-2.953,2.961-.4-.539a8.454,8.454,0,0,1,3.6-12.8A7.819,7.819,0,0,1,31.484-501.814Zm3.547,1.344a10.223,10.223,0,0,1,2.461,2.555,9.026,9.026,0,0,1,1.117,2.859,6.97,6.97,0,0,1,.125,1.891,8.615,8.615,0,0,1-.078,1.2c-.055.055-7.25-1.82-7.352-1.914-.07-.062,3-6.953,3.1-6.953A4.68,4.68,0,0,1,35.031-500.471Zm-8.617,24.625c-.82.852-1.547,1.594-1.609,1.648-.1.086-.117-.086-.117-1.5a12.888,12.888,0,0,1,.055-1.648,12.32,12.32,0,0,1,1.609-.055h1.555Z" transform="translate(0 0)" fill="#4d87b6"/>
    <path id="Path_117" data-name="Path 117" d="M114.093-388.839a.656.656,0,0,0-.046.911c.153.153.253.153,6.046.153s5.892,0,6.045-.153a.626.626,0,0,0,.153-.459.626.626,0,0,0-.153-.459c-.153-.153-.253-.153-6-.153C114.346-389,114.292-389,114.093-388.839Z" transform="translate(-104.904 -113.394)" fill="#4d87b6"/>
    <path id="Path_118" data-name="Path 118" d="M114.11-333.74a.659.659,0,0,0-.054.918c.153.153.253.153,4.745.153s4.592,0,4.745-.153a.826.826,0,0,0,.046-.888c-.107-.138-.26-.145-4.7-.168C114.339-333.893,114.309-333.893,114.11-333.74Z" transform="translate(-104.936 -164.201)" fill="#4d87b6"/>
    <path id="Path_119" data-name="Path 119" d="M114.093-278.839a.656.656,0,0,0-.046.911c.145.145.253.153,4.132.153s3.987-.008,4.132-.153a.856.856,0,0,0,.092-.811c-.161-.245-.4-.26-4.247-.26C114.369-279,114.292-279,114.093-278.839Z" transform="translate(-104.937 -214.795)" fill="#4d87b6"/>
    <path id="Path_120" data-name="Path 120" d="M118.157-194.856a.526.526,0,0,0-.245.268,14.444,14.444,0,0,0-.077,1.959v1.752h-1.217c-1.11,0-1.232.015-1.416.161l-.2.153v4.431H114.7a.616.616,0,0,0-.543,1l.145.184,5.464.023c3.849.015,5.517-.008,5.663-.069a.619.619,0,0,0,.115-1.025.956.956,0,0,0-.452-.115H124.8v-5.885l-.2-.153c-.184-.145-.306-.161-1.416-.161h-1.217v-1.033c0-1.1-.061-1.347-.36-1.485A19.984,19.984,0,0,0,118.157-194.856Zm2.587,4.936v3.788H119.06v-7.576h1.684Zm2.831,1.3v2.487h-1.607v-4.974h1.607Zm-5.739.727v1.76h-1.607v-3.52h1.607Z" transform="translate(-105.025 -292)" fill="#4d87b6"/>
  </g>
</svg>
