<svg xmlns="http://www.w3.org/2000/svg" width="85.223" height="100" viewBox="0 0 85.223 100">
  <g id="email" transform="translate(-38.112 511.808)">
    <path id="Path_171" data-name="Path 171" d="M92.461-511.474a19.339,19.339,0,0,0-9.27,4.909,19.55,19.55,0,0,0-5.222,8.1l-.528,1.584-2.406.332a42.994,42.994,0,0,0-29.825,18.873,50.285,50.285,0,0,0-4.929,10.033,41.625,41.625,0,0,0-.039,26.4A41.035,41.035,0,0,0,50.7-424.306,42.345,42.345,0,0,0,73.881-412.16a37.031,37.031,0,0,0,6.943.352c5.5,0,7.334-.215,11.343-1.369,4.107-1.173,9.446-3.54,10.346-4.616a1.959,1.959,0,0,0-.059-2.738c-.88-.88-1.506-.763-4.733.782a48.978,48.978,0,0,1-4.909,2.054,39.073,39.073,0,0,1-24.115,0,45.177,45.177,0,0,1-7.3-3.266c-.763-.509-.821-.587-.821-1.408,0-.861.078-.958,2.034-3.031,2.21-2.327,2.8-3.344,3.071-5.183.235-1.6.215-14.16-.02-15.8a6.417,6.417,0,0,0-3.775-5.144c-1.1-.509-1.486-.567-4.244-.685-1.662-.059-3.071-.137-3.11-.156-.293-.078-11.167-11.109-11.167-11.3,0-.137.352-1.31.782-2.621a39.749,39.749,0,0,1,10.972-16.761l1.6-1.408.567,1.017c.391.724,2.23,2.7,5.985,6.474,4.811,4.831,5.574,5.515,6.806,6.122a7.256,7.256,0,0,0,3.207.861,7.609,7.609,0,0,1,2.719.626,5.309,5.309,0,0,1,2.366,2.855,120.86,120.86,0,0,1,0,13.573,5.322,5.322,0,0,1-.88,1.565c-1.9,2.347-2.621,3.97-2.777,6.219a8.577,8.577,0,0,0,1.173,5.065,57.17,57.17,0,0,0,8.312,7.9,9.523,9.523,0,0,0,9.212-.078c.939-.587,12.928-12.478,14.023-13.925,1.545-2.073,1.7-2.738,1.819-7.862.1-3.951.156-4.6.508-5.281a39.908,39.908,0,0,1,3.833-4.3l3.462-3.52.528,1.721a38.417,38.417,0,0,1-4.6,32.094c-1.623,2.542-1.76,3.286-.8,4.244a1.674,1.674,0,0,0,1.428.567c1.1-.02,1.428-.293,2.836-2.464a42.89,42.89,0,0,0,.039-46.528c-.763-1.193-1.741-2.562-2.151-3.051l-.763-.919.958-2.014a16.148,16.148,0,0,0,1.858-8.684,15.38,15.38,0,0,0-.43-4.831,19.626,19.626,0,0,0-5.2-9.075,19.514,19.514,0,0,0-8.821-5.163A26.177,26.177,0,0,0,92.461-511.474Zm6.317,4.048a6.129,6.129,0,0,1,3.207,2.973,6.584,6.584,0,0,1,.626,3.286c.078,2.66-.235,3.931-1.31,5.3a7.193,7.193,0,0,1-1.819,1.526,4.15,4.15,0,0,1-2.719.587,4.15,4.15,0,0,1-2.719-.587,5.967,5.967,0,0,1-2.777-3.207c-.352-.958-.391-1.428-.332-3.54.059-2.19.117-2.542.587-3.442a6.785,6.785,0,0,1,3.149-2.895A7.514,7.514,0,0,1,98.778-507.426Zm9.974,5.281a18.908,18.908,0,0,1,3.188,6.043,18.2,18.2,0,0,1,.2,6.9c-.391,1.936-1.056,3.755-1.389,3.755a60.175,60.175,0,0,1-7.139-2.758,9.378,9.378,0,0,1-.274-1.878l-.117-1.662.841-.939a10.969,10.969,0,0,0,2.386-4.518,24.2,24.2,0,0,0,.117-6.493l-.176-.743.606.469A14.548,14.548,0,0,1,108.752-502.145Zm-21.924.685a20.076,20.076,0,0,0,.156,3.951,10.069,10.069,0,0,0,2.327,4.674l.958,1.056-.137,1.8a12.324,12.324,0,0,1-.254,1.9c-.156.156-6.845,2.64-7.1,2.64-.293,0-.958-1.643-1.369-3.4a17.727,17.727,0,0,1-.293-3.247,15.055,15.055,0,0,1,4.361-10.894,10.137,10.137,0,0,1,1.291-1.232A14.07,14.07,0,0,1,86.828-501.461Zm-9.759,10.776a19.191,19.191,0,0,0,2.66,8.664c.8,1.408,11.559,16.35,12.38,17.23a6.946,6.946,0,0,0,1.584,1.173c.939.528,1.173.567,3.071.567,1.917,0,2.132-.039,3.09-.567a7.752,7.752,0,0,0,1.565-1.193c.293-.313,2.542-3.383,5.007-6.806,2.464-3.4,4.557-6.2,4.655-6.2a26.342,26.342,0,0,1,3.227,4.733l1.017,1.8-4.244,4.3c-5.789,5.887-5.906,6.122-5.906,12.341,0,2.953-.059,3.951-.313,4.713-.293.841-1.076,1.7-6.806,7.451-7.021,7.021-7.451,7.354-9.309,7.354-1.623,0-2.562-.587-5.965-3.775-3.5-3.266-3.912-3.892-3.912-5.867a4.376,4.376,0,0,1,1.467-3.423c2.21-2.543,2.347-3.227,2.347-11.539,0-5.867-.039-6.806-.352-7.96a8.585,8.585,0,0,0-7.491-6.239c-3.149-.411-2.679-.059-8.429-5.809-4.146-4.127-5.3-5.4-5.633-6.161-.293-.685-.352-1.017-.215-1.193a39.834,39.834,0,0,1,6.258-3.149,46.408,46.408,0,0,1,9.818-2.425C76.893-492.679,76.971-492.347,77.069-490.684Zm22.3,2.347a4.973,4.973,0,0,0,1.193,3.071.857.857,0,0,1,.313.43,10.842,10.842,0,0,1-3.5,1.643,6.965,6.965,0,0,1-3.872-1.017,4.322,4.322,0,0,1-.841-.567,10.157,10.157,0,0,1,.606-.939,4.472,4.472,0,0,0,.821-2.406l.215-1.525h4.968Zm-8.058,7.628a9.978,9.978,0,0,0,5.457,1.6,11.254,11.254,0,0,0,7.334-2.953l1.134-.9,1.369.469a13.047,13.047,0,0,1,1.643.665c.215.156-.763,1.623-4.733,7.139-2.758,3.814-5.222,7.1-5.5,7.3a2.348,2.348,0,0,1-2.327.137c-.469-.254-10.659-14.062-10.659-14.434a5.93,5.93,0,0,1,1.623-.724l1.6-.606.919.8A18.588,18.588,0,0,0,91.307-480.71Zm-38.45,31.977c1.076.489,1.447.548,4.107.645,3.168.117,3.52.215,4.244,1.213.45.645.45.685.508,7.491.039,3.755,0,7.315-.059,7.9-.137,1.017-.215,1.154-2.093,3.09a13.55,13.55,0,0,0-2.445,3.11l-.489,1.056-1.271-1.115a39.326,39.326,0,0,1-13.1-27.342,39.642,39.642,0,0,1,.039-4.088l.137-1.721,4.616,4.6C50.94-450.024,51.878-449.2,52.856-448.733Z" fill="#4d87b6"/>
    <path id="Path_172" data-name="Path 172" d="M386.048-73.591c-.469.411-.548.626-.548,1.486a1.724,1.724,0,0,0,1.956,1.956,1.724,1.724,0,0,0,1.956-1.956c0-.861-.078-1.076-.548-1.486A2.29,2.29,0,0,0,386.048-73.591Z" transform="translate(-279.447 -352.123)" fill="#4d87b6"/>
  </g>
</svg>
