<svg xmlns="http://www.w3.org/2000/svg" width="76" height="81" viewBox="0 0 76 81">
  <g id="filter" transform="translate(-14.548 512.62)" style="isolation: isolate">
    <path id="Path_107" data-name="Path 107" d="M109.317-511.709c-.3.377-.317.6-.317,3.257a18.191,18.191,0,0,0,.151,3.122,1.335,1.335,0,0,0,.6.467,1.251,1.251,0,0,0,1.508-.467,18.87,18.87,0,0,0,.151-3.182c0-2.745-.015-2.956-.3-3.257A1.252,1.252,0,0,0,109.317-511.709Z" transform="translate(-79.297)" fill="#4d87b6" stroke="#fff" stroke-width="1"/>
    <path id="Path_108" data-name="Path 108" d="M262.392-495.627l-.392.3v3.091c0,2.88.015,3.091.3,3.378a1.357,1.357,0,0,0,1.674.015c.347-.287.362-.347.407-3.107.06-3.061-.03-3.544-.664-3.83A1.09,1.09,0,0,0,262.392-495.627Z" transform="translate(-208.431 -13.745)" fill="#4d87b6" stroke="#fff" stroke-width="1"/>
    <path id="Path_109" data-name="Path 109" d="M15.922-484.546l-.422.362v3.016c0,2.76.03,3.046.287,3.333a1.366,1.366,0,0,0,1.749.015c.287-.287.3-.5.3-3.378v-3.091l-.392-.3A1.062,1.062,0,0,0,15.922-484.546Z" transform="translate(-0.383 -23.122)" fill="#4d87b6" stroke="#fff" stroke-width="1"/>
    <path id="Path_110" data-name="Path 110" d="M175.018-463.487a4.058,4.058,0,0,0-2.187,1.915,3.3,3.3,0,0,0-.332,1.734,3.12,3.12,0,0,0,.437,1.93,3.686,3.686,0,0,0,3.8,1.945,3.855,3.855,0,0,0,2.428-6.56A3.915,3.915,0,0,0,175.018-463.487Zm2.428,2.745a1.449,1.449,0,0,1-1.191,2.413,1.547,1.547,0,0,1-.92-.528c-.467-.467-.528-.6-.452-1.086A1.437,1.437,0,0,1,177.446-460.742Z" transform="translate(-132.824 -41.104)" fill="#4d87b6" stroke="#fff" stroke-width="1"/>
    <path id="Path_111" data-name="Path 111" d="M63.42-449.522c-1.06.644-1.356,1.4-1.449,3.642l-.078,1.931-1.028.408a21,21,0,0,0-4.441,2.574c-.5.392-1.028.816-1.184.926-.249.173-.467.094-1.73-.612-1.792-1-2.7-1.146-3.786-.612-.873.408-.935.5-2.758,3.846-1.371,2.511-1.449,2.715-1.465,3.61a5.753,5.753,0,0,0,.125,1.287l.125.361h-7.4a67.65,67.65,0,0,0-7.775.173,1.2,1.2,0,0,0-.343,1.946l.374.392H68.173v6.749H17.534l.031-3.343.047-3.328,4.363-.047c4.207-.031,4.363-.047,4.706-.377a1.3,1.3,0,0,0,.062-1.711l-.3-.377-4.269-.047c-2.337-.031-4.55,0-4.924.047A2.85,2.85,0,0,0,15.2-430.31a72.477,72.477,0,0,0-.016,9.01c.078.2,4.924,5.415,10.767,11.584s10.689,11.38,10.767,11.584.14,3.139.14,6.718v6.341l.514.534a43.4,43.4,0,0,0,4.674,2.9c3.786,2.15,4.222,2.37,4.924,2.37a1.733,1.733,0,0,0,1.169-.33c.81-.644.873-.958.873-4.5,0-3.092-.016-3.312-.327-3.7a1.238,1.238,0,0,0-1.823-.047c-.327.345-.343.5-.343,3.076a14.386,14.386,0,0,1-.125,2.653c-.078-.016-1.683-.926-3.584-2.009l-3.443-1.962-.047-6.279c-.047-6.043-.062-6.31-.374-6.985-.234-.487-3.3-3.846-10-10.909l-9.645-10.2,11.826-.047c6.513-.016,17.124-.016,23.605,0l11.764.047L61.3-414.974c-2.851,3.014-7.214,7.644-9.691,10.25a60.127,60.127,0,0,0-4.8,5.415c-.249.581-.3,1.067-.3,3.955,0,2.668.047,3.375.234,3.642a1.268,1.268,0,0,0,2.088-.2,17.219,17.219,0,0,0,.171-3.359v-2.982l4.924-5.211c2.711-2.872,5.111-5.415,5.344-5.666l.405-.424,1.091.455,1.091.471.093,1.931c.109,2.088.249,2.558,1.028,3.3.717.691,1.106.753,4.752.753,3.194,0,3.506-.031,4.145-.33a3.106,3.106,0,0,0,1.091-.973c.39-.581.421-.8.5-2.606.078-1.915.093-1.978.467-2.166.218-.094,1.06-.5,1.885-.895a18.646,18.646,0,0,0,2.789-1.7c2.057-1.585,1.73-1.523,3.4-.612,1.636.91,2.322,1.067,3.3.8,1.028-.283,1.6-1,3.272-4.175,1.309-2.48,1.465-2.888,1.465-3.594-.016-1.554-.654-2.26-3.3-3.594l-.826-.424.109-1.052a27.288,27.288,0,0,0,0-4.787l-.109-.863,1.371-.753c2.166-1.162,2.727-1.852,2.758-3.281,0-.722-.14-1.083-1.527-3.7-1.652-3.124-1.9-3.469-2.773-3.924-1.013-.518-1.792-.408-3.63.565l-1.636.863-1.418-1.1a26.246,26.246,0,0,0-5.126-2.9c-.374-.157-.39-.2-.467-2.119-.093-2.213-.265-2.684-1.2-3.406l-.561-.44-3.833-.047C64.059-449.9,64.044-449.9,63.42-449.522Zm7.557,4.285c.078,2.009.093,2.072.561,2.668a3.629,3.629,0,0,0,1.013.863c.3.141,1.262.612,2.166,1.052a17.584,17.584,0,0,1,2.992,1.884c2.2,1.758,2.649,1.805,5.111.549,1.184-.612,1.776-.848,1.885-.738.093.094.795,1.318,1.543,2.731,1.075,1.993,1.34,2.621,1.2,2.762a14.355,14.355,0,0,1-1.511.91c-1.62.91-1.948,1.193-2.275,2.056a4.757,4.757,0,0,0-.093,2.449,19.942,19.942,0,0,1,0,3.343c-.265,2.825,0,3.359,2.337,4.63a9.35,9.35,0,0,1,1.652,1.036,53.316,53.316,0,0,1-2.867,5.447,5.455,5.455,0,0,1-1.792-.738c-2.384-1.271-3.054-1.224-4.908.3a17.18,17.18,0,0,1-3.9,2.417c-2.01.879-2.213,1-2.618,1.632-.39.581-.421.785-.5,2.684l-.078,2.056-3.023.047a12.808,12.808,0,0,1-3.194-.126,8.77,8.77,0,0,1-.249-2.182c-.078-1.915-.093-2.025-.53-2.59a3.28,3.28,0,0,0-1.324-.989c-.483-.22-.9-.424-.935-.455a27.383,27.383,0,0,1,1.932-2.135l1.994-2.072,1.807.031a9.213,9.213,0,0,0,2.992-.267c1.387-.361,3.023-1.146,3.163-1.507a1.708,1.708,0,0,0-.171-1.523c-.545-.471-.935-.471-2.026,0a7.022,7.022,0,0,1-2.914.816H67.8l1.449-1.475,1.433-1.475-.047-4.709c-.047-5.352-.031-5.258-1.371-5.965-.654-.33-.873-.345-3.864-.345-3.537,0-3.521,0-2.057-.942a8.3,8.3,0,0,1,3.366-1.256,8.285,8.285,0,0,1,8.959,6.388,9.232,9.232,0,0,1-.39,4.615c-.483,1.24-.5,1.538-.078,2.088a1.229,1.229,0,0,0,1.558.251c.763-.424,1.543-3.045,1.543-5.258a10.617,10.617,0,0,0-7.946-10.391,14.017,14.017,0,0,0-4.986-.063,11.776,11.776,0,0,0-4.83,2.637,9.659,9.659,0,0,0-1.356,1.491l-.265.439H50.239l-1.153-.643a3.839,3.839,0,0,1-1.169-.8,51.451,51.451,0,0,1,2.976-5.462,16.415,16.415,0,0,1,1.776.863c2.306,1.224,3.007,1.162,4.892-.392a15.933,15.933,0,0,1,4.3-2.606c2.213-.863,2.571-1.413,2.571-3.861a15.573,15.573,0,0,1,.093-1.978l.093-.345,3.147.031,3.132.047Z" transform="translate(0 -52.854)" fill="#4d87b6" stroke="#fff" stroke-width="1"/>
    <path id="Path_112" data-name="Path 112" d="M59.187-443.635A3.7,3.7,0,0,0,57-440.106a3.583,3.583,0,0,0,1.976,3.423,3.138,3.138,0,0,0,1.87.437,3.766,3.766,0,0,0,3.619-2.322,4.733,4.733,0,0,0,.045-3.031A4.024,4.024,0,0,0,59.187-443.635Zm2.473,2.292a2.1,2.1,0,0,1,.558.754,1.036,1.036,0,0,1,0,1.025,1.425,1.425,0,0,1-2.413.437A1.459,1.459,0,0,1,61.66-441.343Z" transform="translate(-35.625 -57.85)" fill="#4d87b6" stroke="#fff" stroke-width="1"/>
    <path id="Path_113" data-name="Path 113" d="M141.377-405.623c-.377.362-.377.377-.377,3.288,0,2.73.015,2.956.317,3.333a1.155,1.155,0,0,0,1.779,0c.3-.377.317-.6.317-3.333,0-2.911,0-2.926-.377-3.288a1.176,1.176,0,0,0-.829-.377A1.175,1.175,0,0,0,141.377-405.623Z" transform="translate(-106.305 -89.481)" fill="#4d87b6" stroke="#fff" stroke-width="1"/>
  </g>
</svg>
