<svg xmlns="http://www.w3.org/2000/svg" width="78.419" height="78.22" viewBox="0 0 78.419 78.22">
  <g id="fraud_1_" data-name="fraud (1)" transform="translate(0.5 512.274)">
    <path id="Path_95" data-name="Path 95" d="M13.066-511.5C12.19-511.077.695-499.552.3-498.721c-.3.634-.3,1-.3,28.639v27.99l.483.816a3.743,3.743,0,0,0,1.239,1.284l.74.453,23.775.045c22.461.03,23.76.045,23.76.3a6.883,6.883,0,0,0,1.662,2.915,7.213,7.213,0,0,0,1.782,1.239,4.574,4.574,0,0,0,2.749.483,4.365,4.365,0,0,0,2.568-.408,6.467,6.467,0,0,0,3.338-3.7c.272-.8.287-1.329.287-9.471,0-4.758-.06-8.836-.136-9.108l-.136-.483,1-.332a24.616,24.616,0,0,0,5.151-2.6,25.878,25.878,0,0,0,4.939-4.773,22.569,22.569,0,0,0,3.912-9.139,28.156,28.156,0,0,0,0-7.13,21.44,21.44,0,0,0-14.456-16.661,20.261,20.261,0,0,0-4.667-.921h-.574l-.045-5.03-.045-5.045-.453-.74a4.084,4.084,0,0,0-1.193-1.193l-.74-.453-20.634-.03C13.972-511.8,13.655-511.8,13.066-511.5Zm41.056,2.417c.665.3.71.65.71,5.347v4.456h-.514c-.272,0-.816.045-1.208.091l-.695.106v-7.749H42.294v12.477l-1.133,1.118-1.133,1.118v-9.728H29.908v25.074H32.4a18.1,18.1,0,0,1,2.492.091,33.223,33.223,0,0,0,.831,4.486,21.316,21.316,0,0,0,13.262,14.078c.967.347,1.163.468,1.057.665-.06.136-.136,3.655-.166,7.824l-.045,7.6h-23.1c-16.6,0-23.2-.045-23.458-.166a1.186,1.186,0,0,1-.544-.544c-.121-.257-.166-7.84-.166-27.159v-26.8l4.8-.045c5.257-.06,5.332-.06,6.42-1.012a5.127,5.127,0,0,0,.891-1.193c.332-.695.347-.846.393-5.513l.045-4.788H34.44C48.276-509.249,53.865-509.2,54.122-509.083Zm-41.735,5.347v3.565l-.378.363-.363.378H4.456l3.927-3.927c2.16-2.16,3.942-3.927,3.958-3.927C12.371-507.286,12.386-505.684,12.386-503.736Zm37.43,2.356-.045,2.87-1.057.423c-.574.227-1.646.725-2.372,1.1l-1.329.68v-7.96h4.834ZM37.31-493.706v5.574l-.514,1.118a23.072,23.072,0,0,0-1.828,6.8l-.091.725h-2.4V-499.28H37.31ZM59.3-496.485a18.891,18.891,0,0,1,13.413,9.954,16.383,16.383,0,0,1,1.949,8.4,16.434,16.434,0,0,1-1.933,8.383,18.737,18.737,0,0,1-19.652,9.969,18.836,18.836,0,0,1-15.332-15.332,23.79,23.79,0,0,1,0-6.042A18.95,18.95,0,0,1,52.853-496.47,24.909,24.909,0,0,1,59.3-496.485ZM56.115-456.91c.755,0,1.813-.045,2.372-.106l1.012-.106.166.559a6.352,6.352,0,0,1,.151,1.269v.725h-7.4v-.619a6.364,6.364,0,0,1,.166-1.269l.166-.665,1.012.106C54.3-456.955,55.375-456.91,56.115-456.91Zm3.7,10.861c0,4.788-.045,5.906-.227,6.45a3.635,3.635,0,0,1-5.71,1.737,4.558,4.558,0,0,1-.952-1.178l-.438-.8-.045-6.012-.045-6h7.417Z" transform="translate(0 0)" fill="#4d87b6" stroke="#fff" stroke-width="1"/>
    <path id="Path_96" data-name="Path 96" d="M115-402.955v10.045h10.12V-413H115Zm7.553-.076v7.4h-4.834v-14.8h4.834Z" transform="translate(-97.629 -83.863)" fill="#4d87b6" stroke="#fff" stroke-width="1"/>
    <path id="Path_97" data-name="Path 97" d="M33-372.447v7.553H43.12V-380H33Zm7.4-.076v4.909H35.568v-9.818H40.4Z" transform="translate(-28.015 -111.878)" fill="#4d87b6" stroke="#fff" stroke-width="1"/>
    <path id="Path_98" data-name="Path 98" d="M33-263.641v1.359h2.568V-265H33Z" transform="translate(-28.015 -209.507)" fill="#4d87b6" stroke="#fff" stroke-width="1"/>
    <path id="Path_99" data-name="Path 99" d="M66-263.641v1.359H83.522V-265H66Z" transform="translate(-56.031 -209.507)" fill="#4d87b6" stroke="#fff" stroke-width="1"/>
    <path id="Path_100" data-name="Path 100" d="M33-230.641v1.359H55.507V-232H33Z" transform="translate(-28.015 -237.523)" fill="#4d87b6" stroke="#fff" stroke-width="1"/>
    <path id="Path_101" data-name="Path 101" d="M39.616-181.809a9.525,9.525,0,0,0-3.791,2.024A8.511,8.511,0,0,0,33-173.32a8,8,0,0,0,2.553,6.238,8.079,8.079,0,0,0,6.254,2.553,8.182,8.182,0,0,0,6.087-2.492A8.665,8.665,0,0,0,49.585-177.2,8.822,8.822,0,0,0,39.616-181.809Zm3.127,2.492a6.344,6.344,0,0,1,4.486,3.384,6.546,6.546,0,0,1,.423,1.088c0,.151-1.3.2-5.967.2H35.734l.211-.589A6.145,6.145,0,0,1,40.22-179.2,4.153,4.153,0,0,1,42.743-179.316ZM40.4-169.6v2.341l-.453-.136a6.688,6.688,0,0,1-4.139-4.2l-.106-.332h4.7Zm7.25-2.085a6.735,6.735,0,0,1-1.269,2.432,6.855,6.855,0,0,1-2.628,1.767l-.634.227v-4.667h2.266C47.335-171.93,47.652-171.9,47.652-171.688Z" transform="translate(-28.015 -279.92)" fill="#4d87b6" stroke="#fff" stroke-width="1"/>
    <path id="Path_102" data-name="Path 102" d="M171.676-181.672a9.292,9.292,0,0,0-4.184,2.417A8.361,8.361,0,0,0,165-173.092a8.16,8.16,0,0,0,2.568,6.178,8.121,8.121,0,0,0,6.193,2.553,8.125,8.125,0,0,0,6.193-2.568,8.234,8.234,0,0,0,2.568-6.193,8.819,8.819,0,0,0-6.661-8.534A11.141,11.141,0,0,0,171.676-181.672Zm.725,5.347v2.674l-1.933,1.933-1.949,1.949-.332-.77a6.063,6.063,0,0,1,.076-5.287,6.951,6.951,0,0,1,2.81-2.794C172.462-179.285,172.4-179.406,172.4-176.325Zm4.048-2.281a6.987,6.987,0,0,1,2.81,2.81c.634,1.375.725,1.314-1.873,1.314H175.12v-2.266C175.12-179.346,175.06-179.27,176.45-178.606Zm3.081,7.568a6.332,6.332,0,0,1-5.317,4.063,6.129,6.129,0,0,1-3.066-.589l-.74-.317,1.949-1.949,1.933-1.933H179.8Z" transform="translate(-140.077 -280.087)" fill="#4d87b6" stroke="#fff" stroke-width="1"/>
    <path id="Path_103" data-name="Path 103" d="M277.769-396.4a16.726,16.726,0,0,0-6.661,2.613,20.471,20.471,0,0,0-4.2,4.109c-.332.5-.695.921-.8.921-.393,0-1.767,1.571-1.964,2.205a50.06,50.06,0,0,0,.045,9.139,16.117,16.117,0,0,0,11.435,12.734,16.271,16.271,0,0,0,20.6-12.567,33.275,33.275,0,0,0,.211-5.06c0-3.519-.03-4.018-.287-4.577a4.359,4.359,0,0,0-1.692-1.8,4.318,4.318,0,0,1-.967-1.057,16.653,16.653,0,0,0-9.954-6.51A20.009,20.009,0,0,0,277.769-396.4Zm5.03,2.719a13.528,13.528,0,0,1,6.6,3.444l1.224,1.163H269.778l1.1-1.042a13.817,13.817,0,0,1,6.6-3.52A16.54,16.54,0,0,1,282.8-393.682Zm10.634,7.628.438.438v3.248c0,3.671-.181,4.668-1.1,5.876a5.581,5.581,0,0,1-4.637,2.3c-2.024-.015-3.429-.876-4.834-2.961-1-1.48-1.692-1.933-2.976-1.933-1.465,0-2.356.574-3.308,2.145a5.539,5.539,0,0,1-2.628,2.3,4.008,4.008,0,0,1-2.19.468,3.965,3.965,0,0,1-2.205-.483,5.268,5.268,0,0,1-2.825-2.734l-.559-1.148-.045-3.52-.06-3.519.453-.453.453-.453h25.588Zm-12.265,10.6a8.7,8.7,0,0,0,5,3.686,10.359,10.359,0,0,0,4.033.03l.77-.211-.574.695a14.041,14.041,0,0,1-5.921,3.882,12.937,12.937,0,0,1-5,.619,12.961,12.961,0,0,1-9.018-4.109c-.906-.952-.952-1.012-.529-.906a12.116,12.116,0,0,0,4.3,0,8.437,8.437,0,0,0,4.97-3.61,4.6,4.6,0,0,1,.8-1.042C280.322-376.538,280.775-376.161,281.168-375.451Z" transform="translate(-224.085 -97.833)" fill="#4d87b6" stroke="#fff" stroke-width="1"/>
    <path id="Path_104" data-name="Path 104" d="M299.252-313.674a4.572,4.572,0,0,0-2.16,2.3,3.679,3.679,0,0,0,.952,3.9,3.639,3.639,0,0,0,5.166.166,3.306,3.306,0,0,0,1.254-2.81,3.662,3.662,0,0,0-2.19-3.489A4.893,4.893,0,0,0,299.252-313.674Zm2.205,2.779c.559.559.559.982-.015,1.556-.378.362-.544.438-.876.347a1.132,1.132,0,0,1-.574-1.994C300.536-311.454,300.913-311.423,301.457-310.895Z" transform="translate(-252.048 -168.008)" fill="#4d87b6" stroke="#fff" stroke-width="1"/>
    <path id="Path_105" data-name="Path 105" d="M398.537-313.682a3.86,3.86,0,0,0-2.069,5.166,3.675,3.675,0,0,0,3.852,2.13,3.534,3.534,0,0,0,3.338-3.746,3.656,3.656,0,0,0-2.341-3.55A5.107,5.107,0,0,0,398.537-313.682Zm2.115,2.794c.559.559.559.982-.015,1.556-.378.362-.544.438-.876.347a1.132,1.132,0,0,1-.574-1.994C399.731-311.447,400.108-311.417,400.652-310.888Z" transform="translate(-336.289 -168.015)" fill="#4d87b6" stroke="#fff" stroke-width="1"/>
  </g>
</svg>
