<svg xmlns="http://www.w3.org/2000/svg" width="64.472" height="58.272" viewBox="0 0 64.472 58.272">
  <g id="house-bl" transform="translate(-0.356 483.934)">
    <path id="Path_52" data-name="Path 52" d="M31.835-483.725C31.293-483.342.891-457.077.664-456.8A1.379,1.379,0,0,0,1.7-454.547a1.552,1.552,0,0,0,.757-.217c.177-.115,6.973-5.956,15.106-12.973s14.867-12.794,14.968-12.832a11.478,11.478,0,0,1,2.295,1.764c6.8,5.9,27.64,23.849,27.9,24.041a1.353,1.353,0,0,0,1.942-1.751c-.151-.281-2.434-2.339-6.191-5.585l-5.964-5.151v-6.94c0-7.566,0-7.579-.706-8.052-.328-.2-.681-.23-4.111-.23H43.94l-.4.422-.416.409-.038,3.067c-.025,1.687-.063,3.067-.1,3.067s-2.181-1.84-4.766-4.077-4.829-4.141-4.968-4.218A1.57,1.57,0,0,0,31.835-483.725Zm17.906,9.049c0,2.71-.025,4.921-.063,4.921s-.92-.729-1.954-1.623l-1.891-1.61V-479.6H49.74Z" transform="translate(0 0)" fill="#4d87b6"/>
    <path id="Path_53" data-name="Path 53" d="M74.446-420.741c-.54.307-24.988,21.6-25.2,21.957a1.351,1.351,0,0,0,1.445,2.019,5.2,5.2,0,0,0,1.32-.895,6.1,6.1,0,0,1,.968-.767c.05,0,.088,6.045.088,13.433v13.433l.427.435.427.435H96.2l.427-.435.427-.435v-13.433c0-7.387.038-13.433.1-13.433a6.291,6.291,0,0,1,.9.716c1.031.92,1.508,1.137,2.087.946a1.393,1.393,0,0,0,.7-2.058c-.226-.358-24.472-21.472-25.1-21.868A1.213,1.213,0,0,0,74.446-420.741ZM84.752-409.29l9.527,8.244v13.765l.013,13.778H83.357V-390.63l-.365-.409-.365-.422-7.353-.038c-4.676-.013-7.466.013-7.68.1a1.427,1.427,0,0,0-.578.537c-.239.409-.251.652-.251,8.883v8.474H55.831l.025-13.765.038-13.778,9.553-8.269c5.254-4.55,9.6-8.269,9.666-8.244S79.511-413.814,84.752-409.29Zm-4.16,28.182v7.6H69.531v-15.209H80.592Z" transform="translate(-42.47 -54.97)" fill="#4d87b6"/>
  </g>
</svg>
