<svg id="inventory-4" xmlns="http://www.w3.org/2000/svg" width="55.962" height="55.962" viewBox="0 0 55.962 55.962">
  <path id="Path_185" data-name="Path 185" d="M.273-511.727,0-511.465v8.066c.011,6.164.044,8.11.142,8.241a1.115,1.115,0,0,0,1.574.164l.306-.262.055-2.8.055-2.8,2.656,2.645,2.645,2.656-2.678,2.678-2.678,2.678v-1.235c0-1.366-.142-1.814-.612-1.989a.992.992,0,0,0-1.126.175L0-492.96v36.386l.273.262.262.273H55.426l.262-.273.273-.262v-54.891l-.273-.262L55.426-512H.536Zm6.066,1.836c0,.011-.962.984-2.131,2.153l-2.131,2.131v-4.317H4.208C5.378-509.923,6.339-509.912,6.339-509.891Zm15.193,0c0,.011-1.148,1.17-2.547,2.569l-2.536,2.536-2.569-2.569-2.569-2.569h5.115C19.237-509.923,21.532-509.912,21.532-509.891Zm15.3,0c0,.011-1.148,1.17-2.547,2.569l-2.536,2.536-2.569-2.569-2.569-2.569H31.73C34.539-509.923,36.834-509.912,36.834-509.891Zm15.3,0c0,.011-1.148,1.17-2.547,2.569l-2.536,2.536-2.569-2.569-2.569-2.569h5.115C49.841-509.923,52.136-509.912,52.136-509.891Zm-18.078,9.968a.954.954,0,0,0,1.027-1.049c0-.393-.077-.514-.9-1.366l-.9-.929,3.017-3.017,3.028-3.028,2.383,2.317c1.312,1.268,4.438,4.361,6.952,6.875l4.558,4.569-3.06,3.06-3.06,3.06-5.1-5.1a65.2,65.2,0,0,0-5.389-5.137,1.052,1.052,0,0,0-1.312,1.038c0,.415.077.514,1.312,1.76l1.312,1.333-3.06,3.049-3.06,3.06L24.9-496.348l-6.919-6.908,3.06-3.06,3.06-3.06,4.722,4.722,4.733,4.733Zm-18.264-2.459L22.68-495.5l-3.039,3.028-3.028,3.039-6.908-6.908-6.919-6.919,3.006-3.006c1.65-1.65,3.028-3.006,3.06-3.006S12.012-506.163,15.794-502.382Zm38.091-.853v5.279L51.24-500.6l-2.656-2.656,2.623-2.623c1.443-1.443,2.634-2.623,2.645-2.623S53.885-506.131,53.885-503.234ZM12.056-490.927l3.028,3.028-6.5,6.5-6.5,6.5v-12.242l3.41-3.41c1.88-1.88,3.443-3.421,3.476-3.421S10.384-492.6,12.056-490.927Zm11.313,9.935-6.919,6.919L13.422-477.1l-3.039-3.039,6.908-6.908,6.919-6.919,3.028,3.028,3.039,3.039Zm17.182-1.88-5.028,5.039v.5a.793.793,0,0,0,.339.787,1.1,1.1,0,0,0,.721.284c.35,0,.514-.12,1.585-1.169l1.191-1.169,6.908,6.908,6.908,6.908-3.039,3.028-3.028,3.039L40.2-465.624l-6.919-6.919,1.06-1.06a9.56,9.56,0,0,0,1.17-1.355,1.058,1.058,0,0,0-1.476-1.268,10.872,10.872,0,0,0-1.3,1.159l-.984.995L28.724-477.1l-3.039-3.039,6.908-6.908,6.919-6.919,3.028,3.028,3.039,3.039Zm9.892,5.41L47-474.018l-3.06-3.06-3.06-3.06,6.471-6.471,6.482-6.482L53.863-487l.022,6.1Zm-34.648,5.793,6.886,6.886-3.06,3.06-3.06,3.06-4.569-4.558c-2.514-2.514-5.607-5.64-6.875-6.951L2.8-472.554,5.8-475.559c1.64-1.65,3.017-2.995,3.049-2.995S12.012-475.461,15.794-471.668Zm15.3,0,6.886,6.886-3.06,3.06-3.06,3.06-6.908-6.908-6.919-6.919,3.028-3.028c1.672-1.672,3.06-3.039,3.093-3.039S27.314-475.461,31.1-471.668Zm22.789-.8v5.334l-2.678-2.678-2.678-2.678,2.645-2.645c1.465-1.465,2.667-2.656,2.678-2.656S53.885-475.4,53.885-472.466ZM4.722-462.137l-2.645,2.656v-10.6l2.645,2.656,2.656,2.645Zm6.755,1.454,2.569,2.569H3.771l2.569-2.569,2.569-2.569Zm15.3,0,2.569,2.569H19.073l2.569-2.569,2.569-2.569Zm15.3,0,2.569,2.569H34.375l2.569-2.569,2.569-2.569Zm11.8.437v2.131H49.568l2.131-2.131c1.17-1.17,2.142-2.131,2.153-2.131S53.885-461.416,53.885-460.246Z" transform="translate(0 512)" fill="#fff"/>
</svg>
