<svg id="inventory-7" xmlns="http://www.w3.org/2000/svg" width="56.313" height="56.327" viewBox="0 0 56.313 56.327">
  <path id="Path_195" data-name="Path 195" d="M265.366-511.824a2.337,2.337,0,0,0-1.056,1.056c-.209.407-.209.715-.187,8.48l.033,8.073.308.44a2.779,2.779,0,0,0,.77.7l.462.264h24.087l.517-.308a2.374,2.374,0,0,0,.8-.781l.275-.473v-8c0-6.555-.022-8.051-.154-8.348a2.669,2.669,0,0,0-1.2-1.166c-.209-.088-4.113-.121-12.318-.121C267.038-512,265.663-511.978,265.366-511.824Zm11.493,9.393v7.919h-5.312c-5.026,0-5.334-.011-5.51-.2s-.176-.847-.154-7.787l.033-7.567.275-.143a35.43,35.43,0,0,1,5.477-.143h5.191Zm12.615-7.666c.187.187.2.649.2,7.732,0,7.336-.011,7.545-.209,7.7-.187.132-1.111.154-5.532.154H278.62v-15.849l5.334.033C288.892-510.3,289.3-510.284,289.475-510.1Z" transform="translate(-235.065 512)" fill="#fff"/>
  <path id="Path_196" data-name="Path 196" d="M350.22-448.873c-.209.209-.22.363-.22,2.475,0,2.255,0,2.266.275,2.53a.853.853,0,0,0,1.166.066c.264-.209.264-.253.3-2.453.033-2.145.022-2.255-.2-2.541A.948.948,0,0,0,350.22-448.873Z" transform="translate(-311.505 456.022)" fill="#fff"/>
  <path id="Path_197" data-name="Path 197" d="M410.231-448.816c-.22.275-.231.44-.231,2.376a7,7,0,0,0,.165,2.387.812.812,0,0,0,1.309.22l.286-.22v-2.31c0-2.156-.011-2.31-.22-2.519A.943.943,0,0,0,410.231-448.816Z" transform="translate(-364.906 456.031)" fill="#fff"/>
  <path id="Path_198" data-name="Path 198" d="M5.213-489.577a3.933,3.933,0,0,0-2.255,2.486l-.132.473H1.991c-.957,0-1.408.209-1.771.792-.187.308-.22.561-.22,1.628,0,1.43.132,1.793.792,2.2.352.22.583.22,12.659.22,13.616,0,12.769.044,13.308-.7.209-.3.242-.506.275-1.606.033-1.078,0-1.32-.176-1.65-.352-.649-.682-.814-1.749-.88l-.946-.055-.132-.44a3.822,3.822,0,0,0-1.947-2.332l-.583-.308-7.864-.022C6.016-489.8,5.752-489.8,5.213-489.577Zm16.256,1.848a2.612,2.612,0,0,1,.858,1.034c0,.044-2.739.077-6.082.077-6.621,0-6.456-.011-6.61.616a.92.92,0,0,0,.44,1.023c.2.088,2.431.121,7.743.121H25.3v1.32H1.65v-1.32h2.8a18.49,18.49,0,0,0,3.069-.121.9.9,0,0,0,.143-1.474,3.529,3.529,0,0,0-1.584-.165c-.946,0-1.353-.033-1.353-.132,0-.231.561-.858.968-1.078s.638-.209,7.9-.187l7.479.022Z" transform="translate(0 492.228)" fill="#fff"/>
  <path id="Path_199" data-name="Path 199" d="M5.422-324.7c-.407.165-.495.495-.451,1.639.033.979.066,1.111.341,1.474a1.794,1.794,0,0,0,.847.594l.55.2v1.265H3.937c-2.585,0-2.8.022-3.146.22-.693.418-.792.748-.792,2.519,0,1.474.022,1.617.242,1.958a2.111,2.111,0,0,0,1.716.8H2.53l.022,11.57.033,11.581.242.462a2.727,2.727,0,0,0,1.452,1.232c.627.187,47.151.176,47.789-.011a2.76,2.76,0,0,0,1.584-1.65c.1-.374.132-3.531.132-11.845v-11.339h.572a2.044,2.044,0,0,0,1.7-.8c.231-.341.253-.484.253-1.958,0-1.771-.1-2.1-.792-2.519-.341-.209-.561-.22-3.63-.22H48.624l-.22.286a.845.845,0,0,0,.352,1.364,24.226,24.226,0,0,0,3.124.11h2.794l-.033.957-.033.968H1.7l-.033-.968-.033-.957H23.757c23.625,0,22.613.022,22.811-.495a.944.944,0,0,0-.187-1.023l-.253-.242H19.357v-.649c0-.638.011-.66.341-.726a2.243,2.243,0,0,0,1.309-1.243,6.585,6.585,0,0,0,.11-1.21c0-.759-.022-.836-.33-1.144-.286-.275-.4-.319-.693-.264-.561.11-.671.308-.737,1.254l-.055.847-6.291.033-6.3.022v-.759c0-.638-.044-.814-.242-1.045A.931.931,0,0,0,5.422-324.7ZM17.6-320.192v.66H8.469v-1.32H17.6Zm9.679,17.763v11.6H4.828l-.264-.275-.275-.264v-22.668H27.276Zm24.747-6.214v5.389H29.036v-10.779H52.023Zm0,12.208v5.07l-.275.264-.264.275H29.036v-10.669H52.023Z" transform="translate(0 345.379)" fill="#fff"/>
  <path id="Path_200" data-name="Path 200" d="M57.426-216.5a2.661,2.661,0,0,0-1.331.8A2.6,2.6,0,0,0,55.447-213,2.751,2.751,0,0,0,60-211.879a2.778,2.778,0,0,0-.682-4.377A3.383,3.383,0,0,0,57.426-216.5Zm1.045,1.826a.93.93,0,0,1,.264,1.529.926.926,0,0,1-1.32.022.966.966,0,0,1,.341-1.617C58.064-214.86,58.119-214.86,58.471-214.673Z" transform="translate(-49.232 249.043)" fill="#fff"/>
  <path id="Path_201" data-name="Path 201" d="M122.228-216.547a3.483,3.483,0,0,0-1.573.99,2.832,2.832,0,0,0-.286,2.816,2.563,2.563,0,0,0,2.486,1.595,2.563,2.563,0,0,0,2.486-1.595,2.809,2.809,0,0,0-.33-2.86A3.109,3.109,0,0,0,122.228-216.547Zm.946,1.782a1.117,1.117,0,0,1,.671.979,1.18,1.18,0,0,1-.99.88,1.183,1.183,0,0,1-.99-.869c0-.517.286-.847.946-1.111C122.822-214.886,122.976-214.831,123.174-214.765Z" transform="translate(-106.907 249.092)" fill="#fff"/>
  <path id="Path_202" data-name="Path 202" d="M55.985-155.8a1.925,1.925,0,0,0-.6.495c-.231.308-.231.451-.264,5.994-.033,6.412-.033,6.39.726,6.863l.407.253H73.736l.407-.253c.759-.473.759-.451.726-6.863-.033-5.543-.033-5.686-.264-5.994a1.925,1.925,0,0,0-.6-.495c-.341-.187-1-.2-9.008-.2S56.326-155.989,55.985-155.8Zm17.147,6.731v5.169H56.854V-154.24H73.131Z" transform="translate(-49.045 195.155)" fill="#fff"/>
  <path id="Path_203" data-name="Path 203" d="M340.48-216.825a.889.889,0,0,0-.22,1.408c.253.231.341.242,2.9.242h2.662l.22-.286a.864.864,0,0,0-.286-1.353A32.527,32.527,0,0,0,340.48-216.825Z" transform="translate(-302.612 249.38)" fill="#fff"/>
  <path id="Path_204" data-name="Path 204" d="M340.328-97.747a.93.93,0,0,0-.033,1.188c.209.264.231.264,2.717.3,2.684.033,3-.011,3.223-.484a.8.8,0,0,0-.11-.968L345.9-98h-2.673C340.581-98,340.559-98,340.328-97.747Z" transform="translate(-302.691 143.534)" fill="#fff"/>
</svg>
