<svg id="inventory-5" xmlns="http://www.w3.org/2000/svg" width="60.064" height="60.045" viewBox="0 0 60.064 60.045">
  <path id="Path_186" data-name="Path 186" d="M10.1-511.847a7.2,7.2,0,0,0-4.562,3.835c-.7,1.5-.7,1.489-.7,11.669v9.288l-1.032.047a3.753,3.753,0,0,0-2.9,1.3,3.919,3.919,0,0,0-1,3.1c0,1.044.035,1.3.246,1.677a2.3,2.3,0,0,0,1.912,1.02l.774.07v4.82c0,5.348.082,6.344.7,8.162a11.672,11.672,0,0,0,1.5,3.108A16.29,16.29,0,0,0,8.2-460.447l.622.422v1.923l-.856.07a3.1,3.1,0,0,0-3.131,3.319v.61l-2.158.047c-2.1.035-2.17.047-2.463.317a1.107,1.107,0,0,0-.035,1.513l.27.258h59l.246-.27a1.116,1.116,0,0,0-.047-1.5c-.293-.27-.364-.281-2.463-.317l-2.158-.047v-.61a3.1,3.1,0,0,0-3.131-3.319l-.856-.07v-1.923l.622-.422a16.291,16.291,0,0,0,3.155-3.307,13.721,13.721,0,0,0,2.2-8.279v-1.829l.821-.059a2.068,2.068,0,0,0,1.923-1.091,6.786,6.786,0,0,0-.141-3.706,3.914,3.914,0,0,0-1.876-1.888l-.786-.387-3.717-.035-3.729-.035-.387-.61a7.889,7.889,0,0,0-4.62-3.178,139.771,139.771,0,0,0-14.706-.023,7.872,7.872,0,0,0-2.979,1.4l-.7.528-.352-.281a22.6,22.6,0,0,0-3.835-2.369c-2.568-1.126-4.327-1.431-8.221-1.431H10.933l.023-9.135.035-9.135.281-.3.281-.3h6.086l.833.809.833.809-.387.586a7.22,7.22,0,0,0-1.02,4.058,2.147,2.147,0,0,0,1.208,1.548c.3.129,1.513.164,5.8.164,6.18,0,6.11,0,6.731-.938a1.725,1.725,0,0,0,.3-1.337,6.848,6.848,0,0,0-1.841-4.5,6.815,6.815,0,0,0-4.128-2.252l-.786-.129L23.247-509c-2.064-2.029-2.686-2.451-4.187-2.838A58.61,58.61,0,0,0,10.1-511.847Zm8.772,2.193a5.979,5.979,0,0,1,2.521,1.841l1.138,1.126-.844.434-.844.422-.891-.856c-1.407-1.349-1.325-1.337-5.265-1.337a29.788,29.788,0,0,0-3.811.129,2.617,2.617,0,0,0-1.067.739c-1.032,1.02-.985.5-.985,11v9.124H6.946v-9.182c0-7.763.023-9.288.176-9.851A4.8,4.8,0,0,1,9.1-509.021c1.22-.833,1.442-.868,5.488-.88C17.993-509.9,18.239-509.889,18.873-509.654Zm6.978,4.808a5.039,5.039,0,0,1,3.929,4.14l.07.657h-9.9l.082-.563a5.1,5.1,0,0,1,4.82-4.351A5.007,5.007,0,0,1,25.85-504.846Zm-7.306,20.323a14.354,14.354,0,0,1,5.606,2.8c.5.4,1.313.962,1.806,1.267a11.821,11.821,0,0,0,5.125,1.513,1.758,1.758,0,0,1,1.548.727,2.337,2.337,0,0,1,.235,1.313v.927l-1.431-.07a14.264,14.264,0,0,1-8.69-3.178,12.366,12.366,0,0,0-4.445-2.439c-.844-.258-.962-.258-8.561-.3L2.021-482v-.762a1.874,1.874,0,0,1,1.114-1.982c.317-.164,1.114-.176,7.271-.141l6.919.035Zm14.166,1.759a5.7,5.7,0,0,1,4.022,4.14c.07.317.129,3.354.141,7.107l.035,6.532h-.446a2,2,0,0,1-1.325-.481c-.059-.094-.129-3.072-.164-6.614l-.059-6.45-.317-.6c-.645-1.22-1.618-1.771-3.377-1.935a9.973,9.973,0,0,1-2.861-.6c-.223-.117-.223-.129,0-.293A5.454,5.454,0,0,1,32.711-482.764Zm11.469.012a5.574,5.574,0,0,1,4.046,4.632c.152,1.231.152,11.786-.012,12.349-.211.751-.387.786-4.538.786a30.181,30.181,0,0,1-4-.129c-.727-.258-.715-.152-.715-7.107,0-7-.012-7.13-.774-8.655a8.047,8.047,0,0,0-.938-1.442l-.539-.61H40.1A20.5,20.5,0,0,1,44.18-482.752Zm-26.785,3.1c1.595.41,2.334.821,4.562,2.533a16.577,16.577,0,0,0,9.335,3.19l1.571.07v4.128c0,4.562.047,4.914.715,5.723a3.6,3.6,0,0,0,.973.762l.6.317H41.6c6.3,0,6.462-.012,6.978-.246a3.2,3.2,0,0,0,1.571-1.571c.235-.5.246-.762.281-4.843l.035-4.3h4.48l-.07,2.252a10.919,10.919,0,0,1-1.02,5.219,11.131,11.131,0,0,1-7.165,6.039l-.868.27-15.48.035c-13.052.023-15.609,0-16.359-.141a11.147,11.147,0,0,1-7.974-6.2c-.938-1.994-.973-2.275-1.02-8.209l-.047-5.242h5.793C16.035-479.879,16.6-479.855,17.395-479.656Zm39.345.938a1.83,1.83,0,0,1,1.091,1.853l.035.856H50.454l-.012-.856a13.211,13.211,0,0,0-.094-1.466l-.082-.61h2.99C55.93-478.941,56.306-478.917,56.74-478.718ZM13.713-458.125c.551.094,1.126.176,1.267.176h.27l-.34.61a9.145,9.145,0,0,0-.926,2.861v.4H6.923l.047-.657c.094-1.044.258-1.149,2.041-1.22,1.9-.07,1.923-.094,1.923-1.759v-1.149l.88.281A18,18,0,0,0,13.713-458.125Zm35.486,1.9c.164.176.481.223,1.665.27,1.771.07,1.935.176,2.029,1.231l.059.645-3.506-.023-3.506-.035-.082-.551a8.987,8.987,0,0,0-.9-2.65l-.34-.61h.27A17.113,17.113,0,0,0,48-458.571l.868-.27.059,1.208C48.976-456.694,49.035-456.389,49.2-456.225Zm-6.884-1.114a6.786,6.786,0,0,1,1.407,2.756l.082.5H16.058l.082-.5a6.786,6.786,0,0,1,1.407-2.756l.563-.61H41.752Z" transform="translate(0.102 512.013)" fill="#fff"/>
  <path id="Path_187" data-name="Path 187" d="M59.433-170.648c-.352.364-.352.364-.27,1.3a8.911,8.911,0,0,0,2.932,6.063,8.743,8.743,0,0,0,5.394,2.334c.95.059,1.091.035,1.36-.188a1.042,1.042,0,0,0,.281-1.278c-.188-.434-.551-.61-1.278-.61a7,7,0,0,1-2.768-.786,7.276,7.276,0,0,1-3.084-3.1,7.2,7.2,0,0,1-.739-2.744c-.106-.985-.387-1.349-1.044-1.349A1.015,1.015,0,0,0,59.433-170.648Z" transform="translate(-52.173 210.991)" fill="#fff"/>
  <path id="Path_188" data-name="Path 188" d="M155.416-375.686a35.351,35.351,0,0,0-2.416,5.9,1.129,1.129,0,0,0,.95.95c.727.117.926-.176,2.1-3.119a21.6,21.6,0,0,0,1.055-2.99A1.02,1.02,0,0,0,155.416-375.686Z" transform="translate(-135.045 391.895)" fill="#fff"/>
  <path id="Path_189" data-name="Path 189" d="M204.511-375.6l-.34.293-.035,2.826c-.035,3.119.012,3.366.668,3.647a1.025,1.025,0,0,0,1.184-.258c.223-.246.235-.4.235-3.213,0-3.354-.012-3.413-.891-3.53A.847.847,0,0,0,204.511-375.6Z" transform="translate(-180.177 391.82)" fill="#fff"/>
  <path id="Path_190" data-name="Path 190" d="M239.115-375.849a1.265,1.265,0,0,0-.446,1.231c.059.188.563,1.489,1.126,2.9.88,2.193,1.067,2.58,1.36,2.721a.9.9,0,0,0,1.044,0,.892.892,0,0,0,.457-.61c.117-.41.047-.622-.95-3.131a22.221,22.221,0,0,0-1.337-2.967A1.137,1.137,0,0,0,239.115-375.849Z" transform="translate(-210.641 391.928)" fill="#fff"/>
</svg>
