<svg xmlns="http://www.w3.org/2000/svg" xmlns:xlink="http://www.w3.org/1999/xlink" width="48.65" height="48.65" viewBox="0 0 48.65 48.65">
  <defs>
    <clipPath id="clip-path">
      <path id="Path_285" data-name="Path 285" d="M139.21,139.21h48.651v48.651H139.21Z" transform="translate(-139.21 -139.21)" fill="#fff"/>
    </clipPath>
  </defs>
  <g id="inventory-11" clip-path="url(#clip-path)">
    <path id="Path_284" data-name="Path 284" d="M187.052,139.209h-3.243a.811.811,0,0,0-.811.811h-6.487a.811.811,0,0,0-.811-.811h-3.244a.811.811,0,0,0-.811.811H155.429a.81.81,0,0,0-.811-.811h-3.244a.81.81,0,0,0-.811.811h-6.487a.811.811,0,0,0-.811-.811h-3.243a.811.811,0,0,0-.811.811v7.3a2.428,2.428,0,0,0,1.622,2.283v3.393a.811.811,0,1,0,1.622,0V149.6a2.43,2.43,0,0,0,1.472-1.472h6.786a2.429,2.429,0,0,0,1.472,1.472v3.393a.811.811,0,1,0,1.622,0V149.6a2.43,2.43,0,0,0,1.472-1.472h.149a2.435,2.435,0,0,1,2.433,2.433v.811a1.623,1.623,0,0,0,1.622,1.622v3.123a.813.813,0,0,1-.238.573l-7.494,7.494a4.031,4.031,0,0,0-1.187,2.867v2.97a1.624,1.624,0,0,0-1.622,1.622v1.622a1.624,1.624,0,0,0,1.622,1.622V183a1.624,1.624,0,0,0-1.622,1.622v1.622a1.624,1.624,0,0,0,1.622,1.622h8.919a1.624,1.624,0,0,0,1.622-1.622v-1.622A1.624,1.624,0,0,0,159.483,183v-8.108a1.624,1.624,0,0,0,1.622-1.622v-1.622a1.624,1.624,0,0,0-1.622-1.622v-1.76a.808.808,0,0,1,.238-.574L166.4,161a4.03,4.03,0,0,0,1.187-2.866v-5.144a1.624,1.624,0,0,0,1.622-1.622v-.811a2.435,2.435,0,0,1,2.432-2.433h.15a2.428,2.428,0,0,0,1.472,1.472v3.393a.811.811,0,1,0,1.622,0V149.6a2.43,2.43,0,0,0,1.472-1.472h6.785a2.43,2.43,0,0,0,1.472,1.472v3.393a.811.811,0,1,0,1.622,0V149.6a2.429,2.429,0,0,0,1.622-2.283v-7.3a.811.811,0,0,0-.811-.811ZM183,141.642v4.865h-6.487v-4.865Zm-32.434,0v4.865h-6.487v-4.865Zm-8.919,6.487a.812.812,0,0,1-.811-.811v-6.487h1.622v6.487A.811.811,0,0,1,141.645,148.129Zm11.352,0a.812.812,0,0,1-.811-.811v-6.487h1.622v6.487A.812.812,0,0,1,153,148.129Zm6.488,38.11h-8.92v-1.622h8.919ZM157.862,183h-5.676v-8.108h5.676Zm1.622-9.73h-8.92v-1.622h8.919Zm6.486-15.128a2.451,2.451,0,0,1-.713,1.72l-6.683,6.684a2.417,2.417,0,0,0-.713,1.72v1.76h-5.676v-2.97a2.419,2.419,0,0,1,.713-1.72l7.494-7.494a2.418,2.418,0,0,0,.713-1.72v-3.123h4.865Zm1.622-7.576v.811h-8.108v-.811a4.059,4.059,0,0,0-4.054-4.054v-4.865h16.217v4.865A4.059,4.059,0,0,0,167.592,150.561Zm6.487-2.433a.812.812,0,0,1-.811-.811v-6.487h1.622v6.487a.812.812,0,0,1-.811.811Zm12.162-.811a.811.811,0,1,1-1.622,0v-6.487h1.622Z" transform="translate(-139.212 -139.209)" fill="#fff"/>
  </g>
</svg>
