<svg id="inventory-8" xmlns="http://www.w3.org/2000/svg" width="59.367" height="59.363" viewBox="0 0 59.367 59.363">
  <path id="Path_205" data-name="Path 205" d="M5.72-510.435a17.911,17.911,0,0,0-2.4,1.809,23.718,23.718,0,0,0-.151,4.3v4.035H1.848c-1.983,0-1.82-.464-1.786,5.287.035,4.3.046,4.7.243,4.881.162.174.452.22,1.53.243l1.333.046v18.76H1.848c-1.415,0-1.623.07-1.751.615-.035.139-.046,2.307-.035,4.812.035,4.36.046,4.568.255,4.731a3.535,3.535,0,0,0,1.542.162h1.3l.035,3.9c.035,3.7.046,3.9.255,4.058.186.139,1.067.162,5,.162,4.475,0,4.788-.012,4.962-.209s.2-.649.2-4.058v-3.849h3.815l.035,3.9c.035,3.7.046,3.9.255,4.058.186.139,1.067.162,5,.162,4.475,0,4.788-.012,4.962-.209s.2-.649.2-4.058v-3.849h3.826v3.722c0,3.675.035,4.07.394,4.3.07.046,2.273.093,4.893.093,4.464,0,4.777-.012,4.951-.209s.2-.649.2-4.058v-3.849h3.826v3.722c0,3.675.035,4.07.394,4.3.07.046,2.272.093,4.893.093,4.464,0,4.777-.012,4.951-.209s.2-.649.2-4.058v-3.849h1.368a3.9,3.9,0,0,0,1.507-.139,85.321,85.321,0,0,0,0-10.041,3.9,3.9,0,0,0-1.507-.139H56.388v-18.783h1.217a5.7,5.7,0,0,0,1.507-.139l.29-.128v-4.962c0-4.788-.012-4.974-.22-5.09a6.869,6.869,0,0,0-1.507-.116H56.388v-4.151a23.842,23.842,0,0,0-.151-4.325c-.081-.093-1.159-.858-2.412-1.7a9.284,9.284,0,0,0-2.62-1.53c-.267,0-.951.394-2.655,1.554a17,17,0,0,0-2.446,1.82,23.825,23.825,0,0,0-.151,4.3v4.035H42.127v-4.151a23.843,23.843,0,0,0-.151-4.325c-.081-.093-1.159-.858-2.412-1.7a9.284,9.284,0,0,0-2.62-1.53c-.267,0-.951.394-2.655,1.554a17,17,0,0,0-2.446,1.82,23.825,23.825,0,0,0-.151,4.3v4.035H27.866v-4.151a23.841,23.841,0,0,0-.151-4.325c-.081-.093-1.159-.87-2.412-1.7-1.716-1.148-2.365-1.53-2.632-1.53a23.833,23.833,0,0,0-5.136,3.443c-.058.151-.1,2.075-.1,4.278v3.989H13.6v-4.151a23.841,23.841,0,0,0-.151-4.325c-.081-.093-1.159-.87-2.412-1.7C9.2-511.71,8.689-512,8.376-511.988S7.483-511.641,5.72-510.435Zm4.487,1.357,1.762,1.194.012,3.791v3.8H4.793l.023-3.78.035-3.791,1.739-1.194c.962-.661,1.762-1.194,1.8-1.206S9.233-509.728,10.207-509.078Zm14.261,0,1.762,1.194.012,3.791v3.8H19.054v-7.525l1.774-1.217c.962-.672,1.786-1.217,1.82-1.229S23.506-509.728,24.469-509.078Zm14.261,0,1.762,1.194.012,3.791v3.8H33.315v-7.525l1.774-1.217c.962-.672,1.786-1.217,1.82-1.229S37.767-509.728,38.73-509.078Zm14.261,0,1.774,1.194v7.594H47.576v-7.525l1.774-1.217c.962-.672,1.786-1.217,1.82-1.229S52.028-509.728,52.991-509.078Zm4.9,14.006v3.594H1.662v-7.189H57.9ZM11.981-480.463v9.391H4.793v-18.783h7.189Zm5.449,0v9.391H13.6v-18.783h3.826Zm8.812,0v9.391H19.054v-18.783h7.189Zm5.449,0v9.391H27.866v-18.783h3.826Zm8.812,0v9.391H33.315v-18.783H40.5Zm5.449,0v9.391H42.127v-18.783h3.826Zm8.812,0v9.391H47.576v-18.783h7.189Zm3.13,14.551v3.652H1.662v-7.3H57.9Zm-45.914,8.464v3.3H4.793v-6.609h7.189Zm14.261,0v3.3H19.054v-6.609h7.189Zm14.261,0v3.3H33.315v-6.609H40.5Zm14.261,0v3.3H47.576v-6.609h7.189Z" transform="translate(-0.044 512)" fill="#fff"/>
  <path id="Path_206" data-name="Path 206" d="M56.056-372.8a.809.809,0,0,0-.162.858c.128.475.58.591,2.029.545,1.055-.023,1.322-.07,1.519-.255a.787.787,0,0,0,.012-1.113c-.209-.209-.383-.232-1.716-.232C56.462-373,56.219-372.965,56.056-372.8Z" transform="translate(-49.371 389.116)" fill="#fff"/>
  <path id="Path_207" data-name="Path 207" d="M179.056-372.8a.809.809,0,0,0-.162.858c.128.475.58.591,2.029.545,1.055-.023,1.322-.07,1.519-.255a.787.787,0,0,0,.012-1.113c-.209-.209-.383-.232-1.716-.232C179.462-373,179.219-372.965,179.056-372.8Z" transform="translate(-158.11 389.116)" fill="#fff"/>
  <path id="Path_208" data-name="Path 208" d="M302.263-372.791a.94.94,0,0,0-.012,1.113c.267.278.615.325,1.936.278,1-.023,1.264-.07,1.461-.255a.787.787,0,0,0,.012-1.113c-.209-.209-.383-.232-1.716-.232C302.645-373,302.425-372.977,302.263-372.791Z" transform="translate(-267.056 389.116)" fill="#fff"/>
  <path id="Path_209" data-name="Path 209" d="M425.263-372.791a.94.94,0,0,0-.012,1.113c.267.278.615.325,1.936.278,1-.023,1.264-.07,1.461-.255a.787.787,0,0,0,.012-1.113c-.209-.209-.383-.232-1.716-.232C425.645-373,425.425-372.977,425.263-372.791Z" transform="translate(-375.795 389.116)" fill="#fff"/>
  <path id="Path_210" data-name="Path 210" d="M56.178-120.907a.924.924,0,0,0,0,1.322,9.3,9.3,0,0,0,1.67.093c1.449,0,1.542-.012,1.7-.255a.748.748,0,0,0-.046-1.02c-.209-.209-.383-.232-1.7-.232A8.808,8.808,0,0,0,56.178-120.907Z" transform="translate(-49.424 166.334)" fill="#fff"/>
  <path id="Path_211" data-name="Path 211" d="M179.178-120.907a.924.924,0,0,0,0,1.322,9.3,9.3,0,0,0,1.67.093c1.449,0,1.542-.012,1.7-.255a.748.748,0,0,0-.046-1.02c-.209-.209-.383-.232-1.7-.232A8.808,8.808,0,0,0,179.178-120.907Z" transform="translate(-158.163 166.334)" fill="#fff"/>
  <path id="Path_212" data-name="Path 212" d="M302.263-120.791a.94.94,0,0,0-.012,1.113c.139.151.475.186,1.728.186,1.473,0,1.565-.012,1.728-.255a1.019,1.019,0,0,0,.186-.5,1.019,1.019,0,0,0-.186-.5c-.162-.243-.255-.255-1.716-.255C302.645-121,302.425-120.977,302.263-120.791Z" transform="translate(-267.056 166.334)" fill="#fff"/>
  <path id="Path_213" data-name="Path 213" d="M425.263-120.791a.94.94,0,0,0-.012,1.113c.139.151.475.186,1.728.186,1.472,0,1.565-.012,1.728-.255a1.019,1.019,0,0,0,.186-.5,1.019,1.019,0,0,0-.186-.5c-.162-.243-.255-.255-1.716-.255C425.645-121,425.425-120.977,425.263-120.791Z" transform="translate(-375.795 166.334)" fill="#fff"/>
</svg>
