<svg id="inventory-3" xmlns="http://www.w3.org/2000/svg" width="68.193" height="35.696" viewBox="0 0 68.193 35.696">
  <path id="Path_184" data-name="Path 184" d="M18.181-388.734a1.215,1.215,0,0,0-.253.733,1.215,1.215,0,0,0,.253.733c.226.24.4.266,2.224.266,1.585,0,1.971.04,1.971.186,0,.2-1.558,7.5-1.665,7.778-.053.146-.16.12-.506-.107a10.768,10.768,0,0,0-5.288-1.6,11.013,11.013,0,0,0-3.237.546.765.765,0,0,1-.426.107A30.028,30.028,0,0,1,13.532-385a4.707,4.707,0,0,1,1.332-1.119c.919-.546,1.119-.786,1.119-1.345a1.173,1.173,0,0,0-1.012-1,5.876,5.876,0,0,0-2.664,1.545,6.838,6.838,0,0,0-1.159,1.6c-.253.506-2.864,6.5-5.807,13.319L0-359.591v4.715l.453.453a1.2,1.2,0,0,0,1.119.453c.6,0,.746-.067,1.572-.733a10.112,10.112,0,0,1,3.916-1.945,7.153,7.153,0,0,1,2.664-.213,9.016,9.016,0,0,1,6.287,2.717c1.279,1.172,1.838,1.132,3.343-.213a9.437,9.437,0,0,1,12.92-.013,5.244,5.244,0,0,0,1.412,1c.719.16,1.2-.053,2.238-1a9.437,9.437,0,0,1,12.919.013c1.505,1.345,2.091,1.385,3.356.2a9.509,9.509,0,0,1,3.956-2.357,3.59,3.59,0,0,0,1.132-.533,1.058,1.058,0,0,0-.706-1.718,10.726,10.726,0,0,0-5.061,2.331l-.879.733-.719-.613a12.112,12.112,0,0,0-4.036-2.224,7.988,7.988,0,0,0-3.463-.426,9.216,9.216,0,0,0-3.17.306,12.494,12.494,0,0,0-4.648,2.531l-.506.453-.506-.453a12.494,12.494,0,0,0-4.648-2.531,9.216,9.216,0,0,0-3.17-.306,7.988,7.988,0,0,0-3.463.426,12.112,12.112,0,0,0-4.036,2.224l-.706.613-.666-.573a12.156,12.156,0,0,0-5.3-2.557,15.617,15.617,0,0,0-5.408.133,15.475,15.475,0,0,0-3.53,1.638l-.6.413-.04-1.026-.04-1.026.852-.8a9.453,9.453,0,0,1,13.612.693,1.976,1.976,0,0,0,.959.653c.386.08.519-.013,1.558-.986A9.67,9.67,0,0,1,24-361.882a8.494,8.494,0,0,1,3.663,0,9.233,9.233,0,0,1,4.822,2.6c1.505,1.492,1.678,1.505,3.117.08a9.731,9.731,0,0,1,3.29-2.184,9.38,9.38,0,0,1,10.256,2.2c1.452,1.425,1.518,1.425,3,.04a9.863,9.863,0,0,1,6.193-2.9,9.65,9.65,0,0,1,7.232,2.73l.639.653-.04,1.012-.04,1.026-.6-.413a10.813,10.813,0,0,0-4.675-1.811c-.839-.067-.879-.053-1.159.293-.679.866-.2,1.518,1.412,1.918a9.505,9.505,0,0,1,3.823,1.878c.946.733,1.092.8,1.692.8a1.2,1.2,0,0,0,1.119-.453l.453-.453v-4.715L62.853-372c-5.727-13.266-5.927-13.719-6.553-14.518a8.639,8.639,0,0,0-3.45-2.144L51.8-389H35.109C18.46-389,18.42-389,18.181-388.734Zm14.851,5.647v3.929l-1.026-.519a8.315,8.315,0,0,0-4.3-1,8.53,8.53,0,0,0-3.982.8l-.706.333.08-.333c.053-.186.386-1.731.746-3.423s.693-3.237.733-3.41L24.64-387h8.391Zm10.589-3.623c.04.173.36,1.7.733,3.41s.693,3.237.746,3.423l.08.333-.706-.333a8.53,8.53,0,0,0-3.982-.8,8.236,8.236,0,0,0-4.289,1l-1.039.519V-387h8.391Zm8.591.093a4.96,4.96,0,0,1,2.384,1.518,29.293,29.293,0,0,1,2.344,5.008.785.785,0,0,1-.426-.107,11.013,11.013,0,0,0-3.237-.546,10.768,10.768,0,0,0-5.288,1.6c-.346.226-.453.253-.506.107-.107-.293-1.665-7.592-1.665-7.8,0-.16.373-.186,2.77-.133A12.123,12.123,0,0,1,52.211-386.616Zm-35,8.391a7.449,7.449,0,0,1,2.424,1.385l.533.453-.573,2.65c-.306,1.452-.626,2.864-.693,3.143l-.12.479-.852-.559a10.719,10.719,0,0,0-6.5-1.758,11.6,11.6,0,0,0-3.556.812c-.4.2-.413.2-.293-.093A51.423,51.423,0,0,1,9.71-376.4a8,8,0,0,1,3.809-2.078A9.38,9.38,0,0,1,17.208-378.225Zm12.946.053a7.978,7.978,0,0,1,2.6,1.6c.28.306.28.386.253,3.2l-.04,2.877-.733-.453a11.875,11.875,0,0,0-3.929-1.4,11.558,11.558,0,0,0-6.446,1.066c-.613.333-.693.36-.639.146.027-.133.28-1.319.559-2.624A14.514,14.514,0,0,1,22.5-376.4a7.924,7.924,0,0,1,3.809-2.078A8.888,8.888,0,0,1,30.154-378.172Zm12.786,0a7.51,7.51,0,0,1,2.624,1.652c.28.306.44.8.852,2.757.28,1.305.533,2.491.559,2.624.053.213-.027.186-.639-.146a11.558,11.558,0,0,0-6.446-1.066,11.875,11.875,0,0,0-3.929,1.4l-.733.453-.04-2.877a10.4,10.4,0,0,1,.133-3.077,8.052,8.052,0,0,1,3.769-2.024A8.888,8.888,0,0,1,42.941-378.172Zm12.786,0a7.888,7.888,0,0,1,2.637,1.652,35.379,35.379,0,0,1,2.251,4.808c.12.293.107.293-.293.093a11.6,11.6,0,0,0-3.556-.812,10.719,10.719,0,0,0-6.5,1.758l-.852.559-.12-.479c-.067-.28-.386-1.692-.693-3.143l-.573-2.65.533-.453a8.012,8.012,0,0,1,3.516-1.691A9.631,9.631,0,0,1,55.727-378.172ZM13.692-370.14a9.214,9.214,0,0,1,3.863,1.891l.719.626-.613,2.864c-.346,1.572-.653,2.97-.693,3.09-.067.2-.173.16-.773-.28a12.886,12.886,0,0,0-3.769-1.825,8.145,8.145,0,0,0-3.1-.36,10.289,10.289,0,0,0-4.755.892c-.386.186-.706.293-.706.24s.426-1.092.932-2.291c.852-2.025,1-2.251,1.665-2.877A8.217,8.217,0,0,1,13.692-370.14Zm14.744-.013a9.4,9.4,0,0,1,3.876,1.971l.733.693-.04,2.81-.04,2.81-1.159-.693a11.927,11.927,0,0,0-5.98-1.665,12.785,12.785,0,0,0-5.82,1.558,2.145,2.145,0,0,1-.626.28c-.013-.013.213-1.185.519-2.6a10.032,10.032,0,0,1,.812-2.837,10.594,10.594,0,0,1,2.85-1.878A8.4,8.4,0,0,1,28.436-370.154Zm15.61.266a9.426,9.426,0,0,1,3.383,2.025c.293.306.426.773.839,2.73.28,1.305.533,2.491.573,2.65.067.253.027.24-.573-.12a12.43,12.43,0,0,0-5.9-1.625,11.927,11.927,0,0,0-5.98,1.665l-1.159.693-.04-2.81-.04-2.81.733-.693a9.723,9.723,0,0,1,3.809-1.971A9.067,9.067,0,0,1,44.046-369.887ZM58.6-369.94a8.083,8.083,0,0,1,3.13,1.771c.666.626.812.852,1.665,2.877.506,1.2.932,2.224.932,2.291s-.32-.053-.706-.24a10.254,10.254,0,0,0-4.755-.892,8.43,8.43,0,0,0-3.1.346A13.427,13.427,0,0,0,52-361.949c-.6.44-.706.479-.773.28-.04-.12-.346-1.518-.693-3.09l-.613-2.864.719-.626a9.505,9.505,0,0,1,3.769-1.891A9.109,9.109,0,0,1,58.6-369.94Z" transform="translate(0 389)" fill="#fff"/>
</svg>
