<svg id="inventory-1" xmlns="http://www.w3.org/2000/svg" width="59.719" height="67.44" viewBox="0 0 59.719 67.44">
  <path id="Path_173" data-name="Path 173" d="M321.506-511.749a3.99,3.99,0,0,0-.422,1.752c-.382,3.148-1.185,5.071-2.871,6.757a7.583,7.583,0,0,1-5.413,2.371c-1.106.092-1.357.2-1.607.672a1.077,1.077,0,0,0,.224,1.37c.342.329.487.382,1.159.382a8.713,8.713,0,0,1,3.688.922c2.516,1.238,4.175,3.872,4.715,7.468.105.711.2,1.488.2,1.725a1.094,1.094,0,0,0,1.12,1.08c.948,0,1.185-.356,1.3-1.976.3-3.648,1.989-6.744,4.465-8.153a9.2,9.2,0,0,1,3.7-1.027c1.357-.092,1.752-.329,1.883-1.12a.8.8,0,0,0-.3-.869c-.342-.329-.514-.4-1.5-.474a7.84,7.84,0,0,1-3.372-.869c-2.74-1.3-4.5-4.373-4.913-8.561-.092-1.041-.158-1.278-.408-1.475A1.467,1.467,0,0,0,321.506-511.749Zm1.3,7.626a10.609,10.609,0,0,0,3.635,4.017l.672.448-.764.5a14.649,14.649,0,0,0-1.567,1.3,11.854,11.854,0,0,0-2.239,3.187c-.053.158-.119.3-.171.3a4.11,4.11,0,0,1-.54-.882,13.5,13.5,0,0,0-1.133-1.739,12.319,12.319,0,0,0-2.845-2.463c-.356-.105-.29-.211.382-.645a11.9,11.9,0,0,0,3.872-4.478,1.677,1.677,0,0,1,.211-.461C322.336-505.031,322.56-504.623,322.81-504.123Z" transform="translate(-273.957 512.014)" fill="#fff"/>
  <path id="Path_174" data-name="Path 174" d="M31.7-477.829a3.95,3.95,0,0,0-1.963,1.91c-.224.593-.237,1.87-.237,29.465v28.846l.277.593a3.662,3.662,0,0,0,1.7,1.725c.5.237,1.554.25,23.919.25H78.774l.685-.342a3.318,3.318,0,0,0,1.686-1.989c.158-.514.184-3.662.184-19.02v-18.414l-.316-.369a1.2,1.2,0,0,0-1.686-.066l-.3.3-.066,18.506-.066,18.519-.316.25c-.3.25-.856.25-23.182.25H32.5l-.316-.342-.316-.342v-56.848l.316-.342.316-.342H52.445c21.68,0,20.482.04,20.824-.724a.956.956,0,0,0-.184-1.238L72.742-478l-20.3.013C38.483-477.974,32-477.934,31.7-477.829Z" transform="translate(-29.5 482.48)" fill="#fff"/>
  <path id="Path_175" data-name="Path 175" d="M64.342-443.723,64-443.46v52.9l.3.277.3.29H85.351c16.082-.013,20.785-.04,20.943-.171.514-.4.514-.184.514-17.808,0-18.7.04-17.637-.777-17.966a1.122,1.122,0,0,0-1.291.29c-.3.263-.3.3-.3,3.872v3.6H86.523v-23.445H90.54c4.847,0,4.939-.026,4.939-1.264a1.007,1.007,0,0,0-.329-.777L94.834-444H79.766C64.711-444,64.7-444,64.342-443.723Zm19.81,13.817v11.723H66.371v-23.445H84.152Zm0,25.816v11.723H66.371v-23.445H84.152Zm20.284,0v11.723H86.523v-23.445h17.913Z" transform="translate(-59.456 452.958)" fill="#fff"/>
  <path id="Path_176" data-name="Path 176" d="M100.015-408.081C98.066-406.145,98-406.053,98-405.539a.991.991,0,0,0,.316.843,1.39,1.39,0,0,0,1.475.171c.145-.079,1.067-.961,2.068-1.976,1.712-1.725,1.8-1.857,1.8-2.344a1.066,1.066,0,0,0-.619-1.08C102.333-410.307,102.136-410.188,100.015-408.081Z" transform="translate(-88.978 423.52)" fill="#fff"/>
  <path id="Path_177" data-name="Path 177" d="M107.418-409.71c-.211.132-2.424,2.292-4.9,4.781L98-400.4v.553a1.091,1.091,0,0,0,1.146,1.212c.474,0,.672-.184,5.334-4.847,4.426-4.412,4.847-4.873,4.847-5.269a1.132,1.132,0,0,0-.382-.83A1.106,1.106,0,0,0,107.418-409.71Z" transform="translate(-88.978 423.397)" fill="#fff"/>
  <path id="Path_178" data-name="Path 178" d="M255.261-213.531a26.924,26.924,0,0,0-2.226,2.107c-1.936,1.949-1.963,1.989-1.884,2.463a1.672,1.672,0,0,0,.3.724,1.293,1.293,0,0,0,1.449.211,32.8,32.8,0,0,0,3.872-3.9,1.385,1.385,0,0,0-.237-1.383A1.448,1.448,0,0,0,255.261-213.531Z" transform="translate(-221.938 252.902)" fill="#fff"/>
  <path id="Path_179" data-name="Path 179" d="M260.787-213.678c-.751.474-9.391,9.273-9.483,9.668a1.278,1.278,0,0,0,.474,1.278,1.8,1.8,0,0,0,.738.132c.487,0,.659-.158,5.282-4.781,4.531-4.531,4.768-4.794,4.768-5.255,0-.659-.105-.869-.54-1.093A1.01,1.01,0,0,0,260.787-213.678Z" transform="translate(-222.063 253.182)" fill="#fff"/>
  <path id="Path_180" data-name="Path 180" d="M250.31-392.812c-.448.25-.553.514-.645,1.5-.25,2.753-1.449,4.86-3.227,5.69a8.676,8.676,0,0,1-1.831.487c-1.3.2-1.607.435-1.607,1.238,0,.777.448,1.093,1.646,1.212,2.845.277,4.689,2.529,5.018,6.138.119,1.251.4,1.62,1.238,1.62a1.09,1.09,0,0,0,1.185-1.172,10,10,0,0,1,.843-3.53,4.97,4.97,0,0,1,4.228-3.056c.9-.105,1.093-.171,1.343-.474a1.23,1.23,0,0,0,.066-1.515c-.184-.224-.487-.329-1.449-.474a4.716,4.716,0,0,1-3.714-2.186,8.859,8.859,0,0,1-1.264-3.872c-.079-.9-.145-1.093-.461-1.4A1.09,1.09,0,0,0,250.31-392.812Zm.922,6.652a8.132,8.132,0,0,0,1.146,1.383l.9.883-.751.7a8.865,8.865,0,0,0-1.2,1.409l-.461.711-.263-.514a8.638,8.638,0,0,0-1.2-1.449l-.935-.948.435-.29a8.584,8.584,0,0,0,1.712-2,.967.967,0,0,1,.29-.369A1.692,1.692,0,0,1,251.232-386.16Z" transform="translate(-214.879 408.646)" fill="#fff"/>
</svg>
