<svg id="inventory-9" xmlns="http://www.w3.org/2000/svg" width="66.222" height="40.423" viewBox="0 0 66.222 40.423">
  <path id="Path_214" data-name="Path 214" d="M4.025-411.857a4.872,4.872,0,0,0-3.188,2.579l-.337.713v23.456l.3.609A4.837,4.837,0,0,0,3-382.3l.868.428,5.883.039,5.883.039.3-.285a1.011,1.011,0,0,0-.013-1.477l-.311-.324h-6.1v-1.555H28.932c10.691,0,19.529-.039,19.646-.078a1.284,1.284,0,0,0,.518-1.231c-.181-.816,1.27-.765-20.113-.765H9.507v-1.555H57.715v1.555H54.682c-2.864,0-3.045.013-3.369.272a.993.993,0,0,0,0,1.529c.324.259.505.272,3.369.272h3.032v1.555H38.341c-14.113,0-19.452.039-19.685.143a1.084,1.084,0,0,0-.518,1.205c.194.778-1.387.726,22.938.7l22.277-.039.868-.428a4.837,4.837,0,0,0,2.2-2.2l.3-.609v-23.456l-.337-.713a4.707,4.707,0,0,0-2.294-2.242l-.868-.415-23.689-.039L15.844-412l-.311.311a1.022,1.022,0,0,0-.026,1.477l.3.285H39.066c15.992,0,23.4.039,23.741.143a3.351,3.351,0,0,1,1.737,1.5c.13.337.168,2.488.168,11.469v11.054l-.3.518a3.678,3.678,0,0,1-.842.907c-.544.376-.635.389-2.112.428l-1.542.052v-3.11c0-3.2-.078-3.81-.518-4.043-.324-.181-51.253-.181-51.577,0-.441.233-.518.842-.518,4.043v3.11L5.761-383.9c-1.477-.039-1.568-.052-2.112-.428a3.678,3.678,0,0,1-.842-.907l-.3-.518v-11.054c0-12-.026-11.508.726-12.246.8-.8.778-.8,5.378-.868,3.188-.052,4.277-.1,4.432-.233a1.1,1.1,0,0,0-.246-1.7A73.307,73.307,0,0,0,4.025-411.857Z" transform="translate(-0.5 412)" fill="#fff"/>
  <path id="Path_215" data-name="Path 215" d="M244.558-365.8a1.12,1.12,0,0,0-.3,1.685c.259.259.428.259,9.966.259h9.719l.259-.337a.956.956,0,0,0-.259-1.542c-.311-.168-1.75-.194-9.732-.181C249.054-365.919,244.713-365.867,244.558-365.8Z" transform="translate(-212.445 371.893)" fill="#fff"/>
  <path id="Path_216" data-name="Path 216" d="M420.548-365.611c-.324.337-.376.466-.311.816.143.778.4.868,2.488.868,1.7,0,1.892-.026,2.125-.259a1.042,1.042,0,0,0-.078-1.529c-.3-.259-.441-.285-2.073-.285h-1.762Z" transform="translate(-365.821 371.961)" fill="#fff"/>
  <path id="Path_217" data-name="Path 217" d="M112.72-159.49a1.54,1.54,0,0,0-.467,1.063,6.546,6.546,0,0,1-2.242,4.147c-.8.687-.933.92-.8,1.516a1.142,1.142,0,0,0,1.244.726,7.41,7.41,0,0,0,2.242-2.022,8.147,8.147,0,0,0,1.633-4.5c0-.739-.22-1.037-.868-1.166A.765.765,0,0,0,112.72-159.49Z" transform="translate(-95.082 192.432)" fill="#fff"/>
  <path id="Path_218" data-name="Path 218" d="M187.57-159.513c-.518.259-.57.648-.57,3.745,0,3.149.052,3.5.609,3.745a.868.868,0,0,0,1.14-.181l.324-.311v-3.227c0-2.89-.026-3.266-.22-3.512A1.179,1.179,0,0,0,187.57-159.513Z" transform="translate(-162.831 192.313)" fill="#fff"/>
  <path id="Path_219" data-name="Path 219" d="M250.663-159.474c-.518.259-.57.661-.531,3.966.039,3.551.052,3.59,1.024,3.59a.832.832,0,0,0,.778-.311c.233-.272.246-.557.246-3.512,0-2.864-.026-3.24-.22-3.486A1.169,1.169,0,0,0,250.663-159.474Z" transform="translate(-217.773 192.286)" fill="#fff"/>
  <path id="Path_220" data-name="Path 220" d="M309.557-159.773c-.518.207-.557.505-.557,3.823v3.188l.324.311a.868.868,0,0,0,1.14.181c.557-.246.609-.6.609-3.745s-.052-3.5-.609-3.745A.907.907,0,0,0,309.557-159.773Z" transform="translate(-269.021 192.56)" fill="#fff"/>
  <path id="Path_221" data-name="Path 221" d="M363.648-159.831c-.492.181-.648.467-.648,1.179a8.271,8.271,0,0,0,1.542,4.354,8.093,8.093,0,0,0,2.307,2.1,1.182,1.182,0,0,0,1.218-.557c.233-.609.117-.829-.894-1.827a6.269,6.269,0,0,1-2.048-3.693C364.892-159.636,364.439-160.116,363.648-159.831Z" transform="translate(-316.023 192.578)" fill="#fff"/>
</svg>
