<svg id="inventory-2" xmlns="http://www.w3.org/2000/svg" width="54.96" height="54.969" viewBox="0 0 54.96 54.969">
  <path id="Path_181" data-name="Path 181" d="M1.595-511.8a3.259,3.259,0,0,0-1.4,1.428,3.778,3.778,0,0,0,.043,2.287,3.164,3.164,0,0,0,1.31,1.342l.311.129v16.394c0,17.768-.011,17.306.59,19.389a16.32,16.32,0,0,0,4.37,7.311,16.316,16.316,0,0,0,9.05,4.509,21.379,21.379,0,0,0,5.926-.161A16.482,16.482,0,0,0,34.06-470.183a16.232,16.232,0,0,0,.837-5.239l.064-1.911.386-.2a2.327,2.327,0,0,0,1.1-1.181l.258-.483V-489.83l-.247-.483a2.479,2.479,0,0,0-1.117-1.192l-.408-.2V-492.9a3.173,3.173,0,0,1,.215-1.589,1.8,1.8,0,0,1,1.879-.934,2.159,2.159,0,0,1,1.3,1.106c.129.29.15,3.113.15,16.115v15.771l-.258.118a3.2,3.2,0,0,0-1.353,1.439,2.314,2.314,0,0,0-.193,1.267,2.624,2.624,0,0,0,1.557,2.351c.451.225.537.225,7.623.225,6.764,0,7.193-.021,7.6-.2a3.259,3.259,0,0,0,1.4-1.428,3.777,3.777,0,0,0-.043-2.287,3.164,3.164,0,0,0-1.31-1.342l-.311-.129v-16.351c0-10.983-.043-16.63-.118-17.2a16.536,16.536,0,0,0-13.839-14.043,20.217,20.217,0,0,0-5.4.054,16.42,16.42,0,0,0-12.84,11.112,16.232,16.232,0,0,0-.837,5.239l-.064,1.911-.386.2a2.327,2.327,0,0,0-1.1,1.181l-.258.483V-479.2l.258.483a2.3,2.3,0,0,0,1.117,1.192l.4.2v1.192a3.173,3.173,0,0,1-.215,1.589,1.8,1.8,0,0,1-1.879.934,2.159,2.159,0,0,1-1.3-1.106c-.129-.29-.15-3.113-.15-16.115V-506.6l.258-.118a3.2,3.2,0,0,0,1.353-1.439,2.315,2.315,0,0,0,.193-1.267,2.624,2.624,0,0,0-1.557-2.351C16.367-512,16.281-512,9.2-512,2.432-512,2-511.979,1.595-511.8Zm14.6,2a.717.717,0,0,1,.011,1.1l-.258.3-6.538.032c-3.586.011-6.635,0-6.774-.032a.854.854,0,0,1-.429-1.417l.225-.247H15.938Zm23.855,1.922a14.49,14.49,0,0,1,7.182,4.176,14.711,14.711,0,0,1,3.758,7.054c.183.752.193,1.9.225,17.425l.032,16.609H40.405l-.021-16.018-.032-16.029-.236-.515a4.489,4.489,0,0,0-1.847-1.868,2.835,2.835,0,0,0-1.567-.3,2.864,2.864,0,0,0-1.567.29,3.936,3.936,0,0,0-1.782,1.718c-.268.515-.3.687-.333,1.986l-.043,1.428H22.014l.064-1.75a21.9,21.9,0,0,1,.279-2.759,14.726,14.726,0,0,1,11.874-11.649A18.615,18.615,0,0,1,40.051-507.877ZM14.66-490.4l.032,16.029.236.515a4.488,4.488,0,0,0,1.847,1.868,2.835,2.835,0,0,0,1.567.3,2.865,2.865,0,0,0,1.567-.29,3.937,3.937,0,0,0,1.782-1.718c.268-.515.3-.687.333-2l.043-1.417H33.03l-.064,1.7a14.734,14.734,0,0,1-1.557,6.517,14.509,14.509,0,0,1-13,8.106,14.225,14.225,0,0,1-10.328-4.284,14.41,14.41,0,0,1-4.133-8.052c-.118-.762-.15-3.811-.15-17.113v-16.179H14.639Zm19.862.709.247.247v9.856l-.247.247-.247.247H20.769l-.247-.247-.247-.247-.032-4.8c-.021-5.143-.021-5.2.515-5.465.215-.107,1.718-.129,6.893-.107l6.624.021Zm18.112,29.17a.811.811,0,0,1,.2,1.31l-.225.247H39.106l-.258-.268a.868.868,0,0,1-.268-.5,1.02,1.02,0,0,1,.58-.837c.118-.054,3.135-.1,6.7-.1C51.345-460.682,52.376-460.66,52.633-460.521Z" transform="translate(-0.042 512)" fill="#fff"/>
  <path id="Path_182" data-name="Path 182" d="M51.268-443.876c-.258.247-.268.322-.268,1.578.011,1.374.054,1.546.5,1.782a.9.9,0,0,0,1.074-.129c.29-.258.3-.29.333-1.535s.032-1.288-.247-1.621A.919.919,0,0,0,51.268-443.876Z" transform="translate(-45.529 451.445)" fill="#fff"/>
  <path id="Path_183" data-name="Path 183" d="M51.268-392.721l-.268.258v6.807c0,6.731,0,6.817.225,7.1.183.225.311.279.7.279a.88.88,0,0,0,.956-.666c.032-.14.043-3.232.032-6.882l-.032-6.646-.3-.258A.949.949,0,0,0,51.268-392.721Z" transform="translate(-45.529 405.765)" fill="#fff"/>
</svg>
