<svg id="inventory-6" xmlns="http://www.w3.org/2000/svg" width="55.675" height="55.676" viewBox="0 0 55.675 55.676">
  <path id="Path_191" data-name="Path 191" d="M34.484-498.556c-.3.242-.31.288-.31,1.334v1.081H28.481c-5.543,0-5.7.011-5.922.23s-.23.379-.23,24.264v24.034h-3.9c-3.76,0-3.9.011-4.2.241a.86.86,0,0,0-.069,1.253c.23.23.379.23,10.12.23h9.878l.035,1.276c.057,2.012-1.38,1.989,11.638.218l11.028-1.495h6.129c5.991,0,6.141,0,6.371-.23a.86.86,0,0,0-.069-1.253c-.3-.23-.437-.241-4.2-.241H61.2v-6.877c0-6.532-.012-6.9-.207-7.072a1.016,1.016,0,0,0-1.207.012c-.172.2-.2.839-.2,6.9,0,4.37-.034,6.693-.115,6.693-.058,0-2.771.356-6,.8s-8.406,1.139-11.477,1.541-5.715.782-5.888.816l-.322.046v-26.092c0-14.363.023-26.1.058-26.1.2,0,22.953,2.311,23.321,2.369l.425.069v6.29c0,5.957.012,6.313.207,6.486A1.016,1.016,0,0,0,61-481.743c.172-.2.2-.851.2-7.118,0-6.52-.012-6.911-.207-7.084-.241-.219.115-.184-14.915-1.69-5.692-.575-10.557-1.07-10.81-1.1A.87.87,0,0,0,34.484-498.556Zm-.31,5.52v1.495H27.285l-.23.3-.241.31v43.319h-2.76v-46.918h10.12Zm0,24.322v21.1H28.538v-42.2h5.635Z" transform="translate(-13.925 498.758)" fill="#fff"/>
  <path id="Path_192" data-name="Path 192" d="M411.23-314.77c-.207.207-.23.38-.23,1.828,0,1.529.011,1.621.253,1.782a.9.9,0,0,0,1.127-.046c.207-.207.23-.38.23-1.782s-.023-1.575-.23-1.782a.92.92,0,0,0-.575-.23A.92.92,0,0,0,411.23-314.77Z" transform="translate(-365.338 336.131)" fill="#fff"/>
  <path id="Path_193" data-name="Path 193" d="M221.631-280.609a2.685,2.685,0,0,0-1.495,2.806,2.659,2.659,0,0,0,1.288,2.242,2.235,2.235,0,0,0,1.564.345,2.235,2.235,0,0,0,1.564-.345,3.176,3.176,0,0,0,1.334-1.989,3.041,3.041,0,0,0-1.334-2.955,2.366,2.366,0,0,0-1.437-.38A2.235,2.235,0,0,0,221.631-280.609Zm2.219,1.782a1.171,1.171,0,0,1-1.495,1.782,1.6,1.6,0,0,1-.471-.609.712.712,0,0,1,.035-.816,1.378,1.378,0,0,1,1.3-.77A1.793,1.793,0,0,1,223.851-278.827Z" transform="translate(-196.416 305.949)" fill="#fff"/>
  <path id="Path_194" data-name="Path 194" d="M411.2-245.772c-.161.172-.2.483-.2,1.782,0,1.426.023,1.6.23,1.805a.92.92,0,0,0,.575.23.92.92,0,0,0,.575-.23c.207-.207.23-.38.23-1.817,0-1.4-.023-1.621-.207-1.782A1.016,1.016,0,0,0,411.2-245.772Z" transform="translate(-365.338 275.045)" fill="#fff"/>
</svg>
