<svg id="inventory-10" xmlns="http://www.w3.org/2000/svg" width="62.932" height="48.246" viewBox="0 0 62.932 48.246">
  <path id="Path_222" data-name="Path 222" d="M212.736,253.007V234.128h3.147a1.049,1.049,0,0,0,.9-1.589l-15.733-26.221a1.048,1.048,0,0,0-.9-.509H170.782a1.049,1.049,0,0,0-.9.509l-15.733,26.221h0a1.049,1.049,0,0,0,.9,1.589H156.1v18.879a1.049,1.049,0,0,0,1.049,1.049h54.54a1.049,1.049,0,0,0,1.049-1.049Zm-13.18-45.1,14.475,24.123h-1.749l-14.475-24.123Zm.21,7.342h-4.86v2.1h6.083v-.059l1.923,3.205H197v2.1h7.167l1.888,3.147H194.905v2.1h12.412l1.888,3.147h-16.4v2.1h16.071l1.259,3.147H188.613v2.1h20.266l1.259,3.147H188.613v2.1h20.266l1.259,3.147H188.612v2.1h20.266l1.259,3.147H181.27V233.37L195.955,208.9Zm-28.39-7.342H194.1L179.629,232.03H156.9ZM158.2,234.128h20.976v17.83H158.2Z" transform="translate(-154 -205.809)" fill="#fff"/>
  <path id="Path_223" data-name="Path 223" d="M224.749,427.8H214.261a1.049,1.049,0,0,0-1.049,1.049v8.391a1.049,1.049,0,0,0,1.049,1.049h10.488a1.049,1.049,0,0,0,1.049-1.049v-8.391A1.049,1.049,0,0,0,224.749,427.8ZM223.7,432h-3.147v-2.1H223.7Zm-5.244-2.1V432H215.31v-2.1Zm-3.147,4.2h3.147v2.1H215.31Zm5.244,2.1v-2.1H223.7v2.1Z" transform="translate(-204.819 -396.335)" fill="#fff"/>
  <path id="Path_224" data-name="Path 224" d="M361.2,494.4h3.147v2.1H361.2Z" transform="translate(-331.831 -453.494)" fill="#fff"/>
  <path id="Path_225" data-name="Path 225" d="M361.2,457.4h3.147v2.1H361.2Z" transform="translate(-331.831 -421.739)" fill="#fff"/>
  <path id="Path_226" data-name="Path 226" d="M361.2,420.4h3.147v2.1H361.2Z" transform="translate(-331.831 -389.983)" fill="#fff"/>
  <path id="Path_227" data-name="Path 227" d="M376,383.4h5.244v2.1H376Z" transform="translate(-344.533 -358.228)" fill="#fff"/>
  <path id="Path_228" data-name="Path 228" d="M398.2,346.4h4.2v2.1h-4.2Z" transform="translate(-363.587 -326.472)" fill="#fff"/>
  <path id="Path_229" data-name="Path 229" d="M420.4,309.4h3.147v2.1H420.4Z" transform="translate(-382.64 -294.717)" fill="#fff"/>
</svg>
