<svg xmlns="http://www.w3.org/2000/svg" width="78.378" height="78.23" viewBox="0 0 78.378 78.23">
  <g id="mailbox" transform="translate(-15.5 496.5)">
    <path id="Path_114" data-name="Path 114" d="M93.372-495.678c-.322.322-.322.531-.322,14.223v13.9l-.467.113a5.442,5.442,0,0,0-2.526,1.947,5.27,5.27,0,0,0,2,7.659,6.753,6.753,0,0,0,4.569,0,5.817,5.817,0,0,0,2.413-2.413,6.288,6.288,0,0,0,.209-4.038,5.944,5.944,0,0,0-2.671-2.944l-.788-.37v-10.41l5.921.08c6.629.08,7.031.129,9.284,1.239a11.861,11.861,0,0,1,6.13,7.562c.257.965.29,2.14.354,14.127l.048,13.065H76.334l-.064-13.628c-.048-15.349.032-14.239-1.319-17.023a14.377,14.377,0,0,0-3.427-4.553l-1-.837H89.978l.338-.354a1.546,1.546,0,0,0,0-1.9c-.322-.322-.434-.338-15.655-.274-17.312.048-15.88-.064-18.857,1.4A11.2,11.2,0,0,0,53.76-477.9a1.365,1.365,0,0,0,.837,2.381,3.885,3.885,0,0,0,1.432-.6,11.146,11.146,0,0,1,6.162-1.722,11.036,11.036,0,0,1,7.079,2.446,11.335,11.335,0,0,1,4.312,8.029c.08.837.161,6.9.161,13.467v11.954H50.574v-1.046c0-1.287-.306-1.689-1.287-1.689-1.142,0-1.287.306-1.287,2.655,0,1.8.032,2.043.322,2.333.322.322.531.322,19.951.322H87.9v18.02H82.753v-7.4c0-7.192-.016-7.417-.322-7.723a1.764,1.764,0,0,0-1.77-.161c-.579.306-.644,1.158-.644,8.849s.064,8.544.644,8.849a34.831,34.831,0,0,0,4.73.161c4.232,0,4.457-.016,4.763-.322.322-.322.322-.531.322-10.3v-9.976h14.481c14.078,0,14.5-.016,14.786-.306a2.192,2.192,0,0,0,.418-1.014c.064-.386.08-6.774.032-14.207-.048-13.322-.064-13.531-.418-14.883a14.384,14.384,0,0,0-7.626-9.412c-2.639-1.255-2.607-1.255-9.879-1.319l-6.484-.064v-12.856h8.849v5.149h-2.8a30.226,30.226,0,0,0-3.073.1,1.486,1.486,0,0,0-.547,1.577c.257.885.354.9,4.521.9,3.62,0,3.845-.016,4.151-.322s.322-.531.322-4.827-.016-4.521-.322-4.827-.531-.322-6.758-.322S93.678-495.984,93.372-495.678Zm2.22,31.053a2.431,2.431,0,0,1-1.271,4.505,2.427,2.427,0,0,1-2.124-3.572A2.5,2.5,0,0,1,95.593-464.625Z" transform="translate(-26.851 0)" fill="#4d87b6" stroke="#fff" stroke-width="1"/>
    <path id="Path_115" data-name="Path 115" d="M17.657-351.517a3.293,3.293,0,0,0-1.255,1.175l-.4.708v21.013l.4.708a3.293,3.293,0,0,0,1.255,1.174l.837.483H31.253c12.534,0,12.743,0,13.065-.322a1.593,1.593,0,0,0,0-1.931c-.322-.322-.531-.322-11.842-.322h-11.5l4.939-4.183c2.719-2.3,5-4.183,5.068-4.183a9,9,0,0,1,1.271.965c.965.8,1.255.965,1.77.965s.8-.161,1.77-.965a9,9,0,0,1,1.271-.965,28.911,28.911,0,0,1,2.365,1.9c3.025,2.542,3.105,2.607,3.62,2.607a1.4,1.4,0,0,0,1.335-1.335c0-.724-.1-.821-2.832-3.137a25.157,25.157,0,0,1-2.22-1.963,25.151,25.151,0,0,1,2.22-1.963c2.735-2.317,2.832-2.413,2.832-3.137a1.4,1.4,0,0,0-1.335-1.335c-.547,0-.434-.08-5.133,3.894-2.076,1.754-3.813,3.186-3.894,3.186-.064,0-3.041-2.462-6.6-5.47l-6.452-5.47H31.189c10.024,0,10.233,0,10.555-.322a1.317,1.317,0,0,0,.322-.965,1.317,1.317,0,0,0-.322-.965C41.421-352,41.212-352,29.966-352H18.494Zm6.114,8.109c2.719,2.3,4.939,4.232,4.939,4.28,0,.113-9.911,8.527-10.056,8.527-.048,0-.08-3.845-.08-8.544s.064-8.511.129-8.479C18.783-347.608,21.068-345.693,23.771-343.408Z" transform="translate(0 -120.831)" fill="#4d87b6" stroke="#fff" stroke-width="1"/>
  </g>
</svg>
