<svg xmlns="http://www.w3.org/2000/svg" width="57.321" height="63.693" viewBox="0 0 57.321 63.693">
  <g id="media-3" transform="translate(-40 496)">
    <path id="Path_252" data-name="Path 252" d="M44.976-495.748a3.973,3.973,0,0,0-.955.69c-.889.942-.836-.332-.836,18.537V-459.4l-1.592,10.589c-1.752,11.637-1.831,12.54-1.314,13.92a4.279,4.279,0,0,0,2.309,2.309l.743.279H93.993l.743-.279a4.279,4.279,0,0,0,2.309-2.309c.518-1.367.425-2.243-1.314-13.88l-1.592-10.642v-17.1c0-18.869.053-17.6-.836-18.537a3.973,3.973,0,0,0-.955-.69c-.5-.239-1.407-.252-23.686-.252S45.48-495.987,44.976-495.748Zm46.3,2.057a.973.973,0,0,1,.6.61c.106.318.146,4.936.146,16.8v16.374H45.308v-16.374c0-11.85.04-16.481.146-16.8.292-.836-1.154-.783,23.182-.8C87.305-493.877,90.9-493.85,91.273-493.691ZM93.462-448.6c.756,5.056,1.407,9.355,1.433,9.567l.08.358-9.527-.027-9.527-.04-.491-1.911a6.063,6.063,0,0,0-.73-2.083,91.671,91.671,0,0,0-12.075,0,6.064,6.064,0,0,0-.73,2.083l-.491,1.911-9.527.04-9.527.027.08-.358c.027-.212.677-4.512,1.433-9.567l1.367-9.182H92.1Zm-20.13,8.8c.119.5.239.969.239,1.022s-2.2.106-4.91.106-4.91-.04-4.91-.08c0-.093.385-1.632.464-1.884.053-.133,1.008-.159,4.472-.133l4.405.04Zm21.735,3.569a2.207,2.207,0,0,1-1.062,1.46c-.464.279-.491.279-25.344.279s-24.88,0-25.344-.279a2.207,2.207,0,0,1-1.062-1.46v-.318H95.068Z" transform="translate(0)" fill="#4d87b6"/>
    <path id="Path_253" data-name="Path 253" d="M96.265-463.735c-.265.265-.265.438-.265,14.6s0,14.331.265,14.6.438.265,20.966.265,20.7,0,20.966-.265.265-.438.265-14.6,0-14.331-.265-14.6-.438-.265-20.966-.265S96.531-464,96.265-463.735Zm40.073,14.6V-436.4H98.123v-25.477h38.216Z" transform="translate(-48.569 -27.754)" fill="#4d87b6"/>
    <path id="Path_254" data-name="Path 254" d="M178.388-431.735c-.239.239-.265.438-.265,1.8v1.526l-.292-.2a1.129,1.129,0,0,0-1.831.916c0,.478.106.624,1.3,1.818,1.247,1.247,1.327,1.3,1.884,1.3s.637-.053,1.884-1.3c1.221-1.221,1.3-1.34,1.3-1.831a1.133,1.133,0,0,0-1.831-.9l-.292.2v-1.526c0-1.8-.133-2.07-1.062-2.07A1.086,1.086,0,0,0,178.388-431.735Z" transform="translate(-117.954 -55.508)" fill="#4d87b6"/>
    <path id="Path_255" data-name="Path 255" d="M129.353-415.7a1.155,1.155,0,0,0-.292.743,17.735,17.735,0,0,0,.863,2.787c.478,1.3.863,2.389.863,2.442a3.442,3.442,0,0,1-1.128.093c-1.327,0-1.659.2-1.659,1.008a112.289,112.289,0,0,0,3.092,11.425l.265.305h12.394l.265-.305a112.7,112.7,0,0,0,3.092-11.4c0-.8-.226-.955-1.5-1.035l-1.128-.066.916-2.495a24.593,24.593,0,0,0,.916-2.813,1.287,1.287,0,0,0-.279-.65c-.212-.279-.385-.345-.836-.345a1.077,1.077,0,0,0-.8.239c-.159.186-2.335,5.852-2.335,6.091,0,.027-1.977.027-4.405.013l-4.405-.04-1.088-2.986a23.314,23.314,0,0,0-1.327-3.145A1.3,1.3,0,0,0,129.353-415.7Zm15.18,8.413c-.04.133-.491,1.818-1.008,3.755s-1,3.742-1.075,4.007l-.133.5H132.79l-.133-.5c-.08-.265-.557-2.07-1.075-4.007s-.969-3.622-1.008-3.755c-.066-.212.332-.226,6.98-.226S144.6-407.5,144.534-407.288Z" transform="translate(-76.323 -69.378)" fill="#4d87b6"/>
    <path id="Path_256" data-name="Path 256" d="M160.265-343.747a1.063,1.063,0,0,0-.265.73,23.822,23.822,0,0,0,1.353,5.135,1.134,1.134,0,0,0,.77.239.934.934,0,0,0,1.062-1,23.822,23.822,0,0,0-1.353-5.135A1.335,1.335,0,0,0,160.265-343.747Z" transform="translate(-104.077 -131.818)" fill="#4d87b6"/>
    <path id="Path_257" data-name="Path 257" d="M192.265-343.735c-.252.252-.265.438-.265,2.919s.013,2.667.265,2.919a1.086,1.086,0,0,0,.8.265,1.086,1.086,0,0,0,.8-.265c.252-.252.265-.438.265-2.919s-.013-2.667-.265-2.919a1.086,1.086,0,0,0-.8-.265A1.086,1.086,0,0,0,192.265-343.735Z" transform="translate(-131.831 -131.831)" fill="#4d87b6"/>
    <path id="Path_258" data-name="Path 258" d="M217.353-343.761A23.822,23.822,0,0,0,216-338.626a.934.934,0,0,0,1.062,1,1.133,1.133,0,0,0,.77-.239A23.821,23.821,0,0,0,219.185-343a.934.934,0,0,0-1.062-1A1.133,1.133,0,0,0,217.353-343.761Z" transform="translate(-152.646 -131.831)" fill="#4d87b6"/>
    <path id="Path_259" data-name="Path 259" d="M288.265-359.735a1.086,1.086,0,0,0-.265.8,1.086,1.086,0,0,0,.265.8c.252.252.438.265,2.919.265s2.667-.013,2.919-.265a1.086,1.086,0,0,0,.265-.8,1.086,1.086,0,0,0-.265-.8c-.252-.252-.438-.265-2.919-.265S288.518-359.987,288.265-359.735Z" transform="translate(-215.092 -117.954)" fill="#4d87b6"/>
    <path id="Path_260" data-name="Path 260" d="M352.265-359.735a1.086,1.086,0,0,0-.265.8c0,.929.265,1.062,2.123,1.062s2.123-.133,2.123-1.062S355.981-360,354.123-360C352.7-360,352.5-359.973,352.265-359.735Z" transform="translate(-270.6 -117.954)" fill="#4d87b6"/>
    <path id="Path_261" data-name="Path 261" d="M288.265-327.735a1.086,1.086,0,0,0-.265.8c0,.929.265,1.062,2.123,1.062s2.123-.133,2.123-1.062S291.981-328,290.123-328C288.7-328,288.5-327.973,288.265-327.735Z" transform="translate(-215.092 -145.707)" fill="#4d87b6"/>
    <path id="Path_262" data-name="Path 262" d="M336.265-327.735a1.086,1.086,0,0,0-.265.8,1.086,1.086,0,0,0,.265.8c.252.252.438.265,2.919.265s2.667-.013,2.919-.265a1.086,1.086,0,0,0,.265-.8,1.086,1.086,0,0,0-.265-.8c-.252-.252-.438-.265-2.919-.265S336.517-327.987,336.265-327.735Z" transform="translate(-256.723 -145.707)" fill="#4d87b6"/>
    <path id="Path_263" data-name="Path 263" d="M288.265-295.735a1.086,1.086,0,0,0-.265.8,1.086,1.086,0,0,0,.265.8c.252.252.438.265,6.1.265s5.852-.013,6.1-.265a1.086,1.086,0,0,0,.265-.8,1.086,1.086,0,0,0-.265-.8c-.252-.252-.438-.265-6.1-.265S288.518-295.987,288.265-295.735Z" transform="translate(-215.092 -173.461)" fill="#4d87b6"/>
    <path id="Path_264" data-name="Path 264" d="M89.447-191.748c-.318.318-.305.212-.876,4.87-.544,4.405-.571,4.857-.2,5.228.265.265.438.265,22.027.265s21.762,0,22.027-.265c.372-.372.345-.823-.2-5.228-.571-4.658-.557-4.551-.876-4.87C131.1-192,130.728-192,110.4-192S89.7-192,89.447-191.748Zm5.759,2.826a5.934,5.934,0,0,1-.159,1.062,9.886,9.886,0,0,1-2.057.106H91l.093-.969a6.452,6.452,0,0,1,.159-1.062,11.824,11.824,0,0,1,2.057-.093H95.3Zm7.431,0a5.935,5.935,0,0,1-.159,1.062,15.458,15.458,0,0,1-2.588.106H97.369l.093-.969a6.45,6.45,0,0,1,.159-1.062,18.5,18.5,0,0,1,2.588-.093h2.521Zm6.7.106v1.062H104.8l.093-.969a6.452,6.452,0,0,1,.159-1.062,13.189,13.189,0,0,1,2.176-.093h2.11Zm6.409-.969a6.452,6.452,0,0,1,.159,1.062l.093.969h-4.538v-2.123h2.11A13.189,13.189,0,0,1,115.747-189.784Zm7.431,0a6.452,6.452,0,0,1,.159,1.062l.093.969h-2.521a15.458,15.458,0,0,1-2.588-.106,5.932,5.932,0,0,1-.159-1.062l-.093-.955h2.521A18.5,18.5,0,0,1,123.178-189.784Zm6.369,0a6.45,6.45,0,0,1,.159,1.062l.093.969h-1.99a9.886,9.886,0,0,1-2.057-.106,5.934,5.934,0,0,1-.159-1.062l-.093-.955h1.99A11.824,11.824,0,0,1,129.547-189.784Zm-34.872,5.109a5.936,5.936,0,0,1-.159,1.062,9.889,9.889,0,0,1-2.057.106h-1.99l.093-.969a6.451,6.451,0,0,1,.159-1.062,11.824,11.824,0,0,1,2.057-.093h1.99Zm7.431,0a5.935,5.935,0,0,1-.159,1.062,15.462,15.462,0,0,1-2.588.106H96.838l.093-.969a6.452,6.452,0,0,1,.159-1.062,18.5,18.5,0,0,1,2.588-.093H102.2Zm7.232.106v1.062h-5.069l.093-.969a6.45,6.45,0,0,1,.159-1.062,16.508,16.508,0,0,1,2.442-.093h2.375Zm6.94-.969a6.451,6.451,0,0,1,.159,1.062l.093.969h-5.069v-2.123h2.375A16.508,16.508,0,0,1,116.278-185.538Zm7.431,0a6.453,6.453,0,0,1,.159,1.062l.093.969h-2.521a15.462,15.462,0,0,1-2.588-.106,5.934,5.934,0,0,1-.159-1.062l-.093-.955h2.521A18.5,18.5,0,0,1,123.708-185.538Zm6.369,0a6.449,6.449,0,0,1,.159,1.062l.093.969h-1.99a9.888,9.888,0,0,1-2.057-.106,5.934,5.934,0,0,1-.159-1.062l-.093-.955h1.99A11.824,11.824,0,0,1,130.078-185.538Z" transform="translate(-41.737 -263.661)" fill="#4d87b6"/>
  </g>
</svg>
