<svg xmlns="http://www.w3.org/2000/svg" width="49.122" height="72.246" viewBox="0 0 49.122 72.246">
  <g id="media-1" transform="translate(-81.999 511.863)">
    <path id="Path_238" data-name="Path 238" d="M167.226-511.67a14.281,14.281,0,0,0-11.079,11.4,50.688,50.688,0,0,0,0,9.484,13.8,13.8,0,0,0,3.81,7.339,13.71,13.71,0,0,0,6.845,3.98,18.565,18.565,0,0,0,6.774-.085,14.341,14.341,0,0,0,10.373-11.234,50.688,50.688,0,0,0,0-9.484,14.244,14.244,0,0,0-11.192-11.417A20.742,20.742,0,0,0,167.226-511.67Zm5.56,2.54a11.744,11.744,0,0,1,7.776,6.435c1,2.145,1.115,2.823,1.115,7.183,0,4.46-.113,5.123-1.242,7.409a11.255,11.255,0,0,1-5.377,5.292,9.821,9.821,0,0,1-5.01,1.185,9.821,9.821,0,0,1-5.01-1.185,11.255,11.255,0,0,1-5.377-5.292c-1.129-2.286-1.242-2.95-1.242-7.409,0-3.585.028-3.966.31-5.01a11.943,11.943,0,0,1,9.413-8.806A15.143,15.143,0,0,1,172.786-509.13Z" transform="translate(-63.493)" fill="#4d87b6"/>
    <path id="Path_239" data-name="Path 239" d="M224.767-264.732a2.916,2.916,0,0,0-1.552,3.034,5.048,5.048,0,0,0,.819,1.736c1.115,1.694,1.157,1.919.734,5.363-.183,1.595-.353,3.133-.353,3.415a16.431,16.431,0,0,0,.96,3.048c.861,2.23,1.03,2.569,1.44,2.851a1.74,1.74,0,0,0,2,0c.423-.282.579-.607,1.482-2.992l1-2.681-.381-3.232a18.906,18.906,0,0,1-.254-3.867,6.5,6.5,0,0,1,.889-1.835,7.471,7.471,0,0,0,.861-1.665,3,3,0,0,0-1.538-3.175c-.508-.226-.931-.268-3.062-.268S225.261-264.958,224.767-264.732Zm4.939,2.216c.339.127.282.409-.339,1.369-1.341,2.131-1.454,2.992-.946,7.113l.325,2.71-.452,1.242c-.508,1.4-.437,1.425-1.087-.339l-.325-.889.339-2.71c.494-4.135.367-5.052-.974-7.113-.579-.889-.677-1.256-.367-1.369A23.066,23.066,0,0,1,229.707-262.516Z" transform="translate(-121.26 -212.023)" fill="#4d87b6"/>
    <path id="Path_240" data-name="Path 240" d="M91.243-255.448c-3.641,1.4-6.915,2.71-7.268,2.921a5.143,5.143,0,0,0-1.087.988c-.917,1.214-.889.649-.889,15.51,0,13.887,0,13.831.55,14.254.325.254,47.687.254,48.012,0a1.637,1.637,0,0,0,.381-.48c.226-.409.24-26.532.028-27.308a5.025,5.025,0,0,0-1.694-2.315c-.353-.24-3.669-1.722-7.381-3.288-6.478-2.752-6.76-2.851-7.226-2.7a1.3,1.3,0,0,0-.692.536c-.1.212-1.792,6.845-3.768,14.734s-3.613,14.367-3.655,14.367-1.679-6.464-3.655-14.367-3.669-14.522-3.768-14.72A1.724,1.724,0,0,0,97.961-258C97.919-257.988,94.9-256.845,91.243-255.448Zm9.851,15.933,3.881,15.524H84.54v-12.716c0-14.071-.056-13.2.9-13.76.353-.2,11.347-4.5,11.671-4.558C97.171-255.039,98.949-248.053,101.094-239.514Zm26.321-10.556a2.46,2.46,0,0,1,.889.734c.254.423.268.9.268,12.885v12.462H108.136l3.881-15.5L115.9-255l5.448,2.315C124.352-251.412,127.09-250.24,127.415-250.071Z" transform="translate(0 -218.033)" fill="#4d87b6"/>
  </g>
</svg>
