<svg xmlns="http://www.w3.org/2000/svg" width="95.752" height="95.838" viewBox="0 0 95.752 95.838">
  <g id="media-2" transform="translate(-0.425 511.943)">
    <path id="Path_241" data-name="Path 241" d="M85.669-511.6a5.806,5.806,0,0,0-1.91.655,1.571,1.571,0,0,0,.88,2.546,15.291,15.291,0,0,0,1.891-.281,22.186,22.186,0,0,1,6.591-.094,18.69,18.69,0,0,1,11.628,7.115,21.671,21.671,0,0,1,3.164,6.553,18.483,18.483,0,0,1-8.632,20.334,16.823,16.823,0,0,1-8.52,2.453,14.7,14.7,0,0,1-4.232-.281,18.467,18.467,0,0,1-14.455-22.038,19.853,19.853,0,0,1,6.891-10.71c.618-.487.73-.674.73-1.273a1.64,1.64,0,0,0-1.479-1.592c-1.123,0-4.475,3.3-6.31,6.179a21.5,21.5,0,0,0-.786,21.477,10.522,10.522,0,0,1,.637,1.255c0,.056-5.5.131-12.208.15l-12.227.056-1.123.524a8.006,8.006,0,0,0-3.6,3.576l-.524,1.142-.056,10.074L41.966-453.7l-1.067-.15a34.147,34.147,0,0,0-3.6-.131,13.677,13.677,0,0,0-4.381.506,18.726,18.726,0,0,0-13.238,13.407,22.222,22.222,0,0,0-.374,7.153A18.531,18.531,0,0,0,39.457-417.04c3.146-.262,7.19-1.685,7.565-2.64a1.622,1.622,0,0,0-.506-1.835c-.618-.506-.805-.487-2.6.281a14.44,14.44,0,0,1-6.329,1.255,15.27,15.27,0,0,1-12.807-6.965A15.353,15.353,0,0,1,26.668-446.4a16.4,16.4,0,0,1,7.171-4.213,18.6,18.6,0,0,1,6.179-.318c1.947.337,1.91.3,2.041,1.292a7.111,7.111,0,0,0,3.258,4.868,7.826,7.826,0,0,0,4.363,1.161h1.46l.674,1.386a13.692,13.692,0,0,1,1.46,6.759,11.01,11.01,0,0,1-.506,4.082,16.114,16.114,0,0,1-2.621,5.262c-1.049,1.367-1.18,2.284-.374,2.9a1.4,1.4,0,0,0,2.041-.131,21.244,21.244,0,0,0,3.052-4.831,16.716,16.716,0,0,0,1.423-7.284,16.751,16.751,0,0,0-1.273-7l-.468-1.142H65.016v2.94a12.03,12.03,0,0,0,.243,3.427,1.611,1.611,0,0,0,1.666.88,47.044,47.044,0,0,0,4.831-3.689l4.363-3.558h2.1c3.464,0,5.486-.9,7.078-3.183,1.255-1.816,1.255-1.741,1.255-12.732v-9.868l2.584.075A20.319,20.319,0,0,0,99.9-471.64a21,21,0,0,0,9.156-9.156,20.2,20.2,0,0,0,2.341-10.748,20.323,20.323,0,0,0-6.291-14.249,20.509,20.509,0,0,0-11.066-5.861A27.858,27.858,0,0,0,85.669-511.6ZM74.378-476.022c0,.3,3.277,2.94,4.7,3.782a22.6,22.6,0,0,0,2.865,1.4l1.517.618.056,9.886c.037,6.947-.019,10.111-.169,10.654a4.228,4.228,0,0,1-2.3,2.621c-.861.393-1.217.449-3.52.449H74.958l-3.427,2.79-3.427,2.809-.056-2.415c-.075-3.52,1.03-3.183-10.317-3.183H48.445l-.936-.449a4.634,4.634,0,0,1-2.284-2.3c-.187-.487-.243-2.865-.243-12.04,0-12.6-.037-12.171,1.18-13.463,1.329-1.386.562-1.329,15.167-1.329C69.154-476.19,74.378-476.115,74.378-476.022Z" transform="translate(-15.238)" fill="#4d87b6"/>
    <path id="Path_242" data-name="Path 242" d="M187.4-270.588a1.561,1.561,0,0,0,.094,2.116l.449.468h6.741c7.059,0,7.565-.056,7.808-.824a1.7,1.7,0,0,0-.318-1.835c-.356-.3-.992-.337-7.4-.337C187.829-271,187.792-271,187.4-270.588Z" transform="translate(-151.664 -195.828)" fill="#4d87b6"/>
    <path id="Path_243" data-name="Path 243" d="M298.43-270.569a1.481,1.481,0,0,0,.056,2.1c.431.449.562.468,2.809.468s2.378-.019,2.809-.468a1.455,1.455,0,0,0,.037-2.116c-.393-.375-.637-.412-2.865-.412C298.973-271,298.8-270.981,298.43-270.569Z" transform="translate(-241.875 -195.828)" fill="#4d87b6"/>
    <path id="Path_244" data-name="Path 244" d="M187.4-223.626a1.685,1.685,0,0,0-.019,2.078c.318.393.524.449,2.359.506,2.359.094,3.3-.112,3.614-.805a1.349,1.349,0,0,0-.169-1.666c-.374-.487-.412-.487-2.9-.487C188.023-224,187.742-223.963,187.4-223.626Z" transform="translate(-151.671 -234.028)" fill="#4d87b6"/>
    <path id="Path_245" data-name="Path 245" d="M249.974-223.626a1.666,1.666,0,0,0,.056,2.116c.431.412.431.412,7.452.412h7.04l.356-.449a1.685,1.685,0,0,0-.019-2.078c-.356-.356-.618-.374-7.452-.374C250.5-224,250.311-223.981,249.974-223.626Z" transform="translate(-202.537 -234.028)" fill="#4d87b6"/>
    <path id="Path_246" data-name="Path 246" d="M344.781-473.469c-1.123.356-1.685,1.217-1.854,2.865-.15,1.517-.824,2.79-2.415,4.606l-1.386,1.554-3.6-.019-3.6-.037-.468.468-.468.468v6.947c0,6.685.019,6.947.374,7.3s.618.375,3.895.375a17.8,17.8,0,0,0,3.707-.187c.131-.131.487-.056,1.123.225.9.431,1.049.431,7.4.431h6.479l.674-.524c1.255-.955,1.255-.955,1.255-7.546,0-5.692-.019-5.954-.393-6.628-.712-1.273-1.4-1.5-4.475-1.5-2.434,0-2.659-.037-2.546-.318a11.83,11.83,0,0,0,.337-1.7,8.4,8.4,0,0,0-.693-4.887c-.449-.9-1.423-1.891-1.835-1.891a2.771,2.771,0,0,1-.6-.094A2.351,2.351,0,0,0,344.781-473.469Zm1.123,5.711a11.194,11.194,0,0,1-.6,2.284,9.22,9.22,0,0,0-.58,2.135c-.075.768-.037.917.412,1.273.487.375.73.393,4.138.393h3.633v10.3H347.59c-5.636,0-6.2-.075-7.434-.936l-.543-.393v-3.876l.019-3.876,2.415-2.715c2.284-2.565,3.558-4.456,3.558-5.318,0-.169.094-.3.206-.3C345.961-468.788,346-468.469,345.9-467.758Zm-9.287,11.141v4.868H334v-9.737h2.621Z" transform="translate(-268.677 -31.182)" fill="#4d87b6"/>
    <path id="Path_247" data-name="Path 247" d="M13.452-471.381A15.394,15.394,0,0,0,.776-460.146a21.159,21.159,0,0,0,0,7.677,15.6,15.6,0,0,0,8.07,9.737,13.355,13.355,0,0,0,5.936,1.442,14.348,14.348,0,0,0,11.7-4.662,15.1,15.1,0,0,0-10.149-25.484A17.906,17.906,0,0,0,13.452-471.381Zm5.13,3.3a12.31,12.31,0,0,1,9.044,11.1,12.271,12.271,0,0,1-8.182,12.1,13.252,13.252,0,0,1-6.628.393A12.253,12.253,0,0,1,3.4-455.671,12.127,12.127,0,0,1,18.583-468.086Z" transform="translate(0 -32.896)" fill="#4d87b6"/>
    <path id="Path_248" data-name="Path 248" d="M41.663-424.39a4.714,4.714,0,0,0-2.6,1.442,4.909,4.909,0,0,0-1.46,3.988,5.115,5.115,0,0,0,.562,2.809,9.342,9.342,0,0,0,1.517,2.191c1.423,1.461,5.149,3.8,6.048,3.8.974,0,4.587-2.341,6.029-3.913a6,6,0,0,0,1.985-4.569,4.907,4.907,0,0,0-1.311-4.176,5.276,5.276,0,0,0-5.917-1.161l-.88.431-.843-.412A4.949,4.949,0,0,0,41.663-424.39Zm1.741,3.108c.356.168.637.374.637.449a2.137,2.137,0,0,0,.468.637,1.408,1.408,0,0,0,1.18.487c.655,0,.824-.112,1.4-.824a2.933,2.933,0,0,1,1.1-.9,2.367,2.367,0,0,1,2.1.805,2,2,0,0,1,.487,1.592c0,1.779-1.03,3.127-3.689,4.831l-1.348.861-.992-.6c-2.678-1.629-3.951-3-4.175-4.531a2.609,2.609,0,0,1,1.685-2.977,2.052,2.052,0,0,0,.431-.112A4.3,4.3,0,0,1,43.4-421.282Z" transform="translate(-30.214 -71.086)" fill="#4d87b6"/>
    <path id="Path_249" data-name="Path 249" d="M74.356-154.6c-.318.262-.487.768-.805,2.715l-.412,2.378H70.555c-2.528,0-2.584.019-3.071.487a1.051,1.051,0,0,0-.356,1.161c.187,1.18.562,1.348,3.239,1.348,2.135,0,2.322.019,2.228.318-.056.187-.15.73-.225,1.217l-.112.9H70.05c-2.172,0-2.228.019-2.6.487a1.353,1.353,0,0,0-.187,1.648c.3.637,1.049.861,2.9.861a4.788,4.788,0,0,1,1.573.131c0,.094-.131.861-.281,1.741a20.64,20.64,0,0,0-.281,2.1,1.312,1.312,0,0,0,1.479,1.273c1.1,0,1.4-.506,1.816-3.089l.337-2.153h1.18c1.142,0,1.18.019,1.086.412a21.3,21.3,0,0,0-.468,3.445c0,.955.468,1.386,1.517,1.386,1.011,0,1.255-.412,1.666-2.827.206-1.18.374-2.191.374-2.266a15.7,15.7,0,0,1,2.6-.187c3.052-.075,3.389-.225,3.389-1.554,0-1.273-.281-1.4-3.071-1.4h-2.4l.112-.9c.243-1.648.075-1.535,2.472-1.535,2.509,0,2.884-.187,2.884-1.5,0-1.273-.412-1.5-2.621-1.5-2.172,0-2,.243-1.573-2.434.3-1.723.3-1.891.019-2.322a1.568,1.568,0,0,0-2.153-.356c-.449.337-.562.637-.917,2.7-.225,1.273-.412,2.341-.412,2.359a6.554,6.554,0,0,1-2.266-.094c0-.075.131-.843.281-1.723.393-2.284.374-2.715-.206-3.164A1.528,1.528,0,0,0,74.356-154.6Zm3.483,9.306-.169,1.217H75.255l.112-.524c.056-.281.15-.824.225-1.217l.112-.693h2.322Z" transform="translate(-54.163 -290.166)" fill="#4d87b6"/>
    <path id="Path_250" data-name="Path 250" d="M347.057-124.718a12.1,12.1,0,0,0-9.737,8.763,15.039,15.039,0,0,0,.019,5.786,14.339,14.339,0,0,0,2.6,4.924,13.194,13.194,0,0,0,4.681,3.146,8.541,8.541,0,0,0,3.558.618,10.185,10.185,0,0,0,5.786-1.123,11.772,11.772,0,0,0,3.782-17.994A12.142,12.142,0,0,0,347.057-124.718Zm4.494,3.408a8.894,8.894,0,0,1,5.842,7.621,8.288,8.288,0,0,1-2.434,6.553,8.6,8.6,0,0,1-14.118-2.3c-.693-1.442-.712-1.5-.712-3.614,0-2.078.019-2.191.674-3.558A8.669,8.669,0,0,1,351.551-121.311Z" transform="translate(-273.594 -314.641)" fill="#4d87b6"/>
    <path id="Path_251" data-name="Path 251" d="M373.271-92.614c-.412.318-.449.543-.506,2.153l-.075,1.8H371.1a6.688,6.688,0,0,0-1.947.206,1.44,1.44,0,0,0-.524,1.8c.262.824.73.992,2.621.992h1.479v1.5c0,1.666.206,2.3.88,2.6a1.329,1.329,0,0,0,1.629-.187c.468-.356.487-.468.487-2.153v-1.76h1.666c2.06,0,2.64-.337,2.64-1.517,0-1.236-.412-1.479-2.528-1.479h-1.779v-1.779c0-1.535-.056-1.835-.374-2.153A1.685,1.685,0,0,0,373.271-92.614Z" transform="translate(-299.17 -340.529)" fill="#4d87b6"/>
  </g>
</svg>
