<svg xmlns="http://www.w3.org/2000/svg" width="68.691" height="68.662" viewBox="0 0 68.691 68.662">
  <g id="office-building" transform="translate(0 512)">
    <path id="Path_149" data-name="Path 149" d="M6.708-511.826a4.277,4.277,0,0,0-1.985,2.053c-.121.429-.161,7.244-.161,29.889v29.326H3.85a3.582,3.582,0,0,0-3.85,3.7,2.989,2.989,0,0,0,.349,1.637,3.691,3.691,0,0,0,2.066,1.771c.335.094,11.215.121,32.21.107,30.037-.04,31.74-.054,32.143-.282a4.276,4.276,0,0,0,1.663-1.757,4.3,4.3,0,0,0-.067-3.112,3.761,3.761,0,0,0-3.528-2.066h-.711L64.1-466.509l-.04-15.951-.416-.523c-.832-1.033-.188-.979-10.813-.979h-9.5V-496.68c0-12.49-.013-12.718-.282-13.308a3.156,3.156,0,0,0-1.663-1.69L40.715-512l-16.769.013C12.127-511.973,7.043-511.933,6.708-511.826ZM40.8-509.465l.389.389v25.113h-9.3l-.577.335a2.313,2.313,0,0,0-.912,1.033l-.349.7v11.966c0,11.9,0,11.953.282,12.315a1.151,1.151,0,0,0,1.6.08c.268-.268.268-.443.268-12.114,0-7.217.054-11.913.134-12.033.107-.174,1.9-.2,14.623-.241,9.927-.013,14.582.013,14.757.107.268.148.268.389.268,15.7v15.562H32.2V-452.3c0-1.57-.027-1.771-.268-2.012a1.151,1.151,0,0,0-1.6.081c-.255.322-.282.537-.282,2.012v1.664H6.708v-58.517l.389-.389.389-.389H40.407Zm24.939,61.254a1.459,1.459,0,0,1,.04,2.6c-.416.215-62.448.215-62.864,0a1.362,1.362,0,0,1-.765-1.234,1.278,1.278,0,0,1,.711-1.3c.416-.268.966-.268,31.459-.268C61.589-448.412,65.386-448.385,65.735-448.211Z" fill="#4d87b6"/>
    <path id="Path_150" data-name="Path 150" d="M72.482-466.609a2.33,2.33,0,0,0-1.328,1.489,26.6,26.6,0,0,0-.04,2.884c.04,2.67.08,2.79.966,3.448.335.255.59.282,2.871.322,2.911.054,3.34-.04,3.971-.818l.416-.523v-2.764c0-3.072-.027-3.179-.926-3.823-.389-.282-.563-.3-2.965-.322A19.722,19.722,0,0,0,72.482-466.609Zm4.776,4.011v2.012H73.233v-4.025h4.025Z" transform="translate(-61.562 -39.206)" fill="#4d87b6"/>
    <path id="Path_151" data-name="Path 151" d="M149.073-466.691c-.993.523-1.073.818-1.073,3.85s.08,3.34,1.073,3.85c.55.282.765.309,3.032.309s2.468-.027,3.005-.309c1.02-.537,1.087-.8,1.046-3.984-.04-3.112-.08-3.233-1.127-3.756-.483-.241-.8-.268-2.965-.268C149.811-467,149.61-466.973,149.073-466.691Zm4.964,3.85v2.012h-3.89v-4.025h3.89Z" transform="translate(-128.145 -38.963)" fill="#4d87b6"/>
    <path id="Path_152" data-name="Path 152" d="M225.482-466.609a2.33,2.33,0,0,0-1.328,1.489,26.6,26.6,0,0,0-.04,2.884c.04,2.67.08,2.79.966,3.448.335.255.59.282,2.871.322,2.911.054,3.34-.04,3.971-.818l.416-.523v-2.764c0-3.072-.027-3.179-.926-3.823-.389-.282-.563-.3-2.965-.322A19.722,19.722,0,0,0,225.482-466.609Zm4.776,4.011v2.012h-4.025v-4.025h4.025Z" transform="translate(-194.037 -39.206)" fill="#4d87b6"/>
    <path id="Path_153" data-name="Path 153" d="M72.033-372.7c-.9.523-1.033,1.02-1.033,3.81,0,2.737.148,3.314.966,3.81.4.241.671.268,3.193.268,2.71,0,2.764,0,3.246-.335.818-.563.939-1.087.885-4-.04-2.764-.08-2.9-1.046-3.555-.416-.282-.563-.3-3.072-.3C72.717-373,72.5-372.973,72.033-372.7Zm5.138,3.8v1.945H73.146v-3.89h4.025Z" transform="translate(-61.475 -120.353)" fill="#4d87b6"/>
    <path id="Path_154" data-name="Path 154" d="M149.073-372.655a2.37,2.37,0,0,0-.765.7c-.3.429-.309.577-.309,3.153,0,2.455.027,2.737.268,3.139.55.9.832.966,3.823.966,2.442,0,2.723-.027,3.126-.268.885-.55.966-.832.966-3.756,0-2.884-.081-3.246-.845-3.81-.349-.255-.59-.282-3.085-.322C149.878-372.883,149.489-372.856,149.073-372.655Zm4.964,3.864v1.945h-3.89v-3.89h3.89Z" transform="translate(-128.145 -120.47)" fill="#4d87b6"/>
    <path id="Path_155" data-name="Path 155" d="M225.033-372.7c-.9.523-1.033,1.02-1.033,3.81,0,2.737.148,3.314.966,3.81.4.241.671.268,3.193.268,3.193,0,3.434-.067,3.9-1.154.255-.55.268-.845.228-3.139-.04-2.8-.08-2.938-1.046-3.6-.416-.282-.563-.3-3.072-.3C225.717-373,225.5-372.973,225.033-372.7Zm5.138,3.8v1.945h-4.025v-3.89h4.025Z" transform="translate(-193.95 -120.353)" fill="#4d87b6"/>
    <path id="Path_156" data-name="Path 156" d="M72.068-278.745c-.872.523-.939.751-.979,3.609-.04,2.388-.027,2.629.228,3.153a2.018,2.018,0,0,0,.818.885c.51.282.644.3,3.206.255,2.455-.04,2.71-.067,3.045-.322.885-.657.926-.778.966-3.542.04-2.294.027-2.589-.228-3.139-.47-1.087-.711-1.154-3.9-1.154C72.779-279,72.43-278.973,72.068-278.745Zm5.165,3.837v1.945H73.209v-3.89h4.025Z" transform="translate(-61.537 -201.743)" fill="#4d87b6"/>
    <path id="Path_157" data-name="Path 157" d="M149.207-278.838a1.913,1.913,0,0,0-.51.362c-.644.577-.7.832-.7,3.676,0,2.549.013,2.7.309,3.126.577.859.9.939,3.944.9,2.5-.04,2.737-.067,3.085-.322.765-.563.845-.926.845-3.81,0-2.924-.081-3.206-.966-3.756-.4-.241-.671-.268-3.126-.255C150.616-278.918,149.315-278.878,149.207-278.838Zm4.829,4v1.945h-3.89v-3.89h3.89Z" transform="translate(-128.145 -201.811)" fill="#4d87b6"/>
    <path id="Path_158" data-name="Path 158" d="M258.4-263.692a1.88,1.88,0,0,0-1.087.818c-.255.4-.268.617-.228,2.992l.04,2.576.5.456.51.456h2.549c3.837,0,3.823.013,3.823-3.622,0-2.16-.027-2.535-.241-2.857-.5-.765-.751-.832-3.314-.859C259.665-263.746,258.511-263.732,258.4-263.692Zm4.025,3.609v1.543h-3.22v-3.085h3.22Z" transform="translate(-222.585 -214.958)" fill="#4d87b6"/>
    <path id="Path_159" data-name="Path 159" d="M324.334-263.771a1.885,1.885,0,0,0-1.181,1.529,22.764,22.764,0,0,0-.04,2.576c.081,3.072.134,3.126,3.864,3.126h2.549l.51-.456.5-.456.04-2.576c.04-2.4.027-2.589-.241-3.005-.456-.751-1.02-.885-3.461-.872A17.341,17.341,0,0,0,324.334-263.771Zm4.118,3.542v1.543h-3.22v-3.086h3.22Z" transform="translate(-279.755 -214.811)" fill="#4d87b6"/>
    <path id="Path_160" data-name="Path 160" d="M391.328-263.636c-1.207.389-1.328.724-1.328,3.635,0,2.482.067,2.8.751,3.34.335.268.523.282,2.938.282,2.455,0,2.6-.013,3.032-.309.657-.443.778-.926.778-3.381.013-2.361-.094-2.8-.832-3.34-.349-.255-.59-.282-2.683-.309A21.366,21.366,0,0,0,391.328-263.636Zm4.038,3.568v1.543h-3.22v-3.085h3.22Z" transform="translate(-337.681 -214.973)" fill="#4d87b6"/>
    <path id="Path_161" data-name="Path 161" d="M257.643-201.544l-.5.456-.04,2.522c-.054,2.777.013,3.1.7,3.582.389.282.55.3,2.965.3,2.227,0,2.6-.027,2.925-.241.778-.51.832-.724.832-3.448,0-3.636.013-3.622-3.823-3.622h-2.549Zm4.8,3.233v1.543h-3.22v-3.086h3.22Z" transform="translate(-222.603 -268.413)" fill="#4d87b6"/>
    <path id="Path_162" data-name="Path 162" d="M324.359-201.8c-.792.429-.859.711-.859,3.421s.054,2.938.832,3.448c.322.215.7.241,2.925.241,2.415,0,2.576-.013,2.965-.3.684-.483.751-.8.7-3.582l-.04-2.522-.5-.456-.51-.456H327.3A9.477,9.477,0,0,0,324.359-201.8Zm4.44,3.488v1.543h-3.22v-3.086h3.22Z" transform="translate(-280.102 -268.413)" fill="#4d87b6"/>
    <path id="Path_163" data-name="Path 163" d="M390.751-201.718c-.684.537-.751.859-.751,3.34,0,2.75.107,3.1,1.046,3.515.523.241.832.255,2.911.215,2.106-.04,2.361-.067,2.71-.322.738-.537.845-.979.832-3.34,0-2.455-.121-2.938-.778-3.381-.429-.3-.577-.309-3.032-.309C391.274-202,391.087-201.987,390.751-201.718Zm4.615,3.407v1.543h-3.22v-3.086h3.22Z" transform="translate(-337.681 -268.413)" fill="#4d87b6"/>
    <path id="Path_164" data-name="Path 164" d="M72.274-185.612a2.276,2.276,0,0,0-1.127,1.194,16.578,16.578,0,0,0-.148,2.79c0,2.737.08,3.085.885,3.689l.5.389,2.482.04c2.857.054,3.394-.067,4.025-.885l.362-.47v-2.79c0-2.6-.013-2.8-.282-3.153-.657-.9-.765-.926-3.649-.952A10.1,10.1,0,0,0,72.274-185.612Zm4.9,3.971v2.012H73.146v-4.025h4.025Z" transform="translate(-61.475 -282.467)" fill="#4d87b6"/>
    <path id="Path_165" data-name="Path 165" d="M149.073-185.7c-.993.51-1.073.8-1.073,3.837,0,2.951.08,3.3.926,3.81.456.3.617.309,3.166.309,3.032,0,3.273-.067,3.81-1.006.255-.47.282-.711.282-3.112,0-3.018-.081-3.327-1.073-3.837-.55-.268-.765-.3-3.018-.3S149.623-185.973,149.073-185.7Zm4.964,3.864v2.012h-3.89v-4.025h3.89Z" transform="translate(-128.145 -282.266)" fill="#4d87b6"/>
    <path id="Path_166" data-name="Path 166" d="M257.845-140.732c-.765.456-.845.792-.845,3.448,0,2.133.027,2.428.268,2.817.483.792.792.872,3.622.818l2.535-.04.416-.4c.59-.563.7-1.167.644-3.542-.067-3.273-.174-3.367-3.823-3.367C258.529-141,258.234-140.973,257.845-140.732Zm4.521,3.421v1.543h-3.22v-3.086h3.22Z" transform="translate(-222.523 -321.23)" fill="#4d87b6"/>
    <path id="Path_167" data-name="Path 167" d="M324.087-140.9c-.778.389-.926.818-.966,3.153-.054,2.374.054,2.978.644,3.542l.416.4,2.535.04c2.831.054,3.139-.027,3.622-.818.241-.389.268-.684.268-2.844,0-2.683-.094-3.059-.926-3.488A17.394,17.394,0,0,0,324.087-140.9Zm4.373,3.475v1.543h-3.22v-3.085h3.22Z" transform="translate(-279.763 -321.11)" fill="#4d87b6"/>
    <path id="Path_168" data-name="Path 168" d="M390.845-140.732c-.765.456-.845.792-.845,3.448,0,3.582.081,3.662,3.77,3.662,2.71,0,3.032-.094,3.475-1.02.268-.537.282-.765.242-2.9-.067-3.421-.107-3.461-3.823-3.461C391.529-141,391.234-140.973,390.845-140.732Zm4.521,3.421v1.543h-3.22v-3.086h3.22Z" transform="translate(-337.681 -321.23)" fill="#4d87b6"/>
    <path id="Path_169" data-name="Path 169" d="M361.31-493.523a8.753,8.753,0,0,0-7.056,6.426,13.143,13.143,0,0,0,.215,5.3,18.1,18.1,0,0,0,5.514,7.928c1.771,1.516,2.415,1.771,3.407,1.4.926-.349,4-3.3,5.192-4.964,1.207-1.7,2.388-4.32,2.388-5.3a1.168,1.168,0,0,0-1.033-1.006c-.6,0-.952.335-1.194,1.181a15.3,15.3,0,0,1-4.306,6.466c-1.731,1.637-1.744,1.65-2.549.993a22.742,22.742,0,0,1-3.421-3.609,13.973,13.973,0,0,1-2.066-4.306,8.862,8.862,0,0,1-.161-2.307,4.321,4.321,0,0,1,.55-2.348,6.5,6.5,0,0,1,6.721-3.729,6.668,6.668,0,0,1,5.031,3.81,4.282,4.282,0,0,0,.751,1.221,1.217,1.217,0,0,0,1.194-.2c.523-.4.47-1.06-.188-2.348A8.6,8.6,0,0,0,361.31-493.523Z" transform="translate(-306.576 -15.915)" fill="#4d87b6"/>
    <path id="Path_170" data-name="Path 170" d="M385.72-464.61a4.969,4.969,0,0,0-2.844,2.549,3.474,3.474,0,0,0-.376,2.039,3.606,3.606,0,0,0,.376,2.106,5.269,5.269,0,0,0,2.616,2.388,5.844,5.844,0,0,0,3.354.081,4.849,4.849,0,0,0,3.059-5.715,4.6,4.6,0,0,0-2.549-3.179,3.672,3.672,0,0,0-1.892-.4A6,6,0,0,0,385.72-464.61Zm2.723,2.254a2.742,2.742,0,0,1,1.368,3.032,2.628,2.628,0,0,1-4.226,1.342A2.627,2.627,0,0,1,388.443-462.356Z" transform="translate(-331.187 -40.91)" fill="#4d87b6"/>
  </g>
</svg>
