<svg xmlns="http://www.w3.org/2000/svg" width="77.23" height="77.229" viewBox="0 0 77.23 77.229">
  <g id="project-management" transform="translate(0 511.778)">
    <path id="Path_61" data-name="Path 61" d="M97.248-511.47a10.786,10.786,0,0,0-1.154.374c-.062.062,2.48,10.107,2.636,10.356.078.125.39.094,1.185-.094a5.714,5.714,0,0,0,1.2-.374c.109-.094-1.9-8.422-2.48-10.341C98.543-511.86,98.621-511.875,97.248-511.47Z" transform="translate(-81.631 0)" fill="#fff"/>
    <path id="Path_62" data-name="Path 62" d="M53.578-509.759c-.528.362-.618.649-1.011,3.381a27.88,27.88,0,0,1-.528,2.883,1.3,1.3,0,0,1-1.358.664c-.392-.091-.784-.528-2.2-2.415-1.825-2.445-2.232-2.777-2.972-2.505a22.479,22.479,0,0,0-2.323,1.615l-1.931,1.449-1.373-.091a24.155,24.155,0,0,0-12.082,2.6,22.379,22.379,0,0,0-6.154,4.482A24.143,24.143,0,0,0,14.6-483.272c-.166,1.419-.2,1.494-.543,1.494a1.376,1.376,0,0,0-.769.408c-.347.362-.483.755-.845,2.566a9.609,9.609,0,0,1-.573,2.158c-.06,0-.905-.558-1.885-1.238-2.534-1.781-2.338-1.826-5.159,1.026-1.916,1.917-2.263,2.339-2.263,2.716A6.722,6.722,0,0,0,3.846-471.8c.709,1.026,1.282,1.9,1.282,1.947a14.9,14.9,0,0,1-2.142.528c-1.825.362-2.217.5-2.564.845L0-468.074v5.946l.422.407c.347.347.739.483,2.519.845,1.161.241,2.142.453,2.172.483a15.31,15.31,0,0,1-1.252,2.007c-1.192,1.751-1.327,1.992-1.237,2.445.075.393.588,1,2.247,2.656,2.791,2.792,2.579,2.747,5.068,1.026,1.041-.709,1.916-1.3,1.976-1.3a14.924,14.924,0,0,1,.528,2.143c.362,1.826.5,2.219.845,2.566l.407.423h5.943l.407-.423c.347-.347.483-.739.845-2.566a14.925,14.925,0,0,1,.528-2.143c.06,0,.935.589,1.976,1.3,2.338,1.615,2.413,1.615,4,.045l1.086-1.072.06,2.385c.045,2.052.106,2.505.377,3.109a5.041,5.041,0,0,0,1.629,2.1l.513.347.045,4.165.045,4.15.422.906a5.207,5.207,0,0,0,2.579,2.6c.905.408.98.423,4.088.468,3.439.06,4.6-.075,5.581-.649a5.686,5.686,0,0,0,2.172-2.339c.392-.83.392-.86.437-5.056l.06-4.226.588-.423a4.771,4.771,0,0,0,1.056-1.132c.784-1.237.89-1.871.89-5.312,0-5,.453-6.037,3.53-8.225,2.021-1.434,2.413-1.8,2.263-2.068a9.114,9.114,0,0,0-.83-.981l-.679-.77-.528.438c-.272.241-1.146.891-1.916,1.449a9.433,9.433,0,0,0-3.982,5.026c-.287.86-.332,1.449-.407,4.769l-.09,3.788-.422.543c-.8,1.041-.634,1.026-7.316.981l-5.988-.045-.5-.347c-.95-.694-1-.906-1.1-5.161-.091-4.316-.211-4.875-1.327-6.6a10.514,10.514,0,0,0-3.183-3.064,22.356,22.356,0,0,1-4.1-3.577,22.3,22.3,0,0,1-5.264-10.836,30.469,30.469,0,0,1,.075-7.772A21.8,21.8,0,0,1,28-499.466a22.267,22.267,0,0,1,9.307-2.762c1.116-.091,1.161-.075,1.161.226,0,.453.151.709,1.9,3.049,1.614,2.173,1.84,2.7,1.373,3.305s-.724.619-3.65.2c-3.077-.438-3.5-.407-3.831.362a65.86,65.86,0,0,0-1.177,8.512c.181.679.679.875,3.349,1.268,1.373.2,2.67.407,2.881.453a1.264,1.264,0,0,1,.543,1.962,27.832,27.832,0,0,1-2.383,1.917c-2.142,1.6-2.323,1.8-2.323,2.445a53.707,53.707,0,0,0,5.264,7.154c.649.347,1.041.181,3.288-1.494a21.107,21.107,0,0,1,2.564-1.751,1.347,1.347,0,0,1,1.4.574c.2.362.181.679-.136,2.943a27.239,27.239,0,0,0-.287,3.124c.075,1,.362,1.1,4.359,1.675,4.193.619,4.842.649,5.264.226.362-.362.377-.408.83-3.547.332-2.354.392-2.6.754-2.913a1.314,1.314,0,0,1,1.358-.242,17.633,17.633,0,0,1,1.84,2.234c.875,1.162,1.72,2.249,1.885,2.385.709.619,1.1.438,4.646-2.219,3.349-2.52,3.741-2.913,3.56-3.622a21.449,21.449,0,0,0-1.72-2.505,26.568,26.568,0,0,1-1.75-2.505,1.291,1.291,0,0,1,.588-1.343c.377-.241.543-.241,3.243.136,2.926.407,3.334.407,3.756-.106.181-.211,1.358-7.546,1.373-8.5a1.408,1.408,0,0,0-.332-.724c-.317-.362-.573-.423-3.273-.815a14.11,14.11,0,0,1-3.122-.649,1.531,1.531,0,0,1-.3-1.494,14.277,14.277,0,0,1,2.2-1.9c2.263-1.72,2.715-2.158,2.715-2.686a17.741,17.741,0,0,0-2.278-3.426c-2.881-3.863-2.911-3.894-3.62-3.894-.483,0-.89.242-2.806,1.66a21.139,21.139,0,0,1-2.564,1.751,1.216,1.216,0,0,1-1.342-.815,8.1,8.1,0,0,1,.2-2.867c.422-2.973.422-3.245.015-3.728-.332-.377-.558-.423-4.42-.981-2.232-.332-4.148-.6-4.223-.6A1.2,1.2,0,0,0,53.578-509.759Zm6.712,3.29a10.42,10.42,0,0,1-.181,1.781c-.362,2.43-.332,3.23.136,4.15a3.8,3.8,0,0,0,4.993,1.751c.241-.136,1.192-.77,2.082-1.449a13.2,13.2,0,0,1,1.674-1.147c.6.77,2.836,3.8,2.881,3.954.045.106-.558.649-1.373,1.238-2.383,1.736-2.956,2.566-2.956,4.226a3.739,3.739,0,0,0,2.263,3.486,18.392,18.392,0,0,0,2.579.528c1.116.151,2.051.317,2.082.332.015.03-.136,1.132-.332,2.445-.211,1.328-.377,2.46-.377,2.505a11.675,11.675,0,0,1-1.916-.2,16.751,16.751,0,0,0-2.7-.226,3.822,3.822,0,0,0-3.379,4.588,6.788,6.788,0,0,0,1.523,2.626c.739.981,1.342,1.826,1.342,1.856s-.905.74-2.021,1.57l-2.021,1.524-1.342-1.766c-1.72-2.264-2.308-2.671-3.952-2.671a3.34,3.34,0,0,0-2.941,1.313c-.649.755-.905,1.57-1.161,3.7a11.879,11.879,0,0,1-.287,1.72c-.091.121-.724.091-2.549-.166-2.806-.407-2.549-.136-2.2-2.415.332-2.2.3-2.988-.2-3.939a3.718,3.718,0,0,0-3.741-2.052c-1,.106-1.433.332-3.349,1.781l-1.584,1.192-1.478-1.992c-.83-1.087-1.493-2.037-1.493-2.083a12.559,12.559,0,0,1,1.659-1.358,14.1,14.1,0,0,0,2.036-1.811,3.856,3.856,0,0,0-1.192-5.509A8.457,8.457,0,0,0,38-487.694c-1.192-.166-2.187-.332-2.217-.347a48.6,48.6,0,0,1,.709-4.935,10.258,10.258,0,0,1,2.127.2c2.715.392,3.665.211,4.812-.936a3.325,3.325,0,0,0,1.041-2.415c.09-1.283-.181-1.887-1.7-3.909a8.392,8.392,0,0,1-1.1-1.66c.045-.121,3.816-3.018,3.952-3.018.03,0,.634.785,1.358,1.736a12,12,0,0,0,1.87,2.1,3.755,3.755,0,0,0,4.887-.589c.679-.694.935-1.419,1.252-3.7.136-.951.272-1.811.3-1.9.03-.121.8-.06,2.5.2C59.129-506.68,60.26-506.5,60.29-506.468ZM15.446-473.643c.136.453.241.845.241.86a5.018,5.018,0,0,1-.784.211,7.987,7.987,0,0,0-5.928,6.746,7.855,7.855,0,0,0,3.515,7.2A7.676,7.676,0,0,0,23-460.845l.483-.724.437.362c.241.181.89.664,1.433,1.057a7.632,7.632,0,0,1,2.549,2.777l.332.694-1.373,1.373-1.358,1.358-1.523-1.026a10.469,10.469,0,0,0-2.1-1.177,2.528,2.528,0,0,0-2.791,1.358,16.28,16.28,0,0,0-.558,2.1l-.347,1.705H15.129l-.256-1.283c-.543-2.747-1-3.486-2.353-3.848-.875-.241-1.463-.015-3.2,1.162l-1.493,1.011L6.682-455.11l-1.161-1.147,1.026-1.509a9.553,9.553,0,0,0,1.146-2.083,2.548,2.548,0,0,0-1.825-2.973c-.407-.121-1.327-.347-2.021-.483l-1.282-.257v-3.079l1.689-.347a11.932,11.932,0,0,0,2.1-.543,2.7,2.7,0,0,0,1.358-2.792,9.613,9.613,0,0,0-1.131-2.022,15.949,15.949,0,0,1-1-1.569,12.316,12.316,0,0,1,1.131-1.223l1.116-1.117,1.584,1.087c1.72,1.162,2.278,1.358,3.2,1.1a2.792,2.792,0,0,0,1.946-2.354c.121-.6.121-.589.377.679C15.084-475.032,15.31-474.1,15.446-473.643Zm1.689,4.271a23.839,23.839,0,0,0,3.515,5.086l.83.951-.362.679a5.6,5.6,0,0,1-2.685,2.309,4.154,4.154,0,0,1-2.066.272,4.764,4.764,0,0,1-4.329-2.958,3.386,3.386,0,0,1-.392-2.264,4.961,4.961,0,0,1,.407-2.007,5.065,5.065,0,0,1,4.118-2.837C16.713-470.157,16.758-470.112,17.135-469.372Zm26.759,26v1.283H33.637v-1.177a4.453,4.453,0,0,1,.106-1.283c.045-.06,2.353-.106,5.129-.106h5.023Zm0,4.784a2.843,2.843,0,0,1-1.161,2.536c-.543.377-.618.377-3.8.423-3.665.045-3.907-.015-4.736-1.041a2.368,2.368,0,0,1-.513-1.464c-.136-1.509-.588-1.388,5.159-1.388h5.053Z" transform="translate(0 -1.501)" fill="#fff"/>
    <path id="Path_63" data-name="Path 63" d="M306.076-430.639a10.527,10.527,0,0,0-7.3,5.724,9.473,9.473,0,0,0-1.076,4.726,10.155,10.155,0,0,0,3.088,7.346,8.043,8.043,0,0,0,2.745,1.981,9.049,9.049,0,0,0,4.9,1.107,8.276,8.276,0,0,0,2.963-.421,10.559,10.559,0,0,0,6.41-5.63,10.643,10.643,0,0,0-2.48-12.337,12.167,12.167,0,0,0-4.866-2.5A11.507,11.507,0,0,0,306.076-430.639Zm4.04,2.651a8.18,8.18,0,0,1,5.818,5.771,7.937,7.937,0,0,1-2.137,7.533,7.8,7.8,0,0,1-11.152-.047,7.742,7.742,0,0,1,.062-11.136A7.725,7.725,0,0,1,310.115-427.988Z" transform="translate(-253.344 -68.859)" fill="#fff"/>
    <path id="Path_64" data-name="Path 64" d="M23.759-463.986a5.882,5.882,0,0,0-.671,1.076c.561.437,8.984,6.379,9.109,6.426a6.951,6.951,0,0,0,1.606-2.043c-.359-.312-9.093-6.473-9.187-6.473A5.072,5.072,0,0,0,23.759-463.986Z" transform="translate(-19.485 -39.482)" fill="#fff"/>
    <path id="Path_65" data-name="Path 65" d="M145.886-414.3a18.773,18.773,0,0,0-7.268,11.308,18.6,18.6,0,0,0,7.471,18.794,30.622,30.622,0,0,0,3.587,2.028c2.152,1.045,2.433,1.232,3.385,2.23a8.119,8.119,0,0,1,2.184,4.133c.3,1.856.125,1.669,1.575,1.669h1.295L158-375.2a9.346,9.346,0,0,0-.764-3.151,10.571,10.571,0,0,0-2.464-3.65,11.178,11.178,0,0,0-3.915-2.558,16.692,16.692,0,0,1-5.053-3.307,16.032,16.032,0,0,1-4.8-9.67,15.95,15.95,0,0,1,6.145-14.4,4.722,4.722,0,0,0,1.045-.9,19.481,19.481,0,0,0-1.31-2.168C146.869-415,146.416-414.688,145.886-414.3Z" transform="translate(-117.633 -82.682)" fill="#fff"/>
    <path id="Path_66" data-name="Path 66" d="M14.549-380.621c-2.761.7-5.053,1.326-5.116,1.373a8.338,8.338,0,0,0,.546,2.371c.078.094,9.389-2.106,10.4-2.464a4.8,4.8,0,0,0-.639-2.558C19.65-381.9,17.31-381.308,14.549-380.621Z" transform="translate(-7.952 -110.318)" fill="#fff"/>
    <path id="Path_67" data-name="Path 67" d="M419-193.674v1.326h9.2V-195H419Z" transform="translate(-356.276 -269.019)" fill="#fff"/>
    <path id="Path_68" data-name="Path 68" d="M406.222-149.231c-.452.561-.764,1.076-.686,1.139s1.856,1.544,3.946,3.291l3.821,3.166.827-.92a6.428,6.428,0,0,0,.827-1.029c0-.094-6.254-5.381-7.658-6.473C407.095-150.229,406.923-150.1,406.222-149.231Z" transform="translate(-344.901 -307.284)" fill="#fff"/>
    <path id="Path_69" data-name="Path 69" d="M249-134.05v1.95h2.651V-136H249Z" transform="translate(-211.485 -319.156)" fill="#fff"/>
    <path id="Path_70" data-name="Path 70" d="M368-123.405v4.679h2.651l-.031-4.648-.047-4.632-1.279-.047L368-128.1Z" transform="translate(-312.556 -326.411)" fill="#fff"/>
  </g>
</svg>
