<svg xmlns="http://www.w3.org/2000/svg" width="77.727" height="77.729" viewBox="0 0 77.727 77.729">
  <g id="report" transform="translate(0.25 512.26)">
    <path id="Path_116" data-name="Path 116" d="M1.192-511.662a3.74,3.74,0,0,0-.845.845L0-510.3v65.522l.347.513c.633.935,1.192,1.192,2.609,1.192H4.223v1.131a2.846,2.846,0,0,0,.89,2.534,3.635,3.635,0,0,0,2.443.709h.86l.06,1.1a2.791,2.791,0,0,0,.452,1.72c.784,1.192-.754,1.1,19.819,1.1H47.12l5.52-5.505,5.505-5.505.045-5.792.045-5.792,1.237-.106c.679-.045,1.659-.166,2.157-.241,2.443-.362,6.229-1.87,6.561-2.609a1.286,1.286,0,0,0-.98-1.75,7.274,7.274,0,0,0-1.614.588,16.071,16.071,0,0,1-14.239-.121,18.238,18.238,0,0,1-2.459-1.463l-.965-.709,5.49-5.49c3-3,5.536-5.475,5.626-5.475.287,0,14.631,3.816,14.751,3.922.3.272-1.1,2.956-2.489,4.766-.845,1.116-.935,1.674-.347,2.247.845.86,1.6.407,3.167-1.961a17.567,17.567,0,0,0,3.092-10.513,17.982,17.982,0,0,0-5.1-12.821,18.661,18.661,0,0,0-12.579-5.777l-1.478-.106v-3.514c0-3.394-.015-3.514-.347-4.012-.634-.935-1.192-1.192-2.609-1.192H53.847v-1.1c0-2.036-.95-2.971-3.032-2.971H49.654l-.045-1.252a2.913,2.913,0,0,0-.468-1.87c-.784-1.192,1.312-1.1-24.45-1.1H1.7Zm45.778,2.006c.181.075.241.317.241.98v.89l-13.364.03-13.379.045-.3.407a.913.913,0,0,0-.166.98,1.1,1.1,0,0,0,.513.754c.3.151,3.665.2,15.656.2H51.434v1.659h-41.1l-.588.347a2.627,2.627,0,0,0-.95,1l-.347.664v60.6l-.86-.045-.875-.045-.045-32.082-.03-32.082,4.374-.045c4.827-.045,4.751-.03,4.917-1.041a1.058,1.058,0,0,0-.241-.935l-.317-.407H10.754c-4.495,0-4.615.015-5.2.332a3.1,3.1,0,0,0-.965.965l-.362.618v60.379H2.413v-32.037c0-25.491.045-32.052.2-32.112C2.881-509.761,46.683-509.761,46.969-509.656Zm8.748,8.6c.045.136.09,1.614.09,3.288v3.062l-.633.091a20.673,20.673,0,0,0-4.631,1.478,18.91,18.91,0,0,0-9.729,10.89,16.263,16.263,0,0,0-.92,6.064,16.249,16.249,0,0,0,1.011,6.26,18.71,18.71,0,0,0,10.2,10.95,21.588,21.588,0,0,0,4.419,1.267c.271,0,.287.211.287,5.053v5.038l-4.419.045-4.434.045-.558.437c-1.086.814-1.146,1.131-1.146,5.852v4.193H28.3c-9.321,0-17.059-.045-17.195-.09-.226-.091-.241-3.047-.241-32.022,0-17.572.045-31.992.106-32.037.045-.06,10.121-.106,22.384-.106C53.516-501.3,55.627-501.285,55.718-501.058Zm5.068,8.733c1.84.272,3.258.709,3.2.98-.03.121-1.478,3.409-3.228,7.3l-3.183,7.1-5.686,5.717-5.7,5.717-.769-1.041a16.322,16.322,0,0,1,6.953-24.707A15.1,15.1,0,0,1,60.786-492.325Zm6.848,2.594a19.739,19.739,0,0,1,4.751,4.932,17.426,17.426,0,0,1,2.157,5.52,13.458,13.458,0,0,1,.241,3.65,16.637,16.637,0,0,1-.151,2.308c-.106.106-14-3.514-14.193-3.7-.136-.121,5.792-13.424,5.988-13.424A9.042,9.042,0,0,1,67.634-489.731ZM51-442.188c-1.584,1.644-2.986,3.077-3.107,3.183-.2.166-.226-.166-.226-2.9a24.881,24.881,0,0,1,.106-3.183,23.794,23.794,0,0,1,3.107-.106h3Z" transform="translate(0 0)" fill="#4d87b6" stroke="#fff" stroke-width="0.5"/>
    <path id="Path_117" data-name="Path 117" d="M114.295-388.683a1.294,1.294,0,0,0-.09,1.795c.3.3.5.3,11.916.3s11.614,0,11.916-.3a1.234,1.234,0,0,0,.3-.9,1.234,1.234,0,0,0-.3-.9c-.3-.3-.5-.3-11.825-.3C114.793-389,114.687-389,114.295-388.683Z" transform="translate(-96.708 -104.456)" fill="#4d87b6" stroke="#fff" stroke-width="0.5"/>
    <path id="Path_118" data-name="Path 118" d="M114.318-333.6a1.3,1.3,0,0,0-.106,1.81c.3.3.5.3,9.352.3s9.05,0,9.352-.3a1.628,1.628,0,0,0,.091-1.75c-.211-.272-.513-.287-9.261-.332C114.771-333.9,114.71-333.9,114.318-333.6Z" transform="translate(-96.716 -151.259)" fill="#4d87b6" stroke="#fff" stroke-width="0.5"/>
    <path id="Path_119" data-name="Path 119" d="M114.295-278.683a1.294,1.294,0,0,0-.09,1.795c.287.287.5.3,8.145.3s7.858-.015,8.145-.3a1.687,1.687,0,0,0,.181-1.6c-.317-.483-.784-.513-8.371-.513C114.838-279,114.687-279,114.295-278.683Z" transform="translate(-96.708 -197.865)" fill="#4d87b6" stroke="#fff" stroke-width="0.5"/>
    <path id="Path_120" data-name="Path 120" d="M122.184-194.787a1.037,1.037,0,0,0-.483.528,28.469,28.469,0,0,0-.151,3.861v3.454h-2.4c-2.187,0-2.428.03-2.79.317l-.392.3v8.733h-.6a1.215,1.215,0,0,0-1.071,1.976l.287.362,10.769.045c7.587.03,10.875-.015,11.162-.136a1.219,1.219,0,0,0,.226-2.021,1.884,1.884,0,0,0-.89-.226h-.573v-11.6l-.392-.3c-.362-.287-.6-.317-2.79-.317h-2.4v-2.036c0-2.172-.121-2.655-.709-2.926A39.389,39.389,0,0,0,122.184-194.787Zm5.1,9.729v7.466h-3.318v-14.932h3.318Zm5.581,2.564v4.9H129.7v-9.8h3.167Zm-11.312,1.433v3.469h-3.167v-6.938h3.167Z" transform="translate(-96.814 -269.257)" fill="#4d87b6" stroke="#fff" stroke-width="0.5"/>
  </g>
</svg>
