<svg xmlns="http://www.w3.org/2000/svg" width="78.248" height="78.3" viewBox="0 0 78.248 78.3">
  <g id="team-leader" transform="translate(-15.436 496.556)">
    <path id="Path_121" data-name="Path 121" d="M226.889-495.685a5.251,5.251,0,0,0-1.753,8.542,5.354,5.354,0,0,0,7.4,0c2.574-2.59,1.641-7.271-1.689-8.51A6.286,6.286,0,0,0,226.889-495.685Zm3.2,2.751a2.43,2.43,0,0,1-1.255,4.5,2.37,2.37,0,0,1-2.413-2.413,2.436,2.436,0,0,1,1.158-2.091,2.639,2.639,0,0,1,1.255-.322A2.639,2.639,0,0,1,230.09-492.934Z" transform="translate(-174.235 0)" fill="#4d87b6" stroke="#fff" stroke-width="1"/>
    <path id="Path_122" data-name="Path 122" d="M99.145-444.9c-4.858,2.252-8.944,4.215-9.041,4.376a1.4,1.4,0,0,0,1.013,2.14c.643,0,18.194-8.027,18.532-8.478a1.412,1.412,0,0,0-1.126-2.14C108.169-448.984,104.92-447.568,99.145-444.9Z" transform="translate(-61.999 -39.43)" fill="#4d87b6" stroke="#fff" stroke-width="1"/>
    <path id="Path_123" data-name="Path 123" d="M298.372-448.6a1.421,1.421,0,0,0-.193,1.737c.29.4,17.872,8.478,18.451,8.478a1.391,1.391,0,0,0,1-2.22c-.466-.467-17.808-8.4-18.371-8.4A1.226,1.226,0,0,0,298.372-448.6Z" transform="translate(-236.614 -39.43)" fill="#4d87b6" stroke="#fff" stroke-width="1"/>
    <path id="Path_124" data-name="Path 124" d="M58.474-407.693a3.128,3.128,0,0,0-2.123,1.93,4.153,4.153,0,0,1-2.413,2.3,3.75,3.75,0,0,1-3.217.225,3.165,3.165,0,0,0-2.879.064,11.577,11.577,0,0,0-3.78,3.764,3.247,3.247,0,0,0-.1,3.008c.467,1.223.338,2.188-.45,3.764a2.848,2.848,0,0,1-1.737,1.8c-1.963,1.03-2.333,1.786-2.333,4.794s.37,3.764,2.333,4.794a2.886,2.886,0,0,1,1.753,1.834,4.089,4.089,0,0,1,.434,3.732,5.788,5.788,0,0,0-.338,1.512,4.975,4.975,0,0,0,.933,2.349c.1.048-.129.643-.531,1.432a18.129,18.129,0,0,0-.981,2.252l-.273.9-.611-.756a10.432,10.432,0,0,0-1.657-1.544,12.155,12.155,0,0,1-1.062-.836,4.711,4.711,0,0,1,.386-.676,5.7,5.7,0,0,0,.869-3.78,5.035,5.035,0,0,0-.531-2.461,7.275,7.275,0,0,0-3.056-3.056,4.756,4.756,0,0,0-2.815-.466c-1.689,0-1.93.032-2.735.434a6.251,6.251,0,0,0-3.716,5.968,6.02,6.02,0,0,0,.885,3.346,6.005,6.005,0,0,1,.418.676,7.6,7.6,0,0,1-1.126.9,10.158,10.158,0,0,0-3.056,3.748A10.2,10.2,0,0,0,24-360.592c0,2.847.257,3.636,1.673,5.051,1.657,1.657,1.737,1.673,8.671,1.673,5.743,0,5.839-.016,6.756-.386l.917-.386v2.928c0,3.459.161,4.182,1.142,5.309,1.013,1.158,1.689,1.432,3.6,1.5l1.609.064,6.467-1.753,6.467-1.77,6.483,1.77,6.483,1.753,1.609-.064c1.914-.064,2.59-.338,3.6-1.5.981-1.126,1.142-1.85,1.142-5.309v-2.928l.933.386c.9.37,1,.386,6.74.386,6.933,0,7.014-.016,8.671-1.673,1.416-1.416,1.673-2.2,1.673-5.051a14.417,14.417,0,0,0-.241-3.169,10.629,10.629,0,0,0-3.8-5.727,9.6,9.6,0,0,1-1.11-.9,6,6,0,0,1,.418-.676,6.056,6.056,0,0,0,.885-3.394,6.3,6.3,0,0,0-3.716-5.92c-.8-.4-1.046-.434-2.735-.434a4.756,4.756,0,0,0-2.815.466,7.275,7.275,0,0,0-3.056,3.056,7.123,7.123,0,0,0,.241,6.113,7.024,7.024,0,0,1,.483.8,12.154,12.154,0,0,1-1.062.836,10.432,10.432,0,0,0-1.657,1.544l-.611.756-.257-.836a20.547,20.547,0,0,0-.949-2.2l-.692-1.383.467-.756a3.353,3.353,0,0,0,.257-3.2,4.1,4.1,0,0,1,.418-3.8,2.886,2.886,0,0,1,1.753-1.834c1.963-1.03,2.333-1.786,2.333-4.794s-.37-3.764-2.333-4.794a2.886,2.886,0,0,1-1.753-1.834,4.089,4.089,0,0,1-.434-3.732,3.247,3.247,0,0,0-.1-3.008,11.577,11.577,0,0,0-3.78-3.764,3.165,3.165,0,0,0-2.88-.064,3.75,3.75,0,0,1-3.217-.225,4.153,4.153,0,0,1-2.413-2.3c-.836-1.753-1.786-2.156-5.035-2.14A14.018,14.018,0,0,0,58.474-407.693Zm4.746,2.606c.273.048.483.322.772.965a7.421,7.421,0,0,0,5,3.684,5.839,5.839,0,0,0,3.443-.064c.981-.322,1.013-.322,1.432-.016a16.943,16.943,0,0,1,2.413,2.542,7.607,7.607,0,0,1-.322.965c-1.094,2.9.869,7.593,3.619,8.655a1.454,1.454,0,0,1,.82.6,15.254,15.254,0,0,1,0,3.426,1.717,1.717,0,0,1-.82.611c-2.8,1.142-4.729,5.759-3.619,8.655.177.466.322.885.322.917s-.643-.563-1.448-1.335a22.445,22.445,0,0,0-4.778-3.459,2.34,2.34,0,0,1-.692-.434,2.858,2.858,0,0,1,.386-.6,12.343,12.343,0,0,0,1.625-3.475,13.446,13.446,0,0,0,0-5.2,10.589,10.589,0,0,0-5.148-6.515,9.353,9.353,0,0,0-4.906-1.174,9.353,9.353,0,0,0-4.906,1.174,10.577,10.577,0,0,0-5.148,6.531,13.364,13.364,0,0,0,0,5.18,11.744,11.744,0,0,0,1.625,3.475,2.858,2.858,0,0,1,.386.6,2.4,2.4,0,0,1-.676.434,22.173,22.173,0,0,0-4.826,3.491c-.8.772-1.416,1.255-1.351,1.078a6.476,6.476,0,0,0,.241-4.681c-.724-2.365-1.995-4.022-3.6-4.665a1.688,1.688,0,0,1-.836-.627,15.115,15.115,0,0,1,.016-3.41,1.4,1.4,0,0,1,.82-.6c2.751-1.062,4.713-5.759,3.619-8.655a7.607,7.607,0,0,1-.322-.965,16.943,16.943,0,0,1,2.413-2.542c.418-.306.45-.306,1.432.016a5.943,5.943,0,0,0,3.475.064,7.4,7.4,0,0,0,4.987-3.7c.273-.611.5-.9.756-.965A13.062,13.062,0,0,1,63.219-405.087Zm.338,11.791a8.044,8.044,0,0,1,4.392,3.555,7.744,7.744,0,0,1,0,7.4,7.6,7.6,0,0,1-6.612,3.861,7.063,7.063,0,0,1-5.292-2.156,7.552,7.552,0,0,1-1.3-9.2,9.691,9.691,0,0,1,2.767-2.783A8.029,8.029,0,0,1,63.557-393.3ZM35.9-377.82a3.742,3.742,0,0,1,.949,6.049,3.771,3.771,0,0,1-5.2-.048,3.47,3.47,0,0,1-1.062-2.638A3.679,3.679,0,0,1,35.9-377.82Zm54.051-.016a3.668,3.668,0,0,1,2.091,3.378,3.623,3.623,0,0,1-3.668,3.7,3.658,3.658,0,0,1-3.732-3.7A3.692,3.692,0,0,1,89.955-377.837Zm-33.138,1.126a9.594,9.594,0,0,0,4.5.965,9.594,9.594,0,0,0,4.5-.965,5.836,5.836,0,0,1,1.19-.483,11.977,11.977,0,0,1,1.818.788,16.383,16.383,0,0,1,7.368,7.5c1.641,3.33,1.9,5.453,1.818,14.188-.048,5.309-.064,5.63-.386,6.161a2.005,2.005,0,0,1-2.011,1,86.091,86.091,0,0,1-8.767-2.236c.032-.032,1.206-.37,2.606-.756,3.089-.82,3.619-1.062,4.6-2.059a4.774,4.774,0,0,0,1.383-3.989,4.823,4.823,0,0,0-1.77-3.764c-.66-.563-.772-.74-.772-1.271a1.134,1.134,0,0,0-1.287-1.239c-.724,0-1.287.434-1.287.965,0,.257-.113.322-.6.322-.338.016-4.343.981-8.9,2.156l-8.285,2.139-.08-2.349a18.821,18.821,0,0,0-.225-2.638,1.55,1.55,0,0,0-2.188-.273c-.29.29-.322.531-.322,3.121v2.8l-.6.306a1.187,1.187,0,0,0-.563,1.8,1.136,1.136,0,0,0,.724.676c.322.08,3.121-.563,10.408-2.445,5.486-1.4,10.231-2.558,10.553-2.558a2.514,2.514,0,0,1,2.51,2.461,2.66,2.66,0,0,1-1.946,2.59c-2.686.869-23.149,6.225-23.792,6.225a1.941,1.941,0,0,1-1.963-.853c-.322-.515-.322-.724-.273-8.333.048-8.976.032-8.88,1.641-12.145a16.383,16.383,0,0,1,7.368-7.5,11.977,11.977,0,0,1,1.818-.788A5.836,5.836,0,0,1,56.817-376.711ZM34.3-368.04a7.643,7.643,0,0,0,1.93-.209c.515-.177.643-.161,1.5.257a7.633,7.633,0,0,1,3.813,4.488,9.792,9.792,0,0,1,.1,5.132,3.048,3.048,0,0,1-1.464,1.512c-.627.322-.837.338-5.872.338s-5.244-.016-5.872-.338a3.048,3.048,0,0,1-1.464-1.512,9.792,9.792,0,0,1,.1-5.132,7.533,7.533,0,0,1,3.684-4.424c.949-.5,1.046-.515,1.593-.322A8.042,8.042,0,0,0,34.3-368.04Zm54.051,0a7.643,7.643,0,0,0,1.93-.209c.515-.177.643-.161,1.5.257a7.633,7.633,0,0,1,3.813,4.488,8.427,8.427,0,0,1,.386,2.815c.016,1.721,0,1.8-.467,2.574a3.7,3.7,0,0,1-1.206,1.19l-.724.4H83.118l-.756-.45a3.337,3.337,0,0,1-1.206-1.207c-.418-.708-.45-.853-.434-2.526a8.321,8.321,0,0,1,.386-2.8,7.533,7.533,0,0,1,3.684-4.424c.949-.5,1.046-.515,1.593-.322A8.042,8.042,0,0,0,88.346-368.04Z" transform="translate(-6.721 -73.916)" fill="#4d87b6" stroke="#fff" stroke-width="1"/>
    <path id="Path_125" data-name="Path 125" d="M280.322-167.678a1.316,1.316,0,0,0-.322.965,1.316,1.316,0,0,0,.322.965c.29.29.531.322,2.9.322s2.606-.032,2.9-.322a1.316,1.316,0,0,0,.322-.965,1.316,1.316,0,0,0-.322-.965c-.29-.29-.531-.322-2.9-.322S280.611-167.968,280.322-167.678Z" transform="translate(-221.539 -275.227)" fill="#4d87b6" stroke="#fff" stroke-width="1"/>
    <path id="Path_126" data-name="Path 126" d="M19.434-399.6a5.75,5.75,0,0,0-3.282,3.346,6.976,6.976,0,0,0,.177,3.636,5.2,5.2,0,0,0,2.477,2.67,6.069,6.069,0,0,0,4.3.161,5.179,5.179,0,0,0,3.137-5.759,4.678,4.678,0,0,0-1.4-2.767,4.289,4.289,0,0,0-3.459-1.4A9.693,9.693,0,0,0,19.434-399.6Zm2.912,2.88a2.5,2.5,0,0,1,.885,3.362,2.431,2.431,0,0,1-4.5-1.223,2.328,2.328,0,0,1,1.721-2.365A2.038,2.038,0,0,1,22.346-396.724Z" transform="translate(0 -80.783)" fill="#4d87b6" stroke="#fff" stroke-width="1"/>
    <path id="Path_127" data-name="Path 127" d="M435.239-399.6a6.942,6.942,0,0,0-1.287.692,5.268,5.268,0,0,0,.66,8.96,4.2,4.2,0,0,0,2.333.4,4.313,4.313,0,0,0,2.316-.386,4.819,4.819,0,0,0,2.8-4.44,4.8,4.8,0,0,0-1.319-3.845,4.351,4.351,0,0,0-3.555-1.5A9.692,9.692,0,0,0,435.239-399.6Zm2.912,2.88a2.5,2.5,0,0,1,.885,3.362,2.431,2.431,0,0,1-4.5-1.223,2.328,2.328,0,0,1,1.721-2.365A2.038,2.038,0,0,1,438.151-396.724Z" transform="translate(-348.885 -80.783)" fill="#4d87b6" stroke="#fff" stroke-width="1"/>
    <path id="Path_128" data-name="Path 128" d="M54.217-322.792c-.5.386-.6,1.013-.338,2.011,1.77,6.8,2.22,8.365,2.526,8.687a1.42,1.42,0,0,0,2.284-.579A69.366,69.366,0,0,0,56-322.7,1.81,1.81,0,0,0,54.217-322.792Z" transform="translate(-31.678 -145.176)" fill="#4d87b6" stroke="#fff" stroke-width="1"/>
    <path id="Path_129" data-name="Path 129" d="M430.154-322.7a69.366,69.366,0,0,0-2.686,10.022,1.42,1.42,0,0,0,2.284.579c.306-.322.756-1.882,2.526-8.687.273-1.03.129-1.77-.386-2.043A1.823,1.823,0,0,0,430.154-322.7Z" transform="translate(-345.28 -145.172)" fill="#4d87b6" stroke="#fff" stroke-width="1"/>
  </g>
</svg>
