<svg xmlns="http://www.w3.org/2000/svg" width="44" height="44" viewBox="0 0 44 44">
  <g id="technology" transform="translate(-0.5 511.923)">
    <path id="Path_143" data-name="Path 143" d="M20.435-511.853a2.217,2.217,0,0,0-1.459,1.084,9.145,9.145,0,0,0-.365,1.592l-.226,1.334-.382.112A19.908,19.908,0,0,0,13.677-506a4.2,4.2,0,0,1-.695.353A7.987,7.987,0,0,1,12-506.3c-1.294-.929-1.485-1.015-2.206-1.015a1.905,1.905,0,0,0-.964.181,18.133,18.133,0,0,0-3.535,3.51,2.618,2.618,0,0,0-.043,1.815c.078.138.46.7.843,1.222a7.959,7.959,0,0,1,.7,1.058,4.683,4.683,0,0,1-.339.68,17.145,17.145,0,0,0-1.416,3.269c-.191.594-.382,1.153-.417,1.247-.052.155-.243.206-1.312.379-1.451.224-1.833.37-2.258.843-.521.576-.556.757-.556,3.209s.035,2.633.556,3.209c.426.473.834.628,2.145.835,1.468.232,1.407.206,1.511.628a20.415,20.415,0,0,0,1.746,4.276,4.683,4.683,0,0,1,.339.68,10.973,10.973,0,0,1-.773,1.17c-.895,1.247-1.06,1.695-.886,2.418a3.687,3.687,0,0,0,.217.628,19.839,19.839,0,0,0,3.483,3.381,2.3,2.3,0,0,0,1.494.163,8.544,8.544,0,0,0,2.154-1.334l.478-.336.5.275a20.756,20.756,0,0,0,4.221,1.746l.695.2.2,1.247c.217,1.377.347,1.747.747,2.151.539.542.851.637,2.1.645,1.06,0,1.147-.017,1.425-.206.6-.422.617-.525.617-4.155a29.565,29.565,0,0,0-.1-3.484,1.8,1.8,0,0,0-.895-.878,7.361,7.361,0,0,0-.964-.138,14.364,14.364,0,0,1-1.694-.267A13.334,13.334,0,0,1,9.612-487.539a16.609,16.609,0,0,1,0-4.732A13.313,13.313,0,0,1,19.827-502.75a14.59,14.59,0,0,1,1.694-.275,7.358,7.358,0,0,0,.964-.138,1.769,1.769,0,0,0,.895-.878,29.284,29.284,0,0,0,.1-3.459c0-3.656-.009-3.734-.634-4.181-.33-.241-.391-.25-1.225-.241A10.079,10.079,0,0,0,20.435-511.853Zm1.477,4.345v2.865l-.9.1a15.457,15.457,0,0,0-7,2.658,17.974,17.974,0,0,0-3.4,3.373,15.849,15.849,0,0,0-2.554,5.979,19.661,19.661,0,0,0,0,5.248A15.849,15.849,0,0,0,10.6-481.3a17.973,17.973,0,0,0,3.4,3.373,15.457,15.457,0,0,0,7,2.658l.9.1v5.738h-.469a2.778,2.778,0,0,1-.73-.095c-.33-.112-.374-.224-.678-2.056a8.346,8.346,0,0,0-.347-1.523,2.143,2.143,0,0,0-1.138-.456,20.1,20.1,0,0,1-2.927-1.032c-.434-.189-1.147-.568-1.607-.835a2.915,2.915,0,0,0-1.094-.49c-.217,0-.53.181-1.312.74-1.407,1-1.694,1.187-1.824,1.187a8.763,8.763,0,0,1-1.92-1.643c-1.016-1.024-1.259-1.351-1.19-1.574a15.1,15.1,0,0,1,.9-1.351c.469-.645.895-1.265.955-1.368.148-.267.061-.594-.3-1.136a17.525,17.525,0,0,1-2.033-4.792c-.182-.7-.287-.929-.452-1.05a6.547,6.547,0,0,0-1.763-.413c-1.268-.2-1.59-.284-1.737-.43-.182-.181-.191-.258-.191-2.159,0-1.884.009-1.979.182-2.151.148-.146.5-.232,1.737-.439a6.447,6.447,0,0,0,1.772-.413c.165-.12.269-.353.452-1.05a17.385,17.385,0,0,1,2.041-4.792c.347-.542.434-.869.287-1.127-.052-.112-.5-.757-1.008-1.445a11.6,11.6,0,0,1-.9-1.368,1.778,1.778,0,0,1,.339-.525,22.487,22.487,0,0,1,2.649-2.529c.252-.12.3-.095,1.807.972a8.981,8.981,0,0,0,1.425.895c.191.034.374-.026.756-.258a17.254,17.254,0,0,1,4.708-2.03c1.164-.31,1.3-.37,1.425-.594a9.731,9.731,0,0,0,.3-1.48c.122-.731.261-1.471.313-1.643.1-.379.339-.482,1.068-.49l.5-.009Z" transform="translate(0 0)" fill="#4d87b6"/>
    <path id="Path_144" data-name="Path 144" d="M136.532-494.88a2.342,2.342,0,0,0-1.233,2.82,2.763,2.763,0,0,0,1.112,1.272l.261.1v2.278c0,2.519-.026,2.682-.53,2.854a16.868,16.868,0,0,1-2.493.095h-2.215l-.3-.3c-.443-.447-.825-.516-2-.353a11.755,11.755,0,0,0-9.755,8.194,11.8,11.8,0,0,0,9.989,15.166c.947.112,1.355.017,1.763-.4l.3-.3H133.6a20.273,20.273,0,0,1,2.484.095c.565.146.591.275.591,2.854v2.278l-.261.1a2.763,2.763,0,0,0-1.112,1.272,2.339,2.339,0,0,0,.634,2.416,2.042,2.042,0,0,0,1.494.542,2.37,2.37,0,0,0,1.763-.774,2.634,2.634,0,0,0,.521-1.436,2.3,2.3,0,0,0-1.138-1.934l-.339-.172v-2.39a26.749,26.749,0,0,0-.087-2.7,2.337,2.337,0,0,0-1.164-1.4l-.521-.258L134-464.977l-2.458-.034v-1.358h8.486l.182-.2a.812.812,0,0,0-.035-1.1l-.226-.206-4.2-.026-4.2-.026v-2.055h12.083l.208.215.217.206v2.02c0,1.977,0,2.02-.182,2.072a2.769,2.769,0,0,0-1.06,1.023,1.921,1.921,0,0,0-.191,1,1.764,1.764,0,0,0,.252,1.1,2.246,2.246,0,0,0,4.2-.877,2.2,2.2,0,0,0-1.181-2.21l-.269-.12v-2.063a21.8,21.8,0,0,0-.087-2.382,2.315,2.315,0,0,0-1.121-1.29l-.46-.241h-12.4v-2.149h17.112l.078.2a2.323,2.323,0,0,0,2.754,1.143,2.226,2.226,0,0,0,1.277-3.155,2.268,2.268,0,0,0-3.666-.456,2.716,2.716,0,0,0-.374.516l-.1.206H131.546v-2.149h12.4l.46-.241a2.315,2.315,0,0,0,1.121-1.29,21.8,21.8,0,0,0,.087-2.382v-2.063l.269-.12a2.624,2.624,0,0,0,1-.972,2.988,2.988,0,0,0,.13-1.668,2.146,2.146,0,0,0-1.954-1.556,2.129,2.129,0,0,0-2.189,1.109,1.764,1.764,0,0,0-.252,1.1,1.921,1.921,0,0,0,.191,1,2.768,2.768,0,0,0,1.06,1.023c.182.052.182.095.182,2.072v2.02l-.217.206-.208.215H131.546v-2.063h4.135a32.552,32.552,0,0,0,4.317-.1.709.709,0,0,0,.408-.731.536.536,0,0,0-.226-.533c-.226-.181-.313-.181-4.43-.181h-4.2v-1.358l2.458-.034,2.45-.026.5-.249a2.206,2.206,0,0,0,1.181-1.4,21.786,21.786,0,0,0,.1-2.725v-2.364l.3-.146a2.371,2.371,0,0,0,1.173-1.969,2.634,2.634,0,0,0-.521-1.436,2.25,2.25,0,0,0-1.772-.757A3.4,3.4,0,0,0,136.532-494.88Zm1.355,1.6a.651.651,0,0,1-.226,1.118c-.3.12-.339.112-.634-.138a.577.577,0,0,1-.052-.937A.644.644,0,0,1,137.887-493.28Zm7.427,7.351a.667.667,0,0,1,.217.473.758.758,0,0,1-.6.688.794.794,0,0,1-.79-.739c0-.215.486-.636.738-.636A.718.718,0,0,1,145.314-485.929Zm-15.331,11.461v10.223l-.582-.077a10.845,10.845,0,0,1-4.256-1.573,12.4,12.4,0,0,1-2.971-2.923,10.017,10.017,0,0,1,0-11.263A12.445,12.445,0,0,1,125.127-483a10.622,10.622,0,0,1,4.074-1.556c.408-.06.747-.112.764-.12S129.983-480.083,129.983-474.469Zm21.238-.456a.667.667,0,0,1,.217.473.747.747,0,0,1-.643.688.75.75,0,0,1-.686-.688.572.572,0,0,1,.235-.49A.587.587,0,0,1,151.221-474.924Zm-5.907,11.005a.667.667,0,0,1,.217.473.758.758,0,0,1-.6.688.794.794,0,0,1-.79-.739c0-.215.486-.636.738-.636A.718.718,0,0,1,145.314-463.919Zm-7.409,7.325a.653.653,0,0,1,.122.791.633.633,0,0,1-1.051.138.577.577,0,0,1,.061-.946A.6.6,0,0,1,137.9-456.594Z" transform="translate(-108.521 -15.453)" fill="#4d87b6"/>
  </g>
</svg>
