<svg xmlns="http://www.w3.org/2000/svg" width="61.442" height="71.193" viewBox="0 0 61.442 71.193">
  <g id="values-2" transform="translate(-56 488)">
    <path id="Path_267" data-name="Path 267" d="M248.307-487.693c-.292.292-.307.507-.307,3.379s.015,3.087.307,3.379a1.257,1.257,0,0,0,.922.307,1.257,1.257,0,0,0,.922-.307c.292-.292.307-.507.307-3.379s-.015-3.087-.307-3.379a1.257,1.257,0,0,0-.922-.307A1.257,1.257,0,0,0,248.307-487.693Z" transform="translate(-162.509)" fill="#fff"/>
    <path id="Path_268" data-name="Path 268" d="M285.222-487.693c-.292.292-.307.507-.307,3.686v3.379h-.538a4.873,4.873,0,0,0-4.055,3,5.876,5.876,0,0,0,0,3.84,4.873,4.873,0,0,0,4.055,3h.538v2.15c0,2.964-.276,2.765,3.809,2.765,3.947,0,3.794.092,3.794-2.074,0-1.428,0-1.444.538-2a2.3,2.3,0,0,1,2.273-.707,3.134,3.134,0,0,1,1.106.707c.538.553.538.568.538,2,0,2.212-.338,2.074,5.023,2.074,5.345,0,5.038.123,5.038-1.966a20.851,20.851,0,0,0-3.425-10.859A20.836,20.836,0,0,0,286.881-488C285.729-488,285.483-487.954,285.222-487.693Zm4.47,2.611a24.119,24.119,0,0,1,2.78.768,18.7,18.7,0,0,1,11.888,15.037l.108.937H299.66v-.538a4.873,4.873,0,0,0-3-4.055,5.875,5.875,0,0,0-3.84,0,4.873,4.873,0,0,0-3,4.055v.538h-2.458v-2.273c0-2.888.015-2.872-2.074-2.872-1.428,0-1.444,0-2-.538a2.3,2.3,0,0,1-.707-2.273,3.134,3.134,0,0,1,.707-1.106c.553-.538.568-.538,2-.538,2.166,0,2.074.184,2.074-4.024v-3.425h.4A17,17,0,0,1,289.692-485.082Z" transform="translate(-189.594)" fill="#fff"/>
    <path id="Path_269" data-name="Path 269" d="M152.171-462.552c-.722.614-.584,1.152.922,3.779a16.935,16.935,0,0,0,1.659,2.55,1.274,1.274,0,0,0,1.551-.092c.722-.568.584-1.229-.845-3.717a22.2,22.2,0,0,0-1.628-2.534A1.212,1.212,0,0,0,152.171-462.552Z" transform="translate(-81.042 -21.255)" fill="#fff"/>
    <path id="Path_270" data-name="Path 270" d="M137.282-423.749a22.4,22.4,0,0,0-8.079,3.287,21.032,21.032,0,0,0-8.909,13.885,27.637,27.637,0,0,0,0,6.943,21.051,21.051,0,0,0,9.293,14.131,19.276,19.276,0,0,0,1.966,1.121l.8.369v1.8h-1.106a3.467,3.467,0,0,0-2.842,1.091c-.829.876-.968,1.413-.968,3.825s.138,2.949.968,3.825a3.5,3.5,0,0,0,2.826,1.091h1.091l.061,2.719c.046,2.673.061,2.765.492,3.656a6.931,6.931,0,0,0,2.934,2.934l.922.445h8.448l.922-.445a6.931,6.931,0,0,0,2.934-2.934c.43-.891.445-.983.492-3.656l.061-2.719h1.091a3.5,3.5,0,0,0,2.826-1.091c.829-.876.968-1.413.968-3.825s-.138-2.949-.968-3.825a3.454,3.454,0,0,0-2.826-1.091h-1.121v-1.766l1.321-.676a20.5,20.5,0,0,0,10.921-17c.123-2.842.384-2.673-3.947-2.673h-3.379v-.538a4.873,4.873,0,0,0-3-4.055,5.876,5.876,0,0,0-3.84,0,4.873,4.873,0,0,0-3,4.055v.538h-2.458v-2.273c0-2.888.015-2.872-2.074-2.872-1.428,0-1.444,0-2-.538a3.134,3.134,0,0,1-.707-1.106,2.3,2.3,0,0,1,.707-2.273c.553-.538.568-.538,2-.538,2.212,0,2.074.338,2.074-5.023,0-5.391.138-5.053-2.1-5.023A22.353,22.353,0,0,0,137.282-423.749ZM139.724-419v2.381h-.538a4.873,4.873,0,0,0-4.055,3,5.875,5.875,0,0,0,0,3.84,4.873,4.873,0,0,0,4.055,3h.538v2.458h-2.273c-2.888,0-2.872-.015-2.872,2.074,0,1.428,0,1.444-.538,2a3.135,3.135,0,0,1-1.106.707,2.3,2.3,0,0,1-2.273-.707c-.538-.553-.538-.568-.538-2,0-2.166.2-2.074-4.04-2.074h-3.456l.108-.937A18.767,18.767,0,0,1,130.324-418a21.081,21.081,0,0,1,4.915-2.534,23.517,23.517,0,0,1,3.994-.829l.492-.015Zm10.445,12.365a2.9,2.9,0,0,1,1.075.691c.538.553.538.568.538,2,0,2.166-.2,2.074,4.04,2.074h3.441l-.107,1a20.122,20.122,0,0,1-1.382,5.038,19.039,19.039,0,0,1-9.093,9.354c-1.613.722-1.582.676-1.582,2.611v1.659h-4.915v-7.373h.538a4.841,4.841,0,0,0,3-1.382,5.112,5.112,0,0,0,0-7.065,4.841,4.841,0,0,0-3-1.382h-.538v-2.458h2.273c2.888,0,2.872.015,2.872-2.074,0-1.428,0-1.444.538-2a2.656,2.656,0,0,1,1.613-.829A3.075,3.075,0,0,1,150.169-406.638Zm-22.732,5.3a4.873,4.873,0,0,0,3,4.055,5.875,5.875,0,0,0,3.84,0,4.873,4.873,0,0,0,3-4.055v-.538h2.458v2.273c0,2.888-.015,2.872,2.074,2.872,1.428,0,1.444,0,2,.538a2.235,2.235,0,0,1,0,3.379c-.553.538-.568.538-2,.538-2.227,0-2.074-.384-2.074,5.33v4.731h-4.915v-1.659c0-1.951.077-1.843-1.843-2.765a18.938,18.938,0,0,1-8.847-9.231,21.828,21.828,0,0,1-1.382-5.069l-.108-.937h4.808Zm23.715,21.8c.645.261.86.845.86,2.243s-.215,1.981-.86,2.243c-.676.276-19.522.323-20.336.046-.645-.23-.922-.891-.922-2.258,0-1.4.215-2.012.829-2.273C131.43-379.851,150.4-379.851,151.152-379.544Zm-13.885,9.308c0,1.951.031,2.181.307,2.458a1.521,1.521,0,0,0,1.843,0c.276-.276.307-.507.307-2.458v-2.15h2.458v2.15c0,1.951.031,2.181.307,2.458a1.257,1.257,0,0,0,.922.307,1.257,1.257,0,0,0,.922-.307c.276-.276.307-.507.307-2.458v-2.15h2.5l-.077,2.181c-.077,2.534-.292,3.226-1.306,4.132-.983.891-1.428.983-4.884.983-2.8,0-3.133-.031-3.763-.323a3.634,3.634,0,0,1-1.889-1.9,7.2,7.2,0,0,1-.384-2.888l-.077-2.181h2.5Z" transform="translate(-54.233 -54.175)" fill="#fff"/>
    <path id="Path_271" data-name="Path 271" d="M81.822-391.715a1.382,1.382,0,0,0-.061,1.828,23.877,23.877,0,0,0,2.488,1.536c2.488,1.444,3.149,1.582,3.717.86a1.274,1.274,0,0,0,.092-1.551,15.656,15.656,0,0,0-2.534-1.643C83.066-392.1,82.5-392.268,81.822-391.715Z" transform="translate(-21.536 -81.247)" fill="#fff"/>
    <path id="Path_272" data-name="Path 272" d="M56.307-295.693a1.257,1.257,0,0,0-.307.922,1.257,1.257,0,0,0,.307.922c.292.292.507.307,3.379.307s3.087-.015,3.379-.307a1.257,1.257,0,0,0,.307-.922,1.257,1.257,0,0,0-.307-.922c-.292-.292-.507-.307-3.379-.307S56.6-295.985,56.307-295.693Z" transform="translate(0 -162.509)" fill="#fff"/>
    <path id="Path_273" data-name="Path 273" d="M408.307-295.693a1.257,1.257,0,0,0-.307.922,1.257,1.257,0,0,0,.307.922c.292.292.507.307,3.379.307s3.087-.015,3.379-.307a1.257,1.257,0,0,0,.307-.922,1.257,1.257,0,0,0-.307-.922c-.292-.292-.507-.307-3.379-.307S408.6-295.985,408.307-295.693Z" transform="translate(-297.934 -162.509)" fill="#fff"/>
    <path id="Path_274" data-name="Path 274" d="M83.941-214.633c-2.411,1.4-2.765,1.751-2.611,2.534a1.08,1.08,0,0,0,1.183,1.014c.461,0,1.091-.292,2.888-1.321a15.653,15.653,0,0,0,2.534-1.643,1.274,1.274,0,0,0-.092-1.551.962.962,0,0,0-.952-.4C86.368-215.985,85.815-215.739,83.941-214.633Z" transform="translate(-21.413 -230.221)" fill="#fff"/>
    <path id="Path_275" data-name="Path 275" d="M386.375-215.747a1.274,1.274,0,0,0-.092,1.551,15.657,15.657,0,0,0,2.534,1.643c2.519,1.444,3.21,1.628,3.779,1a1.52,1.52,0,0,0-.015-1.8,23.886,23.886,0,0,0-2.488-1.536C387.6-216.331,386.943-216.469,386.375-215.747Z" transform="translate(-279.365 -230.075)" fill="#fff"/>
  </g>
</svg>
