<svg xmlns="http://www.w3.org/2000/svg" width="89.602" height="63.679" viewBox="0 0 89.602 63.679">
  <g id="values-1" transform="translate(-0.5 437.981)">
    <path id="Path_145" data-name="Path 145" d="M186.83-437.687a13.391,13.391,0,0,0-10.441,11.37,13.561,13.561,0,0,0,4.748,11.913,17.443,17.443,0,0,0,5.256,2.645,18.2,18.2,0,0,0,6.815-.018,13.787,13.787,0,0,0,9.566-9.478,13.528,13.528,0,0,0-5.939-14.786A14.128,14.128,0,0,0,186.83-437.687Zm5.694,3.136a10.665,10.665,0,0,1,7.27,7.428,11.716,11.716,0,0,1-.228,5.676,10.382,10.382,0,0,1-9.758,6.955,9.583,9.583,0,0,1-7.358-3.083,9.738,9.738,0,0,1-2.7-9.758A10.464,10.464,0,0,1,192.524-434.551Z" transform="translate(-144.985 0)" fill="#fff"/>
    <path id="Path_146" data-name="Path 146" d="M358.581-385.517a10.665,10.665,0,0,0-7.358,7.6,10.4,10.4,0,0,0,5.519,11.668,9.562,9.562,0,0,0,4.8,1.086,10.46,10.46,0,0,0,10.021-7.621,12.273,12.273,0,0,0,0-5.413,10.769,10.769,0,0,0-6.6-7.113A13.812,13.812,0,0,0,358.581-385.517Zm4.555,2.926a7.446,7.446,0,0,1,3.556,2.05,7.055,7.055,0,0,1-.158,10.214,7.244,7.244,0,0,1-10.336-.07,7.028,7.028,0,0,1-2.015-6.482A7.352,7.352,0,0,1,363.136-382.591Z" transform="translate(-289.055 -43.042)" fill="#fff"/>
    <path id="Path_147" data-name="Path 147" d="M49.44-381.617a10.524,10.524,0,0,0-7.463,7.341,12.351,12.351,0,0,0,0,5.431,10.749,10.749,0,0,0,6.64,7.1,13.15,13.15,0,0,0,6.062.263,10.663,10.663,0,0,0,7.638-7.656,11.916,11.916,0,0,0,0-4.853,10.693,10.693,0,0,0-7.656-7.638A13.758,13.758,0,0,0,49.44-381.617Zm4.38,2.978a7.382,7.382,0,0,1,5.606,6.044c.806,4.66-3.767,9.128-8.462,8.252a7.341,7.341,0,0,1-5.448-10.477,8.14,8.14,0,0,1,5.186-3.907A6.314,6.314,0,0,1,53.82-378.639Z" transform="translate(-33.961 -46.276)" fill="#fff"/>
    <path id="Path_148" data-name="Path 148" d="M41.67-276.674a26.221,26.221,0,0,0-8.584,2.978,27.251,27.251,0,0,0-4.87,3.626l-.508.526-1.507-.771a23.377,23.377,0,0,0-3.1-1.244c-1.472-.438-1.787-.473-4.905-.473-3.136,0-3.416.018-4.905.473a17.924,17.924,0,0,0-12.3,12.141C.518-257.875.518-257.788.5-253.11v4.748l.491.7a4.824,4.824,0,0,0,1.331,1.174l.858.456H20.735l.088.491a4.583,4.583,0,0,0,1.156,2.558,6.331,6.331,0,0,0,1.454,1.209l.718.385H66.372l.718-.385a6.266,6.266,0,0,0,2.278-2.418,8.75,8.75,0,0,0,.35-1.734l.123-1.156H78.5c9.425,0,9.373,0,10.441-1.016a4.844,4.844,0,0,0,.858-1.156c.333-.631.333-.946.28-5.168-.07-4.275-.105-4.555-.561-6.062A16.936,16.936,0,0,0,85-268.054a17.907,17.907,0,0,0-20.235-3.556,14.652,14.652,0,0,0-1.962,1.051l-.526.35-1.542-1.226a24.588,24.588,0,0,0-12.018-5.238A37.826,37.826,0,0,0,41.67-276.674Zm5.886,2.961A22.437,22.437,0,0,1,57.473-270,22.123,22.123,0,0,1,65.5-259.452c.911,2.7,1,3.416,1.086,8.707.088,5.466.088,5.536-.876,6.114-.543.333-1.069.35-20.445.35s-19.9-.018-20.445-.35c-.964-.578-.964-.648-.876-6.114.088-5.291.175-6.009,1.086-8.707A21.553,21.553,0,0,1,47.557-273.713Zm27.523,3.749a15.091,15.091,0,0,1,10.932,8.83c.858,2.155.981,2.926,1.069,6.8l.088,3.7-.4.3c-.368.245-1.314.28-8.672.28H69.841l-.123-2.593c-.263-5.694-1.437-9.53-4.187-13.577l-1.156-1.7,1.174-.6A14.665,14.665,0,0,1,75.079-269.964Zm-53.223,1.331a17.77,17.77,0,0,1,2.575.893l1.174.543-.964,1.472a23.912,23.912,0,0,0-3.451,8.83c-.158.911-.333,3.066-.4,4.765l-.105,3.118H12.325c-8.076,0-8.374-.018-8.672-.35-.28-.3-.3-.666-.21-3.977.07-3.013.14-3.854.456-4.905a14.85,14.85,0,0,1,11.668-10.669A17.062,17.062,0,0,1,21.856-268.632Z" transform="translate(0 -132.912)" fill="#fff"/>
  </g>
</svg>
